<svg xmlns="http://www.w3.org/2000/svg" viewBox="0 0 138.67 182.3"><defs><style>.cls-1{fill:#d9af6f;}.cls-2{fill:#efc58b;}.cls-3{fill:#c79d5c;}.cls-4{fill:#e0dedc;}.cls-5{fill:#f4efe9;}.cls-6{fill:#d1d1d1;}.cls-7{fill:#fff;}.cls-8{fill:#f7e6bb;}.cls-9{fill:#3e6669;}.cls-10{fill:#389998;}.cls-11{fill:#418080;}.cls-12{fill:#8ccccb;}.cls-13{fill:#534898;}.cls-14{fill:#028295;}.cls-15{fill:#b7b7b7;}</style></defs><title>kit1</title><g id="Capa_2" data-name="Capa 2"><g id="Layer_1" data-name="Layer 1"><polygon class="cls-1" points="8.46 144.43 10.44 125.31 70.3 101.23 131.95 128.85 67.7 167.73 52.85 170.1 8.46 144.43"/><polygon class="cls-2" points="135.14 142.61 68.74 104.27 67.1 90.96 68.74 83.69 81.53 90.49 110.09 106.81 135.14 122.03 135.14 142.61"/><polygon class="cls-1" points="135.14 122.46 68.74 84.13 68.74 83.69 135.14 122.03 135.14 122.46"/><polygon class="cls-3" points="68.74 104.27 11.35 137.41 0.7 122.25 68.74 83.69 68.74 104.27"/><rect class="cls-4" x="65.98" y="160.93" width="5.44" height="18.04"/><polygon class="cls-5" points="65.98 160.93 5.52 126.02 5.52 144.06 65.98 178.97 65.98 160.93"/><polygon class="cls-6" points="131.95 125.98 71.42 160.93 71.42 178.97 131.95 144.02 131.95 125.98"/><polygon class="cls-7" points="71.49 87.93 66.05 87.93 5.52 122.88 5.52 126.02 65.98 160.93 71.42 160.93 131.95 125.98 131.96 122.84 71.49 87.93"/><polygon class="cls-6" points="99.04 135.34 99.04 139.39 94.08 142.26 88.8 142.26 79.06 147.88 79.06 147.91 68.89 153.79 67.08 153.79 62.12 150.93 62.12 146.87 64.98 143.93 82.68 133.71 87.06 132.47 94.08 132.47 99.04 135.34"/><polygon class="cls-6" points="89.06 122.66 89.06 126.67 82.03 130.73 54.77 114.99 47.81 114.99 20.55 130.73 13.53 126.67 13.53 122.66 47.81 102.87 54.77 102.87 89.06 122.66"/><polygon class="cls-5" points="82.03 130.73 54.77 146.47 47.81 146.47 20.55 130.73 47.81 114.99 54.77 114.99 82.03 130.73"/><polygon class="cls-5" points="79.06 147.91 79.06 150.93 74.1 153.79 68.89 153.79 79.06 147.91"/><polygon class="cls-5" points="101.61 119.43 97.75 121.66 90.79 121.66 63.53 105.91 67.38 103.69 74.34 103.69 101.61 119.43"/><polygon class="cls-6" points="117.15 116.29 110.19 116.29 105.73 118.87 104.15 117.96 108.63 115.38 108.63 111.36 74.34 91.57 67.38 91.57 56.51 97.84 56.51 101.85 63.53 105.91 67.38 103.69 74.34 103.69 101.61 119.43 101.94 119.24 103.5 120.15 99.33 122.56 99.33 126.58 106.35 130.63 110.19 128.41 117.15 128.41 119.16 129.57 126.19 125.52 126.19 121.51 117.15 116.29"/><polygon class="cls-5" points="119.16 129.57 115.31 131.79 108.36 131.79 106.35 130.63 110.19 128.41 117.15 128.41 119.16 129.57"/><path class="cls-8" d="M135.14,122,68.67,160.4,2.27,122.07,68.74,83.69,135.14,122Zm2.27,0L68.74,82.38,0,122.07l9.74,5.62,49.19,28.4,9.75,5.63L137.41,122Z"/><polygon class="cls-3" points="137.41 142.61 68.67 182.3 65.3 167.09 68.67 161.72 137.41 122.03 137.41 142.61"/><polygon class="cls-6" points="134.14 133.21 133.91 133.08 115.85 143.51 115.62 143.9 115.62 151.16 115.85 151.29 133.91 140.86 134.14 140.47 134.14 133.21"/><path class="cls-3" d="M22.36,139.5l1.07,12.66,22.68,12.05,1-10.27Zm3.2,8.87v-5.13l19.82,11.44v5.13Z"/><path class="cls-2" d="M0,122.07v20.58L68.67,182.3V161.72Zm24.42,27v-5.14l19.82,11.44v5.14Z"/><polygon class="cls-3" points="137.41 122.03 136.27 122.68 133.46 112.79 137.41 112.2 137.41 122.03"/><polygon class="cls-2" points="136.27 122.68 67.6 83.03 67.6 74.68 62.14 36.41 67.6 12.73 70.39 11.93 118.64 39.38 129.56 43.03 129.56 80.2 136.27 87.25 136.27 122.68"/><polygon class="cls-2" points="83.87 18.89 106.66 32.16 111.69 27.4 90.25 14.54 83.87 18.89"/><polygon class="cls-3" points="68.74 12.07 68.74 74.03 58.33 80.04 57.82 67.31 57.82 28.1 57.82 6.76 68.74 12.07"/><path class="cls-3" d="M89.79,15.2,83,19.47l22.56,12.42,7.78-3.42Zm15.82,16.69L85.79,20.44l4.44-2.57,19.83,11.45Z"/><polygon class="cls-9" points="91.01 16.76 91.01 18.87 86.39 21.54 86.39 19.43 91.01 16.76"/><polygon class="cls-2" points="57.18 6.01 57.18 79.38 58.33 80.04 58.33 63.15 58.33 8 127.11 47.71 127.11 119.75 128.26 120.41 128.26 47.05 57.18 6.01"/><path class="cls-8" d="M67.59,0,57.18,6l71.08,41,10.41-6Zm38,30.53L85.79,19.09l4.44-2.56L110.06,28Z"/><polygon class="cls-3" points="138.67 41.04 138.67 114.4 128.26 120.41 128.26 47.05 138.67 41.04"/><polygon class="cls-10" points="90.23 16.52 85.79 19.09 89.79 16.26 94.24 13.7 90.23 16.52"/><polygon class="cls-9" points="90.24 17.26 86.44 19.47 86.39 19.43 89.61 16.81 94.11 14.54 90.24 17.26"/><polygon class="cls-11" points="101.22 23.6 89.81 17.01 86.39 19.43 85.79 19.09 89.79 16.26 103.02 21.48 105.61 30.53 104.65 29.98 101.22 23.6"/><polygon class="cls-10" points="106.06 20.52 101.61 23.09 105.61 30.53 110.06 27.97 106.06 20.52"/><polygon class="cls-12" points="94.24 13.7 89.79 16.26 101.61 23.09 106.06 20.52 94.24 13.7"/><polygon class="cls-13" points="97.32 53.19 86.31 47.58 89.65 54.54 91.45 53.16 94.44 54.68 85.78 61.3 89.54 63.22 98.55 56.34 100.53 54.82 97.32 53.19"/><polygon class="cls-13" points="102.92 56.04 93.92 62.92 91.93 64.44 95.15 66.08 106.16 71.68 102.82 64.72 101.01 66.1 98.03 64.58 106.69 57.96 102.92 56.04"/><path class="cls-14" d="M85.31,64a.39.39,0,0,1-.25.41L81,65.93l4.46,2.27v1.1l-6-3a1,1,0,0,1-.42-.37.89.89,0,0,1-.14-.49.4.4,0,0,1,.26-.42l4.14-1.45-4.27-2.18V60.25l5.69,2.9a1,1,0,0,1,.42.39,1,1,0,0,1,.14.49"/><path class="cls-14" d="M87.76,70.47a5.24,5.24,0,0,1-.82-.5,2.69,2.69,0,0,1-.51-.5,1.61,1.61,0,0,1-.27-.52,1.94,1.94,0,0,1-.08-.54V68a1.35,1.35,0,0,1,.07-.48.42.42,0,0,1,.25-.25.86.86,0,0,1,.49,0,3.94,3.94,0,0,1,.79.32l3.4,1.73v-.1a1.13,1.13,0,0,0-.18-.68,1.68,1.68,0,0,0-.6-.45L89,67.42v-.9l1.26.64a5.94,5.94,0,0,1,.94.58,3.24,3.24,0,0,1,.63.63,2.34,2.34,0,0,1,.36.71,2.78,2.78,0,0,1,.11.82V71a2.59,2.59,0,0,1-.1.79.57.57,0,0,1-.34.38,1.06,1.06,0,0,1-.65,0,6.07,6.07,0,0,1-1-.43Zm3.32-.39-3.27-1.67a.54.54,0,0,0-.35-.08q-.13,0-.13.3V69a.62.62,0,0,0,.14.41,1.22,1.22,0,0,0,.38.29l2.38,1.21a2.36,2.36,0,0,0,.38.16.43.43,0,0,0,.26,0,.27.27,0,0,0,.15-.17,1.17,1.17,0,0,0,.05-.39Z"/><path class="cls-14" d="M95.49,74.41a7.08,7.08,0,0,1-1.06-.65,3.13,3.13,0,0,1-.68-.69,2.34,2.34,0,0,1-.36-.8,4.11,4.11,0,0,1-.11-1V67.2l1.27.64v1.49l2.56,1.3a7.14,7.14,0,0,1,1.07.65,3.13,3.13,0,0,1,.68.69,2.34,2.34,0,0,1,.36.8,4.17,4.17,0,0,1,.11,1v.62a2.92,2.92,0,0,1-.11.88.64.64,0,0,1-.36.43,1.1,1.1,0,0,1-.68,0,5.57,5.57,0,0,1-1.07-.44Zm2.56-1.26a2.56,2.56,0,0,0,0-.51,1,1,0,0,0-.15-.36,1.23,1.23,0,0,0-.31-.3,4.06,4.06,0,0,0-.49-.29l-2.51-1.28v1.5a2.39,2.39,0,0,0,0,.48,1,1,0,0,0,.15.36,1.25,1.25,0,0,0,.3.3,3.6,3.6,0,0,0,.49.29l1.53.78a3,3,0,0,0,.49.21.45.45,0,0,0,.31,0,.3.3,0,0,0,.15-.21,1.86,1.86,0,0,0,0-.45Z"/><path class="cls-14" d="M102.44,78a7.08,7.08,0,0,1-1.06-.65,3.13,3.13,0,0,1-.68-.69,2.34,2.34,0,0,1-.36-.8,4.11,4.11,0,0,1-.11-1v-.62a3,3,0,0,1,.11-.88.64.64,0,0,1,.36-.43,1.1,1.1,0,0,1,.68,0,5.54,5.54,0,0,1,1.06.43l1.54.78a7.14,7.14,0,0,1,1.07.65,3.09,3.09,0,0,1,.68.69,2.38,2.38,0,0,1,.36.81,4.17,4.17,0,0,1,.11,1v.61a2.92,2.92,0,0,1-.11.88.64.64,0,0,1-.36.43,1.1,1.1,0,0,1-.68,0,5.57,5.57,0,0,1-1.07-.44Zm2.49-1.3a2.33,2.33,0,0,0,0-.5,1,1,0,0,0-.17-.38,1.38,1.38,0,0,0-.34-.32,5.17,5.17,0,0,0-.56-.32l-1.19-.61a4.28,4.28,0,0,0-.56-.25.55.55,0,0,0-.34,0,.28.28,0,0,0-.17.21,1.72,1.72,0,0,0,0,.45v.54a2.26,2.26,0,0,0,0,.5,1,1,0,0,0,.17.37,1.44,1.44,0,0,0,.34.32,4.58,4.58,0,0,0,.56.33l1.19.61a3.91,3.91,0,0,0,.56.24.57.57,0,0,0,.34,0,.28.28,0,0,0,.17-.2,1.67,1.67,0,0,0,0-.45Z"/><path class="cls-14" d="M109.32,81.46a7.08,7.08,0,0,1-1.06-.65,3.13,3.13,0,0,1-.68-.69,2.34,2.34,0,0,1-.36-.79,4.12,4.12,0,0,1-.11-1v-.62a3,3,0,0,1,.11-.88.64.64,0,0,1,.36-.43,1.1,1.1,0,0,1,.68,0,5.54,5.54,0,0,1,1.06.43l1.54.78a7.14,7.14,0,0,1,1.07.65,3.09,3.09,0,0,1,.68.69,2.38,2.38,0,0,1,.36.81,4.17,4.17,0,0,1,.11,1v.61a2.92,2.92,0,0,1-.11.88.64.64,0,0,1-.36.43,1.1,1.1,0,0,1-.68,0,5.57,5.57,0,0,1-1.07-.44Zm2.49-1.3a2.33,2.33,0,0,0,0-.5,1,1,0,0,0-.17-.38,1.38,1.38,0,0,0-.34-.32,5.17,5.17,0,0,0-.56-.32L109.49,78a4.28,4.28,0,0,0-.56-.25.55.55,0,0,0-.34,0,.28.28,0,0,0-.17.21,1.72,1.72,0,0,0,0,.45V79a2.26,2.26,0,0,0,0,.5,1,1,0,0,0,.17.37,1.44,1.44,0,0,0,.34.32,4.58,4.58,0,0,0,.56.33l1.19.61a3.91,3.91,0,0,0,.56.24.57.57,0,0,0,.34,0,.28.28,0,0,0,.17-.2,1.67,1.67,0,0,0,0-.45Z"/><path class="cls-15" d="M6.49,131.21a.23.23,0,0,1-.15.24l-2.42.89,2.66,1.36v.66L3,132.54a.61.61,0,0,1-.25-.22.53.53,0,0,1-.09-.29.24.24,0,0,1,.16-.25l2.47-.86-2.55-1.3V129l3.4,1.73a.59.59,0,0,1,.25.23.58.58,0,0,1,.09.29"/><path class="cls-15" d="M8,135.06a3.13,3.13,0,0,1-.49-.3,1.61,1.61,0,0,1-.31-.3,1,1,0,0,1-.16-.31,1.16,1.16,0,0,1,0-.32v-.26a.81.81,0,0,1,0-.28.25.25,0,0,1,.15-.15.51.51,0,0,1,.29,0,2.36,2.36,0,0,1,.47.19l2,1v-.06a.67.67,0,0,0-.11-.41,1,1,0,0,0-.36-.27l-.75-.38v-.54l.75.38a3.55,3.55,0,0,1,.56.35,1.94,1.94,0,0,1,.38.38,1.4,1.4,0,0,1,.22.42,1.66,1.66,0,0,1,.07.49v.67a1.55,1.55,0,0,1-.06.47.34.34,0,0,1-.2.23.63.63,0,0,1-.39,0,3.63,3.63,0,0,1-.61-.26Zm2-.23-2-1a.32.32,0,0,0-.21,0q-.08,0-.08.18v.19a.37.37,0,0,0,.08.24.73.73,0,0,0,.23.17l1.42.72.23.1a.25.25,0,0,0,.16,0,.16.16,0,0,0,.09-.1.7.7,0,0,0,0-.23Z"/><path class="cls-15" d="M12.57,137.41a4.23,4.23,0,0,1-.63-.39,1.87,1.87,0,0,1-.41-.41,1.4,1.4,0,0,1-.22-.47,2.45,2.45,0,0,1-.06-.59V133.1l.76.38v.89l1.53.78a4.27,4.27,0,0,1,.64.39,1.87,1.87,0,0,1,.41.41,1.4,1.4,0,0,1,.22.48,2.49,2.49,0,0,1,.06.59v.37a1.75,1.75,0,0,1-.06.52.38.38,0,0,1-.22.26.65.65,0,0,1-.41,0,3.33,3.33,0,0,1-.64-.26Zm1.53-.75a1.53,1.53,0,0,0,0-.3.58.58,0,0,0-.09-.22.74.74,0,0,0-.18-.18l-.29-.17L12,135v.9a1.43,1.43,0,0,0,0,.29.6.6,0,0,0,.09.22.74.74,0,0,0,.18.18,2.15,2.15,0,0,0,.29.17l.91.47a1.79,1.79,0,0,0,.29.12.27.27,0,0,0,.18,0,.18.18,0,0,0,.09-.12,1.11,1.11,0,0,0,0-.27Z"/><path class="cls-15" d="M16.73,139.52a4.23,4.23,0,0,1-.63-.39,1.87,1.87,0,0,1-.41-.41,1.4,1.4,0,0,1-.22-.47,2.46,2.46,0,0,1-.06-.59v-.37a1.77,1.77,0,0,1,.06-.53.39.39,0,0,1,.22-.26.66.66,0,0,1,.41,0,3.31,3.31,0,0,1,.63.26l.92.47a4.27,4.27,0,0,1,.64.39,1.84,1.84,0,0,1,.41.41,1.42,1.42,0,0,1,.22.48,2.49,2.49,0,0,1,.06.59v.37a1.75,1.75,0,0,1-.06.52.38.38,0,0,1-.22.26.65.65,0,0,1-.41,0,3.33,3.33,0,0,1-.64-.26Zm1.48-.78a1.39,1.39,0,0,0,0-.3.6.6,0,0,0-.1-.23.82.82,0,0,0-.21-.19l-.33-.19-.71-.36-.33-.15a.33.33,0,0,0-.2,0,.17.17,0,0,0-.1.12,1,1,0,0,0,0,.27V138a1.35,1.35,0,0,0,0,.3.6.6,0,0,0,.1.22.86.86,0,0,0,.2.19,2.74,2.74,0,0,0,.33.19l.71.36a2.33,2.33,0,0,0,.33.15.34.34,0,0,0,.21,0,.17.17,0,0,0,.1-.12,1,1,0,0,0,0-.27Z"/><path class="cls-15" d="M20.83,141.62a4.23,4.23,0,0,1-.63-.39,1.87,1.87,0,0,1-.41-.41,1.4,1.4,0,0,1-.21-.47,2.46,2.46,0,0,1-.06-.59v-.37a1.76,1.76,0,0,1,.06-.52.39.39,0,0,1,.22-.26.66.66,0,0,1,.41,0,3.31,3.31,0,0,1,.63.26l.92.47a4.27,4.27,0,0,1,.64.39,1.84,1.84,0,0,1,.41.41,1.42,1.42,0,0,1,.22.48,2.49,2.49,0,0,1,.06.59v.36a1.75,1.75,0,0,1-.06.52.38.38,0,0,1-.22.26.65.65,0,0,1-.41,0,3.33,3.33,0,0,1-.64-.26Zm1.48-.78a1.39,1.39,0,0,0,0-.3.6.6,0,0,0-.1-.23.82.82,0,0,0-.21-.19l-.33-.19-.71-.36-.33-.15a.33.33,0,0,0-.2,0,.17.17,0,0,0-.1.12,1,1,0,0,0,0,.27v.32a1.35,1.35,0,0,0,0,.3.6.6,0,0,0,.1.22.86.86,0,0,0,.2.19,2.74,2.74,0,0,0,.33.19l.71.36a2.33,2.33,0,0,0,.33.15.34.34,0,0,0,.21,0,.17.17,0,0,0,.1-.12,1,1,0,0,0,0-.27Z"/><path class="cls-15" d="M50.13,154.75A.23.23,0,0,1,50,155l-2.42.89,2.66,1.36v.66l-3.57-1.82a.61.61,0,0,1-.25-.22.53.53,0,0,1-.09-.29.24.24,0,0,1,.16-.25l2.47-.86-2.55-1.3v-.66l3.4,1.73a.59.59,0,0,1,.25.23.58.58,0,0,1,.09.29"/><path class="cls-15" d="M51.59,158.6a3.13,3.13,0,0,1-.49-.3,1.61,1.61,0,0,1-.31-.3,1,1,0,0,1-.16-.31,1.16,1.16,0,0,1,0-.32v-.26a.81.81,0,0,1,0-.28.25.25,0,0,1,.15-.15.51.51,0,0,1,.29,0,2.36,2.36,0,0,1,.47.19l2,1v-.06a.67.67,0,0,0-.11-.41,1,1,0,0,0-.36-.27l-.75-.38v-.54l.75.38a3.55,3.55,0,0,1,.56.35,1.94,1.94,0,0,1,.38.38,1.4,1.4,0,0,1,.22.42,1.66,1.66,0,0,1,.07.49v.67a1.55,1.55,0,0,1-.06.47.34.34,0,0,1-.2.23.63.63,0,0,1-.39,0,3.63,3.63,0,0,1-.61-.26Zm2-.23-2-1a.32.32,0,0,0-.21,0q-.08,0-.08.18v.19a.37.37,0,0,0,.08.24.73.73,0,0,0,.23.17l1.42.72.23.1a.25.25,0,0,0,.16,0,.16.16,0,0,0,.09-.1.7.7,0,0,0,0-.23Z"/><path class="cls-15" d="M56.21,160.95a4.23,4.23,0,0,1-.63-.39,1.87,1.87,0,0,1-.41-.41,1.4,1.4,0,0,1-.22-.47,2.45,2.45,0,0,1-.06-.59v-2.45l.76.38v.89l1.53.78a4.27,4.27,0,0,1,.64.39,1.87,1.87,0,0,1,.41.41,1.4,1.4,0,0,1,.22.48,2.49,2.49,0,0,1,.06.59v.37a1.75,1.75,0,0,1-.06.52.38.38,0,0,1-.22.26.65.65,0,0,1-.41,0,3.33,3.33,0,0,1-.64-.26Zm1.53-.75a1.53,1.53,0,0,0,0-.3.58.58,0,0,0-.09-.22.74.74,0,0,0-.18-.18l-.29-.17-1.5-.76v.9a1.43,1.43,0,0,0,0,.29.6.6,0,0,0,.09.22.74.74,0,0,0,.18.18,2.15,2.15,0,0,0,.29.17l.91.47a1.79,1.79,0,0,0,.29.12.27.27,0,0,0,.18,0,.18.18,0,0,0,.09-.12,1.11,1.11,0,0,0,0-.27Z"/><path class="cls-15" d="M60.36,163.07a4.23,4.23,0,0,1-.63-.39,1.87,1.87,0,0,1-.41-.41,1.4,1.4,0,0,1-.22-.47,2.46,2.46,0,0,1-.06-.59v-.37a1.77,1.77,0,0,1,.06-.53.39.39,0,0,1,.22-.26.66.66,0,0,1,.41,0,3.31,3.31,0,0,1,.63.26l.92.47a4.27,4.27,0,0,1,.64.39,1.84,1.84,0,0,1,.41.41,1.42,1.42,0,0,1,.22.48,2.49,2.49,0,0,1,.06.59V163a1.75,1.75,0,0,1-.06.52.38.38,0,0,1-.22.26.65.65,0,0,1-.41,0,3.33,3.33,0,0,1-.64-.26Zm1.48-.78a1.39,1.39,0,0,0,0-.3.6.6,0,0,0-.1-.23.82.82,0,0,0-.21-.19l-.33-.19-.71-.36-.33-.15a.33.33,0,0,0-.2,0,.17.17,0,0,0-.1.12,1,1,0,0,0,0,.27v.32a1.35,1.35,0,0,0,0,.3.6.6,0,0,0,.1.22.86.86,0,0,0,.2.19,2.74,2.74,0,0,0,.33.19l.71.36a2.33,2.33,0,0,0,.33.15.34.34,0,0,0,.21,0,.17.17,0,0,0,.1-.12,1,1,0,0,0,0-.27Z"/><path class="cls-15" d="M64.47,165.16a4.23,4.23,0,0,1-.63-.39,1.87,1.87,0,0,1-.41-.41,1.4,1.4,0,0,1-.21-.47,2.46,2.46,0,0,1-.06-.59v-.37a1.76,1.76,0,0,1,.06-.52.39.39,0,0,1,.22-.26.66.66,0,0,1,.41,0,3.31,3.31,0,0,1,.63.26l.92.47a4.27,4.27,0,0,1,.64.39,1.84,1.84,0,0,1,.41.41,1.42,1.42,0,0,1,.22.48,2.49,2.49,0,0,1,.06.59v.36a1.75,1.75,0,0,1-.06.52.38.38,0,0,1-.22.26.65.65,0,0,1-.41,0,3.33,3.33,0,0,1-.64-.26Zm1.48-.78a1.39,1.39,0,0,0,0-.3.6.6,0,0,0-.1-.23.82.82,0,0,0-.21-.19l-.33-.19-.71-.36-.33-.15a.33.33,0,0,0-.2,0,.17.17,0,0,0-.1.12,1,1,0,0,0,0,.27v.32a1.35,1.35,0,0,0,0,.3.6.6,0,0,0,.1.22.86.86,0,0,0,.2.19,2.74,2.74,0,0,0,.33.19l.71.36a2.33,2.33,0,0,0,.33.15.34.34,0,0,0,.21,0,.17.17,0,0,0,.1-.12,1,1,0,0,0,0-.27Z"/></g></g></svg>