<svg xmlns="http://www.w3.org/2000/svg" xmlns:xlink="http://www.w3.org/1999/xlink" viewBox="0 0 113.52 105.54"><defs><style>.cls-1{isolation:isolate;}.cls-2,.cls-20,.cls-21{opacity:0.5;mix-blend-mode:multiply;}.cls-2{fill:url(#linear-gradient);}.cls-3{fill:#c06aa7;}.cls-4{fill:#80a5d7;}.cls-5{fill:#cccecd;}.cls-6{fill:#7c7c7c;opacity:0.29;}.cls-7{fill:#1f1f1f;}.cls-8{fill:#d15050;}.cls-9{fill:#e15454;}.cls-10{fill:#e04f4f;}.cls-11{fill:#ce4646;}.cls-12{fill:#c93131;}.cls-13{fill:#e46666;}.cls-14,.cls-17{fill:none;stroke-miterlimit:10;stroke-width:0.41px;}.cls-14{stroke:#1f1f1f;}.cls-15{fill:#6b6b6b;}.cls-16{fill:#616163;}.cls-17{stroke:#79797a;}.cls-18{fill:#4d4d4f;}.cls-19{fill:#2b2b2b;}.cls-20{fill:url(#linear-gradient-2);}.cls-21{fill:url(#linear-gradient-3);}</style><linearGradient id="linear-gradient" x1="4753.65" y1="76.17" x2="4762.04" y2="63.3" gradientTransform="translate(-4658.64)" gradientUnits="userSpaceOnUse"><stop offset="0.06" stop-color="#fff" stop-opacity="0"/><stop offset="0.16" stop-color="#c9ccd0" stop-opacity="0.35"/><stop offset="0.27" stop-color="#9ea3aa" stop-opacity="0.63"/><stop offset="0.36" stop-color="#7f868f" stop-opacity="0.84"/><stop offset="0.45" stop-color="#6c747f" stop-opacity="0.96"/><stop offset="0.53" stop-color="#666e79"/></linearGradient><linearGradient id="linear-gradient-2" x1="4682.56" y1="109.04" x2="4690.96" y2="96.18" xlink:href="#linear-gradient"/><linearGradient id="linear-gradient-3" x1="4756.78" y1="106.87" x2="4765.17" y2="94" xlink:href="#linear-gradient"/></defs><title>kit2</title><g class="cls-1"><g id="Capa_2" data-name="Capa 2"><g id="Layer_1" data-name="Layer 1"><g id="_Grupo_" data-name="&lt;Grupo&gt;"><path id="_Trazado_" data-name="&lt;Trazado&gt;" class="cls-2" d="M110.38,67.68c0-2.89-4.63-5.24-10.34-5.24a19.59,19.59,0,0,0-3.49.31c-3.37.86-5.69,2.63-5.69,4.68,0,2.89,4.63,5.24,10.34,5.24a19.59,19.59,0,0,0,3.49-.31C108.07,71.5,110.38,69.73,110.38,67.68Z"/><g id="_Grupo_2" data-name="&lt;Grupo&gt;"><path id="_Trazado_2" data-name="&lt;Trazado&gt;" class="cls-3" d="M107.71,64.87c-1.61-1.83-5.23-3.1-9.44-3.1s-7.83,1.27-9.44,3.1h-.9V67c0,2.89,4.63,5.24,10.34,5.24S108.6,69.9,108.6,67V64.87Z"/><ellipse id="_Trazado_3" data-name="&lt;Trazado&gt;" class="cls-4" cx="98.27" cy="64.87" rx="10.34" ry="5.24"/><ellipse id="_Trazado_4" data-name="&lt;Trazado&gt;" class="cls-5" cx="98.27" cy="64.62" rx="8" ry="3.56"/></g></g><ellipse class="cls-6" cx="59.83" cy="85.48" rx="49.2" ry="11.54"/><path class="cls-7" d="M81.66,16"/><polygon class="cls-8" points="71.69 41.14 82.47 83.05 93.99 50.63 72.53 38.92 71.69 41.14"/><polygon class="cls-8" points="83.28 24.22 93.99 50.63 72.53 38.92 74.74 34.42 83.28 24.22"/><polygon class="cls-9" points="68.5 12.86 83.28 24.22 74.74 34.42 68.5 12.86"/><polygon class="cls-10" points="3.85 33.23 18.7 13.39 28.54 6.28 46.29 0 59.67 5.41 68.55 12.86 75.07 34.09 71.9 41.95 38.16 64.43 29.03 63.84 4.64 39.05 3.85 33.23"/><polyline class="cls-11" points="70.7 41.96 63.27 79.48 82.31 82.41 71.69 41.14"/><polygon class="cls-11" points="63.66 79.53 58.42 94.89 69.32 92.04 82.49 82.94 82.32 82.3 63.66 79.53"/><polyline class="cls-8" points="83.6 23.64 85.6 21 93.56 49.12 83.28 24.22 59.83 6.07 63.96 4.15 68.29 7.83 75.89 13.53 81.87 18.01 85.08 20.35 85.53 20.93 85.55 20.98"/><polygon class="cls-11" points="8.49 76.63 64.3 79.75 38.02 64.15 29.01 63.65 8.49 76.63"/><polygon class="cls-12" points="4.65 38.92 8.49 76.66 29.04 63.88 4.65 38.92"/><polygon class="cls-13" points="8.49 76.63 18.56 91.77 58.42 94.89 63.88 79.77 8.49 76.63"/><polygon class="cls-11" points="3.44 77.81 13.38 88.59 18.56 91.77 8.49 76.66 3.44 77.81"/><polyline class="cls-10" points="4.65 38.92 3.44 77.81 0 47.09 4.42 39.33 4.65 38.92 2.57 24.11 0 47.09"/><polygon class="cls-11" points="3.44 77.81 8.73 76.66 4.64 39.05 3.44 77.81"/><polyline class="cls-9" points="2.57 23.48 3.85 33.23 18.7 13.39 2.81 23.52"/><polygon class="cls-10" points="59.83 6.07 63.58 4.25 46.6 0.38 59.83 6.07"/><polygon class="cls-12" points="37.9 64.27 63.47 79.75 70.97 42.22 37.9 64.27"/><path class="cls-14" d="M63.88,56.2"/><path class="cls-15" d="M63.64,23.56c0,9.42-9.6,20-21.89,20S20.16,38.42,20.16,29,31.37,8.64,43.66,8.64,63.64,14.14,63.64,23.56Z"/><path class="cls-16" d="M60.86,23.89c0,8.22-8.37,17.48-19.09,17.48S22.94,36.85,22.94,28.63s9.77-17.76,20.49-17.76S60.86,15.67,60.86,23.89Z"/><polygon class="cls-17" points="40.24 14.41 44.66 14.27 41.85 18.07 39.57 18.02 42.78 15.29 40.03 15.25 40.24 14.41"/><polygon class="cls-17" points="45.42 14.37 46.99 14.37 44.12 17.32 46.29 17.32 46.26 18.14 42.48 18.14 45.42 14.37"/><ellipse class="cls-16" cx="34.69" cy="55.78" rx="3.11" ry="2.67"/><ellipse class="cls-18" cx="34.69" cy="55.78" rx="2.17" ry="1.86"/><ellipse class="cls-16" cx="34.69" cy="55.78" rx="1.64" ry="1.4"/><ellipse class="cls-19" cx="34.69" cy="55.78" rx="0.63" ry="0.53"/><g id="_Grupo_3" data-name="&lt;Grupo&gt;"><path id="_Trazado_5" data-name="&lt;Trazado&gt;" class="cls-20" d="M39.3,100.55c0-2.89-4.63-5.24-10.34-5.24a19.59,19.59,0,0,0-3.49.31c-3.37.86-5.69,2.63-5.69,4.68,0,2.89,4.63,5.24,10.34,5.24a19.59,19.59,0,0,0,3.49-.31C37,104.37,39.3,102.6,39.3,100.55Z"/><g id="_Grupo_4" data-name="&lt;Grupo&gt;"><path id="_Trazado_6" data-name="&lt;Trazado&gt;" class="cls-3" d="M36.62,97.75c-1.61-1.83-5.23-3.1-9.44-3.1s-7.83,1.27-9.44,3.1h-.9v2.14c0,2.89,4.63,5.24,10.34,5.24s10.34-2.35,10.34-5.24V97.75Z"/><ellipse id="_Trazado_7" data-name="&lt;Trazado&gt;" class="cls-4" cx="27.18" cy="97.75" rx="10.34" ry="5.24"/><ellipse id="_Trazado_8" data-name="&lt;Trazado&gt;" class="cls-5" cx="27.18" cy="97.49" rx="8" ry="3.56"/></g></g><g id="_Grupo_5" data-name="&lt;Grupo&gt;"><path id="_Trazado_9" data-name="&lt;Trazado&gt;" class="cls-21" d="M113.52,98.38c0-2.89-4.63-5.24-10.34-5.24a19.59,19.59,0,0,0-3.49.31c-3.37.86-5.69,2.63-5.69,4.68,0,2.89,4.63,5.24,10.34,5.24a19.59,19.59,0,0,0,3.49-.31C111.2,102.2,113.52,100.43,113.52,98.38Z"/><g id="_Grupo_6" data-name="&lt;Grupo&gt;"><path id="_Trazado_10" data-name="&lt;Trazado&gt;" class="cls-3" d="M110.84,95.58c-1.61-1.83-5.23-3.1-9.44-3.1s-7.83,1.27-9.44,3.1h-.9v2.14c0,2.89,4.63,5.24,10.34,5.24s10.34-2.35,10.34-5.24V95.58Z"/><ellipse id="_Trazado_11" data-name="&lt;Trazado&gt;" class="cls-4" cx="101.4" cy="95.58" rx="10.34" ry="5.24"/><ellipse id="_Trazado_12" data-name="&lt;Trazado&gt;" class="cls-5" cx="101.4" cy="95.32" rx="8" ry="3.56"/></g></g></g></g></g></svg>