<svg xmlns="http://www.w3.org/2000/svg" viewBox="0 0 323.08 324.37"><defs><style>.cls-1{fill:#aaa;opacity:0.44;}.cls-2{fill:#59eace;}.cls-3{fill:#4ae5c7;}.cls-4{fill:#32e0bf;}.cls-5{fill:#2dc4a7;}.cls-6{fill:#28b297;}.cls-7{fill:#238e79;}.cls-8{fill:#238471;}.cls-9{fill:#27a089;}.cls-10{fill:#6fefd7;}.cls-11{fill:#8addcd;}.cls-12{fill:#6b6b6b;}.cls-13{fill:#616163;}.cls-14{fill:#484949;}.cls-15{fill:#4d4d4f;}.cls-16{fill:#2b2b2b;}.cls-17{fill:#ab5e22;fill-opacity:0.5;}.cls-17,.cls-19,.cls-21{opacity:0.5;}.cls-18{fill:#c47435;}.cls-19{fill:#9e5216;}.cls-20{fill:#fff;}.cls-21{fill:#ababab;}.cls-22{fill:none;stroke:#9e5216;stroke-linecap:round;stroke-linejoin:round;stroke-width:2px;}.cls-23{opacity:0.53;font-size:26.09px;font-family:Tiza, Tiza;}.cls-24{letter-spacing:-0.21em;}</style></defs><title>kit3_1</title><g id="Capa_2" data-name="Capa 2"><g id="Layer_1" data-name="Layer 1"><ellipse class="cls-1" cx="233.32" cy="299.32" rx="89.76" ry="25.05"/><ellipse class="cls-1" cx="153.2" cy="288.08" rx="3.79" ry="87.63" transform="translate(-169.39 337.02) rotate(-70.62)"/><polygon class="cls-2" points="156.14 194.37 164.93 209.56 167.29 217.2 145.53 237.94 156.14 194.37"/><polygon class="cls-3" points="156.32 291.02 145.69 237.78 167.29 217.2 168.18 218.85 156.32 291.02"/><polygon class="cls-4" points="179.3 284.34 156.32 292.01 168.18 218.85 179.3 284.34"/><polygon class="cls-5" points="223.32 258.99 179.3 284.34 168.5 220.74 223.32 258.99"/><polygon class="cls-6" points="194.58 312.25 179.3 284.34 156.32 292.01 178.84 308.41 194.58 312.25"/><polygon class="cls-7" points="281.13 283.51 179.3 284.63 194.42 312.25 230.11 312.25 281.13 283.51"/><polygon class="cls-8" points="268.53 312.25 230.28 312.25 281.13 283.51 268.53 312.25"/><polygon class="cls-6" points="284.46 307.13 268.53 312.25 281.13 283.51 306.06 289.19 284.46 307.13"/><polygon class="cls-4" points="291.73 219.37 306.06 289.19 281.13 283.51 289.96 220.51 291.73 219.37"/><polygon class="cls-5" points="237.78 258.99 281.29 283.51 289.96 220.51 237.78 258.99"/><polygon class="cls-9" points="179.3 284.34 281.29 283.51 237.78 258.99 223.32 258.99 179.3 284.34"/><polygon class="cls-3" points="292.37 216.95 318.69 237.94 306.06 289.19 291.5 219.37 292.37 216.95"/><polygon class="cls-2" points="305.87 194.37 318.69 237.94 292.37 216.95 295.62 209.56 305.87 194.37"/><polygon class="cls-10" points="278.73 177.14 305.87 194.37 295.62 209.56 278.73 177.14"/><polygon class="cls-11" points="230.66 155.25 233.77 155.25 259.76 164.76 278.75 176.82 295.64 209.24 291.52 219.05 237.8 258.67 223.34 258.67 168.52 220.42 164.95 209.24 186.48 175.19 204.12 164.21 230.66 155.25"/><polygon class="cls-10" points="156.14 194.37 186.46 175.51 164.93 209.56 156.14 194.37"/><ellipse class="cls-12" cx="233.32" cy="189.75" rx="39.25" ry="28.87"/><ellipse class="cls-13" cx="233.32" cy="189.75" rx="35.88" ry="26.39"/><polygon class="cls-14" points="228.34 169.93 230.13 172.22 231.46 171.07 232.83 171.07 227.98 175.47 230.4 175.47 236.76 169.93 228.34 169.93"/><polygon class="cls-14" points="238.32 169.93 231.96 175.47 240.24 175.79 238.37 173.77 237.45 174.41 235.8 174.23 240.7 169.93 238.32 169.93"/><ellipse class="cls-13" cx="233.32" cy="236.75" rx="7.67" ry="5.57"/><ellipse class="cls-15" cx="233.32" cy="236.75" rx="5.34" ry="3.88"/><ellipse class="cls-13" cx="233.32" cy="236.75" rx="4.03" ry="2.93"/><ellipse class="cls-16" cx="233.32" cy="236.75" rx="1.56" ry="1.11"/><path class="cls-2" d="M149.94,220.57c-16.17-7.92-37.28-28.71-51-57.08A26.94,26.94,0,0,0,93,170.42c6.93,20.13,30.35,55.26,53.94,61.53C152.75,233.1,149.94,220.57,149.94,220.57Z"/><path class="cls-17" d="M150.51,228.47a3.84,3.84,0,0,0-1.72,0c-5.44,1.15-26.39-16.17-33.82-25.73-6.91-8.91-8.82-23.53-7.45-23.91a151.39,151.39,0,0,1-7.63-13.49c-2.22,2.26-4.1,4.9-4.39,6.88a16,16,0,0,0,0,4.5c9,20.43,30.16,49.56,51.44,55.22C149.27,232.41,150.21,230.7,150.51,228.47Z"/><path class="cls-18" d="M82,98.55c.49,15.09,6.6,95.76,7.59,100,2.23,2.47,15.71.62,16.21-2.35S92.53,106.8,91.54,96.9C90.05,95.66,82,98.55,82,98.55Z"/><path class="cls-19" d="M105.77,196.17c.5-3-13.24-89.37-14.23-99.27C90.05,95.66,82,98.55,82,98.55c.06,1.86.21,4.71.42,8.29,1.95-3.59,5.86-3.18,7.67,2.43,2.23,6.93,9.65,85.86,9.65,85.86A57.47,57.47,0,0,0,89.4,197.5c.06.48.12.83.16,1C91.79,201,105.27,199.13,105.77,196.17Z"/><path class="cls-18" d="M72.73,15.73S71.41,4.35,71.91,3,82.14-.76,83.13.23,84.94,15.4,84.94,15.4Z"/><path class="cls-20" d="M1,25.05C-.35,27.2-1.34,102.34,5.1,106.8s137.25-11.22,157-18.15c8.41-22.77-7.26-76.71-8.74-82.15C146.8,4.52,2.29,22.91,1,25.05Z"/><path class="cls-21" d="M162.14,88.65a49.28,49.28,0,0,0,2.44-15.55c-1.46,5.64-3.68,10.08-7,11.92-13.36,7.42-103.93,16.08-121.5,17.82-13.66,1.35-26.27,1.94-33.07-.65.58,2.43,1.26,4.06,2.05,4.61C11.53,111.25,142.35,95.58,162.14,88.65Z"/><path class="cls-2" d="M79.33,152.33c-3.69-10.29,14-12.7,8.25-2.8,6.27-.33,1.48,6.76,1.48,6.76,7.59-.66,3.46,7.51-2.64,7.34.12,3.09.66,7.42.66,7.42-6.27-2.31-8.08-5.53-6.43-10.47C75.21,159.59,77.35,155.46,79.33,152.33Z"/><path class="cls-17" d="M89.06,156.28c3.63-.16,2.8,4.62-1,5.28-2.51.44-5.66,2.23-8,2-.06,3.3,2.1,5.66,7,7.46,0,0-.54-4.33-.66-7.42C92.53,163.79,96.65,155.63,89.06,156.28Z"/><path class="cls-2" d="M104.32,153.48c-3.46-4.12-1.48-10.06-5.44-9.57s-4.12,9.4.82,12.37c-.66,4,1.3,7.77,2.06,7.5C103.91,162.14,107.79,159.59,104.32,153.48Z"/><path class="cls-2" d="M104.32,153.48a8.85,8.85,0,0,1-1.35-2.23c-.17.4-.35.82-.55,1.24-1.86,3.86-6.44-2.19-5.7-7-1.59,2.8-.8,8.52,3,10.79-.66,4,1.3,7.77,2.06,7.5C103.91,162.14,107.79,159.59,104.32,153.48Z"/><path class="cls-17" d="M80.4,161.27c.62-2.85,8-5.82,11-4.83"/><path class="cls-17" d="M78.67,153.65c1-2.64,7.92-4.62,10.23-4.12"/><path class="cls-17" d="M84.2,164.45a16.7,16.7,0,0,0,5.11-1.4"/><path class="cls-22" d="M90.55,198c-1.32-.49,3.79-3.46,11.88-3.3"/><text class="cls-23" transform="translate(17.93 77.52) rotate(-5.68)">POL<tspan class="cls-24" x="73.4" y="0">L</tspan><tspan x="92.71" y="0">Y!</tspan></text><polygon class="cls-1" points="115.92 252.5 57.23 252.5 73.51 285.06 132.2 285.06 115.92 252.5"/></g></g></svg>