<svg xmlns="http://www.w3.org/2000/svg" xmlns:xlink="http://www.w3.org/1999/xlink" viewBox="0 0 364.76 166.71"><defs><style>.cls-1{isolation:isolate;}.cls-2{fill:#aaa;opacity:0.44;}.cls-3{fill:#c06aa7;}.cls-4{fill:#a5a5a5;}.cls-5{fill:#bcbcbc;}.cls-6{fill:#595857;}.cls-7{fill:#3f3f3f;}.cls-13,.cls-18,.cls-19,.cls-7,.cls-8{opacity:0.5;}.cls-8{fill:#ab5e22;fill-opacity:0.5;}.cls-11,.cls-16,.cls-9{fill:none;stroke:#514f4d;stroke-miterlimit:10;}.cls-9{stroke-width:1.57px;}.cls-10,.cls-12,.cls-17{opacity:0.53;fill:#f4f408;font-family:Tiza, Tiza;}.cls-10{font-size:38.87px;}.cls-11{stroke-width:1.1px;}.cls-12{font-size:27.16px;}.cls-13,.cls-18,.cls-19{mix-blend-mode:multiply;}.cls-13{fill:url(#linear-gradient);}.cls-14{fill:#80a5d7;}.cls-15{fill:#cccecd;}.cls-16{stroke-width:1.18px;}.cls-17{font-size:29.13px;}.cls-18{fill:url(#linear-gradient-2);}.cls-19{fill:url(#linear-gradient-3);}</style><linearGradient id="linear-gradient" x1="4861.72" y1="128.69" x2="4893.79" y2="79.51" gradientTransform="translate(-4658.64)" gradientUnits="userSpaceOnUse"><stop offset="0.06" stop-color="#fff" stop-opacity="0"/><stop offset="0.16" stop-color="#c9ccd0" stop-opacity="0.35"/><stop offset="0.27" stop-color="#9ea3aa" stop-opacity="0.63"/><stop offset="0.36" stop-color="#7f868f" stop-opacity="0.84"/><stop offset="0.45" stop-color="#6c747f" stop-opacity="0.96"/><stop offset="0.53" stop-color="#666e79"/></linearGradient><linearGradient id="linear-gradient-2" x1="4780.43" y1="184.55" x2="4823.16" y2="119.04" xlink:href="#linear-gradient"/><linearGradient id="linear-gradient-3" x1="4958.15" y1="176.8" x2="4993.77" y2="122.2" xlink:href="#linear-gradient"/></defs><title>ki4</title><g class="cls-1"><g id="Capa_2" data-name="Capa 2"><g id="Layer_1" data-name="Layer 1"><polygon class="cls-2" points="78.51 95.46 57.28 82.97 56.24 98.21 77.47 110.7 78.51 95.46"/><ellipse class="cls-2" cx="84.43" cy="116.26" rx="1.59" ry="36.77" transform="translate(-55.08 81.87) rotate(-40.16)"/><polygon class="cls-2" points="179.5 60.71 165.52 52.49 164.83 62.53 178.82 70.75 179.5 60.71"/><ellipse class="cls-2" cx="183.4" cy="74.41" rx="1.05" ry="24.22" transform="translate(-4.75 135.84) rotate(-40.16)"/><polygon class="cls-2" points="276.95 100.7 262.96 92.48 262.28 102.52 276.26 110.74 276.95 100.7"/><ellipse class="cls-2" cx="280.85" cy="114.41" rx="1.05" ry="24.22" transform="translate(-7.57 208.12) rotate(-40.16)"/><path class="cls-3" d="M87.8,130.74C78.34,126.1,66,113.93,58,97.31a15.77,15.77,0,0,0-3.48,4.06c4.06,11.78,17.77,32.36,31.59,36C89.44,138.08,87.8,130.74,87.8,130.74Z"/><path class="cls-4" d="M48,59.29c.29,8.84,3.86,56.08,4.44,58.54,1.3,1.45,9.2.36,9.49-1.38S54.18,64.12,53.6,58.32C52.73,57.6,48,59.29,48,59.29Z"/><path class="cls-5" d="M61.93,116.45c.29-1.74-7.75-52.33-8.33-58.13-.87-.72-5.6,1-5.6,1,0,1.09.12,2.76.24,4.85,1.14-2.1,3.43-1.86,4.49,1.42,1.3,4.06,5.65,50.28,5.65,50.28a33.65,33.65,0,0,0-6,1.38c0,.28.07.49.1.6C53.75,119.27,61.64,118.19,61.93,116.45Z"/><path class="cls-5" d="M42.59,10.79s-.77-6.67-.48-7.44,6-2.22,6.57-1.64,1.06,8.89,1.06,8.89Z"/><path class="cls-6" d="M.57,16.25C-.2,17.51-.78,61.51,3,64.12s80.37-6.57,92-10.63C99.87,40.16,90.7,8.57,89.83,5.38,86,4.23,1.34,15,.57,16.25Z"/><path class="cls-7" d="M94.95,53.49a28.86,28.86,0,0,0,1.43-9.11c-.86,3.3-2.15,5.9-4.09,7-7.82,4.35-60.86,9.42-71.14,10.43-8,.79-15.38,1.14-19.36-.38A5,5,0,0,0,3,64.12C6.75,66.73,83.36,57.55,94.95,53.49Z"/><path class="cls-3" d="M46.45,90.78c-2.16-6,8.2-7.44,4.83-1.64,3.67-.19.87,4,.87,4,4.44-.39,2,4.4-1.55,4.3.07,1.81.39,4.35.39,4.35-3.67-1.35-4.73-3.24-3.77-6.13C44,95,45.3,92.61,46.45,90.78Z"/><path class="cls-8" d="M52.15,93.1c2.12-.1,1.64,2.7-.58,3.09-1.47.26-3.31,1.3-4.68,1.18,0,1.93,1.23,3.31,4.1,4.37,0,0-.31-2.54-.39-4.35C54.18,97.49,56.6,92.71,52.15,93.1Z"/><path class="cls-3" d="M61.09,91.45c-2-2.41-.87-5.89-3.19-5.6s-2.42,5.51.48,7.24c-.39,2.32.76,4.55,1.21,4.39C60.85,96.53,63.12,95,61.09,91.45Z"/><path class="cls-3" d="M61.09,91.45a5.18,5.18,0,0,1-.79-1.31c-.1.24-.2.48-.32.73-1.09,2.26-3.77-1.28-3.33-4.09a5.16,5.16,0,0,0,1.74,6.32c-.39,2.32.76,4.55,1.21,4.39C60.85,96.53,63.12,95,61.09,91.45Z"/><path class="cls-8" d="M47.08,96c.36-1.67,4.71-3.41,6.45-2.83"/><path class="cls-8" d="M46.07,91.55c.58-1.55,4.64-2.71,6-2.42"/><path class="cls-8" d="M49.3,97.88a9.78,9.78,0,0,0,3-.82"/><path class="cls-9" d="M53,117.54c-.77-.29,2.22-2,7-1.93"/><text class="cls-10" transform="translate(28.22 53.05) rotate(-5.68)">T</text><path class="cls-3" d="M179.18,90.27c-6.62-3.24-15.26-11.75-20.86-23.36a11,11,0,0,0-2.43,2.84C158.72,78,168.31,92.36,178,94.93,180.32,95.4,179.18,90.27,179.18,90.27Z"/><path class="cls-4" d="M151.36,40.33c.2,6.18,2.7,39.19,3.11,40.91.91,1,6.43.25,6.63-1s-5.42-36.58-5.82-40.63C154.67,39.15,151.36,40.33,151.36,40.33Z"/><path class="cls-5" d="M161.1,80.28c.2-1.22-5.42-36.58-5.82-40.63-.61-.51-3.92.68-3.92.68,0,.76.08,1.93.17,3.39.8-1.47,2.4-1.3,3.14,1,.91,2.84,3.95,35.14,3.95,35.14a23.52,23.52,0,0,0-4.22,1c0,.2,0,.34.07.42C155.37,82.26,160.89,81.5,161.1,80.28Z"/><path class="cls-5" d="M147.58,6.44a38,38,0,0,1-.34-5.2c.2-.54,4.19-1.55,4.59-1.15s.74,6.21.74,6.21Z"/><path class="cls-6" d="M118.21,10.25c-.54.88-.95,31.63,1.69,33.45s56.17-4.59,64.27-7.43c3.44-9.32-3-31.4-3.58-33.62C177.89,1.85,118.75,9.38,118.21,10.25Z"/><path class="cls-7" d="M184.17,36.28a20.17,20.17,0,0,0,1-6.36c-.6,2.31-1.5,4.13-2.86,4.88-5.47,3-42.53,6.58-49.72,7.29-5.59.55-10.75.8-13.53-.26a3.49,3.49,0,0,0,.84,1.89C122.53,45.53,176.07,39.12,184.17,36.28Z"/><path class="cls-3" d="M150.28,62.34c-1.51-4.21,5.73-5.2,3.38-1.15,2.57-.13.61,2.77.61,2.77,3.11-.27,1.42,3.07-1.08,3,.05,1.27.27,3,.27,3-2.57-.95-3.31-2.26-2.63-4.29C148.59,65.31,149.47,63.62,150.28,62.34Z"/><path class="cls-8" d="M154.26,64c1.49-.07,1.15,1.89-.4,2.16-1,.18-2.32.91-3.27.83,0,1.35.86,2.32,2.86,3.05,0,0-.22-1.77-.27-3C155.68,67,157.37,63.69,154.26,64Z"/><path class="cls-3" d="M160.51,62.81c-1.42-1.69-.61-4.12-2.23-3.92s-1.69,3.85.34,5.06c-.27,1.62.53,3.18.84,3.07C160.34,66.36,161.92,65.31,160.51,62.81Z"/><path class="cls-3" d="M160.51,62.81a3.62,3.62,0,0,1-.55-.91c-.07.17-.14.33-.23.51-.76,1.58-2.64-.9-2.33-2.86A3.61,3.61,0,0,0,158.61,64c-.27,1.62.53,3.18.84,3.07C160.34,66.36,161.92,65.31,160.51,62.81Z"/><path class="cls-8" d="M150.72,66c.25-1.16,3.29-2.38,4.51-2"/><path class="cls-8" d="M150,62.88c.41-1.08,3.24-1.89,4.19-1.69"/><path class="cls-8" d="M152.27,67.3a6.83,6.83,0,0,0,2.09-.57"/><path class="cls-11" d="M154.87,81c-.54-.2,1.55-1.42,4.86-1.35"/><text class="cls-12" transform="translate(147.19 34.94) rotate(-5.68)">I</text><g id="_Grupo_" data-name="&lt;Grupo&gt;"><path id="_Trazado_" data-name="&lt;Trazado&gt;" class="cls-13" d="M261.84,96.25c0-11.06-17.69-20-39.51-20A74.87,74.87,0,0,0,209,77.4c-12.89,3.3-21.73,10.06-21.73,17.88,0,11.06,17.69,20,39.51,20a74.87,74.87,0,0,0,13.33-1.17C253,110.83,261.84,104.06,261.84,96.25Z"/><g id="_Grupo_2" data-name="&lt;Grupo&gt;"><path id="_Trazado_2" data-name="&lt;Trazado&gt;" class="cls-3" d="M251.6,85.52c-6.17-7-20-11.86-36.08-11.86s-29.91,4.87-36.08,11.86H176v8.16c0,11.06,17.69,20,39.51,20s39.51-9,39.51-20V85.52Z"/><ellipse id="_Trazado_3" data-name="&lt;Trazado&gt;" class="cls-14" cx="215.52" cy="85.52" rx="39.51" ry="20.02"/><ellipse id="_Trazado_4" data-name="&lt;Trazado&gt;" class="cls-15" cx="215.52" cy="84.55" rx="30.57" ry="13.61"/></g></g><path class="cls-3" d="M276.45,129.86c-7.1-3.48-16.36-12.6-22.37-25a11.82,11.82,0,0,0-2.61,3c3,8.83,13.32,24.25,23.67,27C277.68,135.37,276.45,129.86,276.45,129.86Z"/><path class="cls-4" d="M246.62,76.31c.22,6.62,2.9,42,3.33,43.87,1,1.09,6.9.27,7.11-1s-5.81-39.22-6.24-43.57C250.16,75,246.62,76.31,246.62,76.31Z"/><path class="cls-5" d="M257.06,119.16c.22-1.3-5.81-39.22-6.24-43.57-.65-.54-4.2.72-4.2.72,0,.82.09,2.07.18,3.64.86-1.58,2.57-1.4,3.36,1.07,1,3,4.24,37.68,4.24,37.68a25.22,25.22,0,0,0-4.52,1c0,.21.05.37.07.45C250.92,121.27,256.84,120.46,257.06,119.16Z"/><path class="cls-5" d="M242.56,40s-.58-5-.36-5.57,4.49-1.67,4.92-1.23.8,6.66.8,6.66Z"/><path class="cls-6" d="M211.07,44.06c-.58.94-1,33.92,1.81,35.87S273.11,75,281.8,72c3.69-10-3.19-33.67-3.84-36.06C275.07,35,211.65,43.12,211.07,44.06Z"/><path class="cls-7" d="M281.8,72a21.63,21.63,0,0,0,1.07-6.82c-.64,2.48-1.61,4.43-3.06,5.23-5.86,3.26-45.61,7.06-53.32,7.82-6,.59-11.53.85-14.51-.28a3.74,3.74,0,0,0,.9,2C215.7,81.89,273.11,75,281.8,72Z"/><path class="cls-3" d="M245.46,99.92c-1.62-4.52,6.14-5.58,3.62-1.23,2.75-.14.65,3,.65,3,3.33-.29,1.52,3.29-1.16,3.22.05,1.36.29,3.26.29,3.26-2.75-1-3.55-2.42-2.82-4.6C243.65,103.1,244.59,101.29,245.46,99.92Z"/><path class="cls-8" d="M249.73,101.65c1.59-.07,1.23,2-.43,2.32-1.1.19-2.48,1-3.51.89,0,1.45.92,2.48,3.07,3.28,0,0-.24-1.9-.29-3.26C251.25,104.95,253.06,101.36,249.73,101.65Z"/><path class="cls-3" d="M256.43,100.42c-1.52-1.81-.65-4.42-2.39-4.2s-1.81,4.13.36,5.43c-.29,1.74.57,3.41.91,3.29C256.25,104.22,257.95,103.1,256.43,100.42Z"/><path class="cls-3" d="M256.43,100.42a3.89,3.89,0,0,1-.59-1c-.07.18-.15.36-.24.54-.82,1.7-2.83-1-2.5-3.07a3.87,3.87,0,0,0,1.3,4.73c-.29,1.74.57,3.41.91,3.29C256.25,104.22,257.95,103.1,256.43,100.42Z"/><path class="cls-8" d="M245.93,103.84c.27-1.25,3.53-2.55,4.83-2.12"/><path class="cls-8" d="M245.17,100.5c.43-1.16,3.48-2,4.49-1.81"/><path class="cls-8" d="M247.59,105.24a7.33,7.33,0,0,0,2.24-.62"/><path class="cls-16" d="M250.38,120c-.58-.22,1.67-1.52,5.21-1.45"/><text class="cls-17" transform="translate(231.8 71.64) rotate(-5.68)">G</text><g id="_Grupo_3" data-name="&lt;Grupo&gt;"><path id="_Trazado_5" data-name="&lt;Trazado&gt;" class="cls-18" d="M200.07,141.33c0-14.73-23.57-26.67-52.64-26.67a99.74,99.74,0,0,0-17.75,1.56c-17.17,4.39-29,13.4-29,23.82,0,14.73,23.57,26.67,52.64,26.67a99.74,99.74,0,0,0,17.75-1.56C188.29,160.75,200.07,151.74,200.07,141.33Z"/><g id="_Grupo_4" data-name="&lt;Grupo&gt;"><path id="_Trazado_6" data-name="&lt;Trazado&gt;" class="cls-3" d="M186.43,127c-8.22-9.31-26.64-15.8-48.06-15.8S98.53,117.74,90.31,127H85.73v10.88c0,14.73,23.57,26.67,52.64,26.67S191,152.65,191,137.92V127Z"/><ellipse id="_Trazado_7" data-name="&lt;Trazado&gt;" class="cls-14" cx="138.37" cy="127.04" rx="52.64" ry="26.67"/><ellipse id="_Trazado_8" data-name="&lt;Trazado&gt;" class="cls-15" cx="138.37" cy="125.75" rx="40.73" ry="18.13"/></g></g><g id="_Grupo_5" data-name="&lt;Grupo&gt;"><path id="_Trazado_9" data-name="&lt;Trazado&gt;" class="cls-19" d="M364.76,140.78c0-12.28-19.64-22.23-43.88-22.23a83.14,83.14,0,0,0-14.8,1.3C291.78,123.51,282,131,282,139.7c0,12.28,19.64,22.23,43.88,22.23a83.14,83.14,0,0,0,14.8-1.3C354.94,157,364.76,149.46,364.76,140.78Z"/><g id="_Grupo_6" data-name="&lt;Grupo&gt;"><path id="_Trazado_10" data-name="&lt;Trazado&gt;" class="cls-3" d="M353.39,128.87c-6.85-7.76-22.2-13.17-40.06-13.17s-33.21,5.41-40.06,13.17h-3.82v9.06c0,12.28,19.64,22.23,43.88,22.23s43.88-10,43.88-22.23v-9.06Z"/><ellipse id="_Trazado_11" data-name="&lt;Trazado&gt;" class="cls-14" cx="313.33" cy="128.87" rx="43.88" ry="22.23"/><ellipse id="_Trazado_12" data-name="&lt;Trazado&gt;" class="cls-15" cx="313.33" cy="127.79" rx="33.95" ry="15.11"/></g></g></g></g></g></svg>