<svg xmlns="http://www.w3.org/2000/svg" xmlns:xlink="http://www.w3.org/1999/xlink" viewBox="0 0 166.82 170.98"><defs><style>.cls-1{fill:none;}.cls-2{isolation:isolate;}.cls-20,.cls-3,.cls-33{opacity:0.4;}.cls-18,.cls-19,.cls-20,.cls-29,.cls-3,.cls-30{mix-blend-mode:lighten;}.cls-3{fill:url(#Áåçûìÿííûé_ãðàäèåíò_374);}.cls-4{fill:#0c0f38;}.cls-32,.cls-4{opacity:0.6;}.cls-5{fill:url(#Áåçûìÿííûé_ãðàäèåíò_388);}.cls-6{fill:url(#Áåçûìÿííûé_ãðàäèåíò_377);}.cls-7{fill:url(#Áåçûìÿííûé_ãðàäèåíò_388-2);}.cls-8{fill:#d4088c;}.cls-31,.cls-32,.cls-33,.cls-34,.cls-35,.cls-9{fill:#6ee8fc;}.cls-10{fill:url(#Áåçûìÿííûé_ãðàäèåíò_300);}.cls-11{fill:url(#Áåçûìÿííûé_ãðàäèåíò_302);}.cls-12{fill:#6de0f6;}.cls-13{clip-path:url(#clip-path);}.cls-14{fill:#267fe5;}.cls-15{fill:#25bfec;}.cls-16{fill:#18d0f7;}.cls-17{fill:#480689;}.cls-18,.cls-34{opacity:0.2;}.cls-18{fill:url(#Áåçûìÿííûé_ãðàäèåíò_370);}.cls-19,.cls-29,.cls-30{opacity:0.25;}.cls-19{fill:url(#Áåçûìÿííûé_ãðàäèåíò_384);}.cls-20{fill:url(#Áåçûìÿííûé_ãðàäèåíò_371);}.cls-21{fill:url(#Áåçûìÿííûé_ãðàäèåíò_388-3);}.cls-22{fill:url(#Áåçûìÿííûé_ãðàäèåíò_377-2);}.cls-23{fill:url(#Áåçûìÿííûé_ãðàäèåíò_300-2);}.cls-24{fill:url(#Áåçûìÿííûé_ãðàäèåíò_300-3);}.cls-25{fill:url(#Áåçûìÿííûé_ãðàäèåíò_377-3);}.cls-26{fill:url(#Áåçûìÿííûé_ãðàäèåíò_300-4);}.cls-27{fill:url(#Áåçûìÿííûé_ãðàäèåíò_377-4);}.cls-28{fill:url(#Áåçûìÿííûé_ãðàäèåíò_300-5);}.cls-29{fill:url(#Áåçûìÿííûé_ãðàäèåíò_384-2);}.cls-30{fill:url(#Áåçûìÿííûé_ãðàäèåíò_384-3);}.cls-31{opacity:0.8;}.cls-35{opacity:0.1;}</style><radialGradient id="Áåçûìÿííûé_ãðàäèåíò_374" cx="1693.25" cy="531.44" fx="1668.9218270166148" fy="541.9053904911148" r="38.05" gradientTransform="matrix(-0.83, 0.53, 1.05, 0.74, 902.83, -1177.37)" gradientUnits="userSpaceOnUse"><stop offset="0.01" stop-color="#d4088c"/><stop offset="0.1" stop-color="#b70980"/><stop offset="0.26" stop-color="#860c6c"/><stop offset="0.42" stop-color="#5c0e5b"/><stop offset="0.58" stop-color="#3c0f4e"/><stop offset="0.73" stop-color="#261045"/><stop offset="0.87" stop-color="#18113f"/><stop offset="1" stop-color="#13113d"/></radialGradient><linearGradient id="Áåçûìÿííûé_ãðàäèåíò_388" x1="94.93" y1="110.6" x2="142.33" y2="110.6" gradientUnits="userSpaceOnUse"><stop offset="0" stop-color="#d4088c"/><stop offset="0.23" stop-color="#d4088c"/><stop offset="0.51" stop-color="#6ee1f8"/><stop offset="0.78" stop-color="#6ee8fc"/><stop offset="1" stop-color="#6ee8fc"/></linearGradient><linearGradient id="Áåçûìÿííûé_ãðàäèåíò_377" x1="94.91" y1="82" x2="143.52" y2="82" gradientUnits="userSpaceOnUse"><stop offset="0" stop-color="#a31fa9"/><stop offset="0.07" stop-color="#8b17a0"/><stop offset="0.15" stop-color="#740f98"/><stop offset="0.24" stop-color="#640a92"/><stop offset="0.34" stop-color="#5b078f"/><stop offset="0.48" stop-color="#58068e"/><stop offset="0.63" stop-color="#4d22a3"/><stop offset="0.94" stop-color="#3168da"/><stop offset="1" stop-color="#2c75e4"/></linearGradient><linearGradient id="Áåçûìÿííûé_ãðàäèåíò_388-2" x1="94.91" y1="96.91" x2="143.52" y2="96.91" xlink:href="#Áåçûìÿííûé_ãðàäèåíò_388"/><linearGradient id="Áåçûìÿííûé_ãðàäèåíò_300" x1="420" y1="696.03" x2="442.93" y2="676.18" gradientTransform="matrix(0.87, 0.5, -1, 0.58, 430.67, -544.88)" gradientUnits="userSpaceOnUse"><stop offset="0" stop-color="#8d139b"/><stop offset="0.17" stop-color="#851ba1"/><stop offset="0.43" stop-color="#6e33b2"/><stop offset="0.76" stop-color="#4958cd"/><stop offset="1" stop-color="#2979e4"/></linearGradient><linearGradient id="Áåçûìÿííûé_ãðàäèåíò_302" x1="422.99" y1="693.44" x2="440.06" y2="678.66" gradientTransform="matrix(0.87, 0.5, -1, 0.58, 430.67, -544.88)" gradientUnits="userSpaceOnUse"><stop offset="0" stop-color="#630692"/><stop offset="0.23" stop-color="#5b0e94"/><stop offset="0.59" stop-color="#432399"/><stop offset="1" stop-color="#2142a1"/></linearGradient><clipPath id="clip-path"><path class="cls-1" d="M117.45,73l-9.15-5.28c-.65-.38-.57-1,.18-1.46l8.78-5.07a2.82,2.82,0,0,1,2.54-.11L129,66.33c.65.38.57,1-.18,1.46L120,72.87A2.82,2.82,0,0,1,117.45,73Z"/></clipPath><linearGradient id="Áåçûìÿííûé_ãðàäèåíò_370" x1="118.64" y1="73.23" x2="118.64" y2="21.21" gradientUnits="userSpaceOnUse"><stop offset="0.01" stop-color="#25bfec"/><stop offset="0.05" stop-color="#24b4e1"/><stop offset="0.22" stop-color="#1f83b0"/><stop offset="0.39" stop-color="#1b5a86"/><stop offset="0.56" stop-color="#173a66"/><stop offset="0.72" stop-color="#152350"/><stop offset="0.87" stop-color="#131642"/><stop offset="1" stop-color="#13113d"/></linearGradient><linearGradient id="Áåçûìÿííûé_ãðàäèåíò_384" x1="118.64" y1="72.66" x2="118.64" y2="25.58" gradientUnits="userSpaceOnUse"><stop offset="0.01" stop-color="#70e8fc"/><stop offset="0.15" stop-color="#5ab5cf"/><stop offset="0.3" stop-color="#4584a3"/><stop offset="0.46" stop-color="#335a7e"/><stop offset="0.6" stop-color="#253a62"/><stop offset="0.75" stop-color="#1b244d"/><stop offset="0.88" stop-color="#151641"/><stop offset="1" stop-color="#13113d"/></linearGradient><radialGradient id="Áåçûìÿííûé_ãðàäèåíò_371" cx="346.45" cy="1717.26" fx="323.75588974389444" fy="1727.0178034117805" r="35.48" gradientTransform="matrix(0.62, 0.78, -1.22, 0.33, 2002.39, -699.75)" xlink:href="#Áåçûìÿííûé_ãðàäèåíò_370"/><linearGradient id="Áåçûìÿííûé_ãðàäèåíò_388-3" x1="43.28" y1="143.79" x2="114.01" y2="143.79" xlink:href="#Áåçûìÿííûé_ãðàäèåíò_388"/><linearGradient id="Áåçûìÿííûé_ãðàäèåíò_377-2" x1="44.19" y1="122.83" x2="113.1" y2="122.83" xlink:href="#Áåçûìÿííûé_ãðàäèåíò_377"/><linearGradient id="Áåçûìÿííûé_ãðàäèåíò_300-2" x1="259.89" y1="869.43" x2="298.03" y2="869.43" gradientTransform="matrix(0.87, 0.5, -0.87, 0.5, 589.99, -468.39)" xlink:href="#Áåçûìÿííûé_ãðàäèåíò_300"/><linearGradient id="Áåçûìÿííûé_ãðàäèåíò_300-3" x1="266.95" y1="869.43" x2="290.97" y2="869.43" gradientTransform="matrix(0.87, 0.5, -0.87, 0.5, 589.99, -468.39)" xlink:href="#Áåçûìÿííûé_ãðàäèåíò_300"/><linearGradient id="Áåçûìÿííûé_ãðàäèåíò_377-3" x1="55.74" y1="91.57" x2="101.77" y2="91.57" xlink:href="#Áåçûìÿííûé_ãðàäèåíò_377"/><linearGradient id="Áåçûìÿííûé_ãðàäèåíò_300-4" x1="282.16" y1="840.05" x2="319.75" y2="840.05" gradientTransform="matrix(0.87, 0.5, -0.87, 0.5, 545.61, -486.47)" xlink:href="#Áåçûìÿííûé_ãðàäèåíò_300"/><linearGradient id="Áåçûìÿííûé_ãðàäèåíò_377-4" x1="55.74" y1="74.76" x2="101.77" y2="74.76" xlink:href="#Áåçûìÿííûé_ãðàäèåíò_377"/><linearGradient id="Áåçûìÿííûé_ãðàäèåíò_300-5" x1="265.35" y1="823.24" x2="302.94" y2="823.24" gradientTransform="matrix(0.87, 0.5, -0.87, 0.5, 545.61, -486.47)" xlink:href="#Áåçûìÿííûé_ãðàäèåíò_300"/><linearGradient id="Áåçûìÿííûé_ãðàäèåíò_384-2" x1="78.7" y1="75.73" x2="78.7" y2="26.34" xlink:href="#Áåçûìÿííûé_ãðàäèåíò_384"/><linearGradient id="Áåçûìÿííûé_ãðàäèåíò_384-3" x1="78.7" y1="73.38" x2="78.7" y2="0" xlink:href="#Áåçûìÿííûé_ãðàäèåíò_384"/></defs><title>encuentra-pic</title><g class="cls-2"><g id="Capa_2" data-name="Capa 2"><g id="Ñëîé_1" data-name="Ñëîé 1"><path class="cls-3" d="M19.3,126.58c22.06,15.54,54.13,19.17,71.62,8.11s13.79-32.62-8.27-48.15S28.53,67.37,11,78.43-2.76,111,19.3,126.58Z"/><path class="cls-4" d="M116.45,121.65l-17-9.79c-1.21-.7-1.05-1.91.34-2.72l16.28-9.4a5.23,5.23,0,0,1,4.7-.19l17,9.79c1.21.7,1.05,1.91-.34,2.72l-16.28,9.4A5.23,5.23,0,0,1,116.45,121.65Z"/><path class="cls-5" d="M118.47,124.37a5.11,5.11,0,0,1-2.51-.58L96,112.26a1.85,1.85,0,0,1-1.06-1.56,2.48,2.48,0,0,1,1.46-2l19.18-11.07a6.38,6.38,0,0,1,5.74-.23l20,11.53a1.85,1.85,0,0,1,1.06,1.56,2.48,2.48,0,0,1-1.46,2L121.7,123.56A6.66,6.66,0,0,1,118.47,124.37Zm.33-27.14a6.23,6.23,0,0,0-3,.76L96.59,109.06a2.11,2.11,0,0,0-1.26,1.64,1.47,1.47,0,0,0,.86,1.22l20,11.53a5.94,5.94,0,0,0,5.34-.23l19.18-11.07a2.11,2.11,0,0,0,1.26-1.64,1.47,1.47,0,0,0-.86-1.22l-20-11.53A4.69,4.69,0,0,0,118.8,97.23Z"/><path class="cls-6" d="M138.58,67h-8.41l-9.36-5.4a5.23,5.23,0,0,0-4.7.2l-9,5.21h-8.4V91.34h0a1.36,1.36,0,0,0,.81,1.26l17,9.79a5.23,5.23,0,0,0,4.7-.19l16.28-9.4a2,2,0,0,0,1.15-1.46h0Z"/><path class="cls-7" d="M137.43,92.41l-16.28,9.4a5.23,5.23,0,0,1-4.7.2l-17-9.79A1.36,1.36,0,0,1,98.69,91h0v.39h0a1.36,1.36,0,0,0,.81,1.26l17,9.79a5.23,5.23,0,0,0,4.7-.19l16.28-9.4a2,2,0,0,0,1.15-1.46h0V91h0A2,2,0,0,1,137.43,92.41Z"/><path class="cls-8" d="M99.22,91.73h0V67.4h8.4l9-5.21a5.23,5.23,0,0,1,4.7-.2l9.36,5.4h7.88V67h-8.41l-9.36-5.4a5.23,5.23,0,0,0-4.7.2l-9,5.21h-8.4V91.34h0a1.36,1.36,0,0,0,.81,1.26l.1.06A1.18,1.18,0,0,1,99.22,91.73Z"/><path class="cls-9" d="M138.11,67.46v24.3h0a1.49,1.49,0,0,1-.4.86,1.82,1.82,0,0,0,.88-1.29h0V67.07A2.5,2.5,0,0,0,138.11,67.46Z"/><path class="cls-10" d="M116.45,78.06l-17-9.79c-1.21-.7-1.05-1.91.34-2.72l16.28-9.4a5.23,5.23,0,0,1,4.7-.2l17,9.79c1.21.7,1.05,1.91-.34,2.72l-16.28,9.4A5.23,5.23,0,0,1,116.45,78.06Z"/><path class="cls-9" d="M137.77,65.75l-17-9.79a4.38,4.38,0,0,0-2.37-.46,3.94,3.94,0,0,1,1.71.46l17,9.79c1.21.7,1.05,1.91-.34,2.72l-16.28,9.4a5.36,5.36,0,0,1-2.33.65,5.54,5.54,0,0,0,3-.65l16.28-9.4C138.82,67.66,139,66.45,137.77,65.75Z"/><path class="cls-11" d="M117,75.24,104.38,68c-.9-.52-.78-1.42.25-2l12.12-7a3.89,3.89,0,0,1,3.5-.15l12.62,7.29c.9.52.78,1.42-.25,2l-12.12,7A3.89,3.89,0,0,1,117,75.24Z"/><path class="cls-12" d="M117.45,73l-9.15-5.28c-.65-.38-.57-1,.18-1.46l8.78-5.07a2.82,2.82,0,0,1,2.54-.11L129,66.33c.65.38.57,1-.18,1.46L120,72.87A2.82,2.82,0,0,1,117.45,73Z"/><path class="cls-8" d="M117.21,78.06l-17-9.79c-1.21-.7-1.05-1.91.34-2.72l16.28-9.4a5.35,5.35,0,0,1,2.29-.65,5.55,5.55,0,0,0-3.05.65l-16.28,9.4c-1.39.8-1.54,2-.34,2.72l17,9.79a4.4,4.4,0,0,0,2.41.46A3.89,3.89,0,0,1,117.21,78.06Z"/><g class="cls-13"><path class="cls-14" d="M108.49,66.94l8.78-5.07a2.82,2.82,0,0,1,2.54-.11L129,67a1,1,0,0,1,.32.29.68.68,0,0,0-.32-1l-9.15-5.28a2.82,2.82,0,0,0-2.54.11l-8.78,5.07c-.58.34-.76.81-.5,1.18A1.38,1.38,0,0,1,108.49,66.94Z"/><path class="cls-15" d="M108.49,67.8l8.78-5.07a2.82,2.82,0,0,1,2.54-.11L129,67.91a1,1,0,0,1,.27.22A.68.68,0,0,0,129,67l-9.15-5.28a2.82,2.82,0,0,0-2.54.11l-8.78,5.07c-.62.36-.78.86-.45,1.24A1.5,1.5,0,0,1,108.49,67.8Z"/><path class="cls-16" d="M108.13,69.14a1.6,1.6,0,0,1,.36-.28l8.78-5.07a2.82,2.82,0,0,1,2.54-.11L129,69a1.13,1.13,0,0,1,.18.13.69.69,0,0,0-.18-1.18l-9.15-5.28a2.82,2.82,0,0,0-2.54.11l-8.78,5.07C107.82,68.19,107.68,68.75,108.13,69.14Z"/></g><path class="cls-12" d="M124.48,96l-.94.54c-.24.14-.44,0-.44-.33V83.07a1,1,0,0,1,.44-.84l.94-.54c.24-.14.44,0,.44.33V95.15A1,1,0,0,1,124.48,96Z"/><path class="cls-14" d="M124.48,81.69l-.23.13V94.71a1,1,0,0,1-.44.84l-.71.41v.24c0,.32.2.47.44.33l.94-.54a1,1,0,0,0,.44-.84V82C124.92,81.7,124.72,81.55,124.48,81.69Z"/><path class="cls-12" d="M127.94,94l-.94.54c-.24.14-.44,0-.44-.33V81.07a1,1,0,0,1,.44-.84l.94-.54c.24-.14.44,0,.44.33V93.15A1,1,0,0,1,127.94,94Z"/><path class="cls-12" d="M131.41,92l-.94.54c-.24.14-.44,0-.44-.33V79.07a1,1,0,0,1,.44-.84l.94-.54c.24-.14.44,0,.44.33V91.15A1,1,0,0,1,131.41,92Z"/><path class="cls-12" d="M134.87,90l-.94.54c-.24.14-.44,0-.44-.33V77.07a1,1,0,0,1,.44-.84l.94-.54c.24-.14.44,0,.44.33V89.15A1,1,0,0,1,134.87,90Z"/><path class="cls-14" d="M127.94,79.69l-.23.13V92.71a1,1,0,0,1-.44.84l-.71.41v.24c0,.32.2.47.44.33l.94-.54a1,1,0,0,0,.44-.84V80C128.38,79.7,128.18,79.55,127.94,79.69Z"/><path class="cls-14" d="M131.41,77.69l-.23.13V90.71a1,1,0,0,1-.44.84L130,92v.24c0,.32.2.47.44.33l.94-.54a1,1,0,0,0,.44-.84V78C131.84,77.7,131.65,77.55,131.41,77.69Z"/><path class="cls-14" d="M134.87,75.69l-.23.13V88.71a1,1,0,0,1-.44.84l-.71.41v.24c0,.32.2.47.44.33l.94-.54a1,1,0,0,0,.44-.84V76C135.31,75.7,135.11,75.55,134.87,75.69Z"/><path class="cls-17" d="M115.05,97.6a.7.7,0,0,1-.34-.1l-12.25-7.07A1.78,1.78,0,0,1,101.7,89V75.1a.75.75,0,0,1,.31-.68.57.57,0,0,1,.59,0l12.25,7.07a1.78,1.78,0,0,1,.76,1.43V96.85a.75.75,0,0,1-.31.68A.49.49,0,0,1,115.05,97.6Zm-12.79-23a.21.21,0,0,0-.11,0,.49.49,0,0,0-.16.43V89a1.51,1.51,0,0,0,.61,1.19l12.24,7.07a.31.31,0,0,0,.3,0,.49.49,0,0,0,.17-.43V83a1.51,1.51,0,0,0-.61-1.18L102.46,74.7A.42.42,0,0,0,102.26,74.64Z"/><path class="cls-12" d="M104.1,77.82c0,.38-.27.53-.6.34a1.32,1.32,0,0,1-.6-1c0-.38.27-.53.6-.34A1.32,1.32,0,0,1,104.1,77.82Z"/><path class="cls-12" d="M104.1,79.75c0,.38-.27.53-.6.34a1.32,1.32,0,0,1-.6-1c0-.38.27-.53.6-.34A1.32,1.32,0,0,1,104.1,79.75Z"/><path class="cls-12" d="M104.1,81.69c0,.38-.27.53-.6.34a1.32,1.32,0,0,1-.6-1c0-.38.27-.53.6-.34A1.32,1.32,0,0,1,104.1,81.69Z"/><path class="cls-14" d="M103.8,81.8a1.32,1.32,0,0,1-.6-1,.6.6,0,0,1,0-.19c-.19,0-.33.15-.33.42a1.32,1.32,0,0,0,.6,1c.27.15.49.08.57-.16A.53.53,0,0,1,103.8,81.8Z"/><path class="cls-14" d="M103.8,79.86a1.32,1.32,0,0,1-.6-1,.6.6,0,0,1,0-.19c-.19,0-.33.15-.33.42a1.32,1.32,0,0,0,.6,1c.27.15.49.08.57-.16A.53.53,0,0,1,103.8,79.86Z"/><path class="cls-14" d="M103.8,77.93a1.32,1.32,0,0,1-.6-1,.6.6,0,0,1,0-.19c-.19,0-.33.15-.33.42a1.32,1.32,0,0,0,.6,1c.27.15.49.08.57-.16A.53.53,0,0,1,103.8,77.93Z"/><path class="cls-17" d="M113.95,90.66l-.39-.23a.53.53,0,0,1-.22-.42v-1.9c0-.16.1-.24.22-.17l.39.23a.53.53,0,0,1,.22.42v1.9C114.17,90.66,114.07,90.73,113.95,90.66Z"/><path class="cls-18" d="M129.39,21.21H107.89V67.06h0a.75.75,0,0,0,.44.63L117.46,73a2.82,2.82,0,0,0,2.53-.11l8.77-5.07a1.08,1.08,0,0,0,.62-.78h0Z"/><path class="cls-19" d="M128.37,25.58H108.91v41.5h0a.68.68,0,0,0,.4.57l8.27,4.78a2.55,2.55,0,0,0,2.29-.1l7.94-4.58a1,1,0,0,0,.56-.71h0Z"/><circle class="cls-12" cx="113.54" cy="63.22" r="0.8"/><circle class="cls-12" cx="119.58" cy="57.85" r="1.37"/><circle class="cls-12" cx="117.89" cy="56.98" r="0.35"/><circle class="cls-12" cx="123.86" cy="50.11" r="0.68"/><circle class="cls-12" cx="120.26" cy="44.31" r="0.48"/><circle class="cls-12" cx="114.34" cy="40.6" r="0.88"/><circle class="cls-12" cx="119.17" cy="34.4" r="1.77"/><circle class="cls-12" cx="116.91" cy="33.27" r="0.49"/><circle class="cls-12" cx="120.6" cy="36.53" r="0.58"/><circle class="cls-12" cx="121.32" cy="35.33" r="0.28"/><circle class="cls-12" cx="124.41" cy="29.35" r="0.8"/><path class="cls-20" d="M140.2,168.59c-24,6.49-53.24-.69-65.42-16S72.16,119.49,96.11,113s53.24.69,65.42,16S164.16,162.1,140.2,168.59Z"/><path class="cls-4" d="M98.43,155.21c-10.93,6.31-28.64,6.31-39.57,0s-10.93-16.54,0-22.84,28.64-6.31,39.57,0S109.35,148.9,98.43,155.21Z"/><path class="cls-21" d="M78.65,164.28c-9,0-18.08-2-25-6-6.71-3.87-10.4-9-10.4-14.53s3.69-10.66,10.4-14.53c13.76-7.95,36.16-7.95,49.93,0,6.71,3.87,10.4,9,10.4,14.53s-3.69,10.66-10.4,14.53C96.73,162.29,87.69,164.28,78.65,164.28Zm0-40.58c-9,0-17.94,2-24.76,5.91-6.58,3.8-10.2,8.83-10.2,14.18S47.3,154.17,53.88,158c13.66,7.88,35.87,7.89,49.53,0h0c6.58-3.8,10.2-8.83,10.2-14.18s-3.62-10.38-10.2-14.18C96.58,125.66,87.61,123.69,78.64,123.69Z"/><path class="cls-22" d="M110.06,115.71h0L101,101.86l-2.61,5.74c-11.85-4.79-27.73-4.78-39.56,0l-2.5-5.78-10,15.2h0c-4.45,7-1.79,15.25,8,20.91,13.46,7.77,35.28,7.77,48.74,0C113.44,131.95,115.78,123,110.06,115.71Z"/><path class="cls-8" d="M59.3,107.64A53.2,53.2,0,0,1,78.76,104a53.64,53.64,0,0,0-19.52,3.47Z"/><path class="cls-8" d="M98.86,107.6l2.41-5.3-.29-.43-2.53,5.58Z"/><path class="cls-8" d="M54.76,138c-9.79-5.65-12.45-13.86-8-20.91h0L56.5,102.3l-.19-.44-10,15.2h0c-4.45,7-1.79,15.25,8,20.91C61.08,141.9,70,143.83,79,143.79,70.19,143.76,61.44,141.82,54.76,138Z"/><path class="cls-9" d="M97.81,107.6l.08-.18A53.82,53.82,0,0,0,78.32,104,53.31,53.31,0,0,1,97.81,107.6Z"/><path class="cls-9" d="M58.25,107.64l.49-.18-2.29-5.28-.33.54Z"/><path class="cls-9" d="M110.06,115.71h0L101,101.86l-.23.51,8.76,13.34h0c5.72,7.32,3.37,16.23-7,22.25-6.66,3.84-15.36,5.78-24.09,5.82,8.91,0,17.85-1.89,24.65-5.82C113.44,131.95,115.78,123,110.06,115.71Z"/><path class="cls-23" d="M95.16,115.34c-9.12,5.27-23.9,5.26-33,0s-9.12-13.8,0-19.07,23.9-5.26,33,0S104.28,110.07,95.16,115.34Z"/><path class="cls-24" d="M89,111.81c-5.74,3.32-15.06,3.32-20.8,0s-5.74-8.69,0-12,15.06-3.32,20.8,0S94.79,108.49,89,111.81Z"/><path class="cls-12" d="M89,111.81c-5.74,3.32-15.06,3.32-20.8,0s-5.74-8.69,0-12,15.06-3.32,20.8,0S94.79,108.49,89,111.81Z"/><path class="cls-16" d="M68.24,104.35C74,101,83.3,101,89,104.35a9,9,0,0,1,3.76,3.73c1.37-2.85.12-6-3.76-8.28-5.74-3.32-15.06-3.32-20.8,0-3.88,2.24-5.13,5.43-3.76,8.28A9,9,0,0,1,68.24,104.35Z"/><path class="cls-15" d="M68.24,102.74c5.74-3.32,15.06-3.32,20.8,0a8.3,8.3,0,0,1,4.08,4.53c.8-2.63-.55-5.44-4.08-7.48-5.74-3.32-15.06-3.32-20.8,0-3.52,2-4.88,4.84-4.08,7.48A8.3,8.3,0,0,1,68.24,102.74Z"/><path class="cls-14" d="M68.24,101.31C74,98,83.3,98,89,101.31c2.54,1.47,4,3.33,4.25,5.25.37-2.42-1-4.91-4.25-6.76-5.74-3.32-15.06-3.32-20.8,0-3.21,1.85-4.62,4.34-4.25,6.76C64.29,104.64,65.71,102.78,68.24,101.31Z"/><path class="cls-8" d="M62.52,96.75c9.12-5.26,23.9-5.26,33,0A17.28,17.28,0,0,1,99.7,100a16.56,16.56,0,0,0-4.54-3.73c-9.12-5.27-23.9-5.27-33,0-7.42,4.28-8.8,10.73-4.15,15.82C53.84,107.08,55.34,100.9,62.52,96.75Z"/><path class="cls-9" d="M95.16,96.27l-.42-.22c8.88,5.28,8.82,13.7-.22,18.92s-23.46,5.25-32.6.22l.22.14c9.12,5.27,23.9,5.27,33,0S104.28,101.54,95.16,96.27Z"/><path class="cls-25" d="M101.77,91.56V84H97.7A18.73,18.73,0,0,0,95,82.17C86,77,71.47,77,62.48,82.17A18.74,18.74,0,0,0,59.81,84H55.74v7.53h0c0,3.4,2.25,6.8,6.74,9.4,9,5.19,23.56,5.19,32.55,0C99.53,98.37,101.78,95,101.77,91.56Z"/><path class="cls-8" d="M56,91.37V84h-.21v7.53c0,3,1.82,6.08,5.42,8.55C57.69,97.55,56,94.46,56,91.37Z"/><path class="cls-9" d="M101.41,84v7.28c0,3.4-2.24,6.81-6.74,9.41-9,5.19-23.56,5.19-32.55,0-.46-.26-.88-.54-1.29-.82.51.37,1.06.72,1.65,1.06,9,5.19,23.56,5.19,32.55,0,4.5-2.6,6.75-6,6.74-9.41V84Z"/><path class="cls-26" d="M95,93.43c-9,5.19-23.56,5.19-32.55,0s-9-13.6,0-18.79S86,69.45,95,74.64,104,88.24,95,93.43Z"/><path class="cls-8" d="M63.1,74.78a34.17,34.17,0,0,1,16.51-4c-6.17-.13-12.42,1.15-17.13,3.87-7,4-8.61,10.12-4.61,14.94C54.43,84.64,56.17,78.78,63.1,74.78Z"/><path class="cls-9" d="M95,74.64a28.46,28.46,0,0,0-8.14-3,27.9,27.9,0,0,1,7.33,2.84c9,5.19,9,13.6,0,18.79-6.6,3.81-16.21,4.81-24.41,3,8.37,2,18.4,1.09,25.21-2.84C104,88.24,104,79.83,95,74.64Z"/><path class="cls-12" d="M89,90C83.3,93.36,74,93.36,68.24,90s-5.74-8.69,0-12S83.3,74.71,89,78,94.79,86.72,89,90Z"/><path class="cls-16" d="M68.24,82.58c5.74-3.32,15.06-3.32,20.8,0a9,9,0,0,1,3.76,3.73c1.37-2.85.12-6-3.76-8.28C83.3,74.71,74,74.71,68.24,78c-3.88,2.24-5.13,5.43-3.76,8.28A9,9,0,0,1,68.24,82.58Z"/><path class="cls-15" d="M68.24,81C74,77.66,83.3,77.66,89,81a8.3,8.3,0,0,1,4.08,4.53c.8-2.63-.55-5.44-4.08-7.48C83.3,74.71,74,74.71,68.24,78c-3.52,2-4.88,4.84-4.08,7.48A8.3,8.3,0,0,1,68.24,81Z"/><path class="cls-14" d="M68.24,79.54c5.74-3.32,15.06-3.32,20.8,0,2.54,1.47,4,3.33,4.25,5.25.37-2.42-1-4.91-4.25-6.76C83.3,74.71,74,74.71,68.24,78,65,79.88,63.63,82.37,64,84.79,64.29,82.88,65.71,81,68.24,79.54Z"/><path class="cls-27" d="M101.77,74.75V67.22H97.7A18.73,18.73,0,0,0,95,65.36c-9-5.19-23.56-5.19-32.55,0a18.74,18.74,0,0,0-2.67,1.86H55.74v7.53h0c0,3.4,2.25,6.8,6.74,9.4,9,5.19,23.56,5.19,32.55,0C99.53,81.56,101.78,78.15,101.77,74.75Z"/><path class="cls-8" d="M56,74.56V67.22h-.21v7.53c0,3,1.82,6.08,5.42,8.55C57.69,80.74,56,77.65,56,74.56Z"/><path class="cls-9" d="M101.41,67.22V74.5c0,3.4-2.24,6.81-6.74,9.41-9,5.19-23.56,5.19-32.55,0-.46-.26-.88-.54-1.29-.82.51.37,1.06.72,1.65,1.06,9,5.19,23.56,5.19,32.55,0,4.5-2.6,6.75-6,6.74-9.41V67.22Z"/><path class="cls-28" d="M95,76.62c-9,5.19-23.56,5.19-32.55,0s-9-13.6,0-18.79S86,52.64,95,57.83,104,71.43,95,76.62Z"/><path class="cls-8" d="M63.1,58a34.17,34.17,0,0,1,16.51-4c-6.17-.13-12.42,1.15-17.13,3.87-7,4-8.61,10.12-4.61,14.94C54.43,67.83,56.17,62,63.1,58Z"/><path class="cls-9" d="M95,57.83a28.46,28.46,0,0,0-8.14-3,27.9,27.9,0,0,1,7.33,2.84c9,5.19,9,13.6,0,18.79-6.6,3.81-16.21,4.81-24.41,3,8.37,2,18.4,1.09,25.21-2.84C104,71.43,104,63,95,57.83Z"/><path class="cls-12" d="M89,73.23c-5.74,3.32-15.06,3.32-20.8,0s-5.74-8.69,0-12,15.06-3.32,20.8,0S94.79,69.91,89,73.23Z"/><path class="cls-16" d="M68.24,65.77c5.74-3.32,15.06-3.32,20.8,0a9,9,0,0,1,3.76,3.73c1.37-2.85.12-6-3.76-8.28-5.74-3.32-15.06-3.32-20.8,0-3.88,2.24-5.13,5.43-3.76,8.28A9,9,0,0,1,68.24,65.77Z"/><path class="cls-15" d="M68.24,64.16c5.74-3.32,15.06-3.32,20.8,0a8.3,8.3,0,0,1,4.08,4.53c.8-2.63-.55-5.44-4.08-7.48-5.74-3.32-15.06-3.32-20.8,0-3.52,2-4.88,4.84-4.08,7.48A8.3,8.3,0,0,1,68.24,64.16Z"/><path class="cls-14" d="M68.24,62.73c5.74-3.32,15.06-3.32,20.8,0,2.54,1.47,4,3.33,4.25,5.25.37-2.42-1-4.91-4.25-6.76-5.74-3.32-15.06-3.32-20.8,0C65,63.07,63.63,65.56,64,68,64.29,66.07,65.71,64.2,68.24,62.73Z"/><path class="cls-29" d="M93.34,26.34H64.06V66.91h0c-.17,2.28,1.25,4.6,4.27,6.34,5.72,3.3,15,3.3,20.7,0,3-1.74,4.44-4.06,4.27-6.34h0Z"/><path class="cls-30" d="M91.13,0H66.27V65.9h0c-.14,1.94,1.07,3.9,3.63,5.38,4.86,2.8,12.73,2.8,17.58,0,2.56-1.48,3.77-3.45,3.63-5.38h0Z"/><circle class="cls-9" cx="62.01" cy="38.92" r="1.8" transform="matrix(0.27, -0.96, 0.96, 0.27, 7.9, 88.23)"/><circle class="cls-31" cx="68.88" cy="41.95" r="1.8" transform="translate(0.38 84.53) rotate(-63.2)"/><circle class="cls-32" cx="75.03" cy="46.27" r="1.8" transform="translate(-7.65 76.84) rotate(-51.95)"/><circle class="cls-33" cx="80.21" cy="51.71" r="1.8" transform="translate(-14.32 64.82) rotate(-40.7)"/><circle class="cls-34" cx="84.23" cy="58.05" r="1.8" transform="translate(-17.66 48.92) rotate(-29.45)"/><circle class="cls-35" cx="86.94" cy="65.05" r="1.8" transform="translate(7.84 139.45) rotate(-80.05)"/><circle class="cls-9" cx="55.28" cy="38.45" r="1.83" transform="translate(3.42 81.4) rotate(-74.46)"/><circle class="cls-31" cx="48.41" cy="35.41" r="1.8" transform="translate(-5.02 62.66) rotate(-63.2)"/><circle class="cls-32" cx="42.27" cy="31.09" r="1.8" transform="translate(-8.26 45.22) rotate(-51.96)"/><circle class="cls-33" cx="37.08" cy="25.65" r="1.8" transform="translate(-7.76 30.39) rotate(-40.71)"/><circle class="cls-34" cx="33.06" cy="19.31" r="1.8" transform="translate(-5.22 18.75) rotate(-29.45)"/><circle class="cls-35" cx="30.35" cy="12.31" r="1.8" transform="translate(12.99 40.08) rotate(-80.05)"/><circle class="cls-9" cx="49" cy="49" r="1.25" transform="translate(-16.04 25.1) rotate(-24.82)"/><circle class="cls-31" cx="46.16" cy="44.64" r="1.25" transform="translate(-17.44 35.74) rotate(-36.07)"/><circle class="cls-32" cx="42.51" cy="40.92" r="1.25" transform="translate(-16.39 44.44) rotate(-47.32)"/><circle class="cls-33" cx="38.21" cy="37.98" r="1.25" transform="translate(-14.12 50.79) rotate(-58.57)"/><circle class="cls-34" cx="33.42" cy="35.94" r="1.25" transform="translate(-11.84 54.91) rotate(-69.82)"/><circle class="cls-35" cx="28.33" cy="34.87" r="1.25" transform="translate(-9.9 11.27) rotate(-19.23)"/><circle class="cls-9" cx="50.08" cy="53.56" r="1.27" transform="translate(-17.86 25.97) rotate(-24.82)"/><circle class="cls-31" cx="52.93" cy="57.92" r="1.25" transform="translate(-23.96 42.27) rotate(-36.07)"/><circle class="cls-32" cx="56.57" cy="61.64" r="1.25" transform="translate(-27.1 61.44) rotate(-47.32)"/><circle class="cls-33" cx="60.87" cy="64.58" r="1.25" transform="translate(-25.98 82.85) rotate(-58.57)"/><circle class="cls-34" cx="65.66" cy="66.63" r="1.25" transform="translate(-19.53 105.27) rotate(-69.82)"/><circle class="cls-35" cx="70.75" cy="67.7" r="1.25" transform="translate(-18.35 27.08) rotate(-19.23)"/><path class="cls-33" d="M70.75,67.82a.12.12,0,0,1,0-.23l13.48-2L65.66,66.74a.12.12,0,0,1-.06-.22l17.24-8-22,6.14a.12.12,0,0,1-.1-.21L79.11,52.3l-22.5,9.46a.12.12,0,0,1-.12-.2L74.09,46.9,53,58a.12.12,0,0,1-.14-.19L68.09,42.58,50.14,53.66a.12.12,0,0,1-.15,0,.12.12,0,0,1,0-.15L61.27,39.64,49.08,49.1a.12.12,0,0,1-.17-.16c2.35-3.71,5.79-9.27,6.22-10.32-1,.48-5.72,3.83-8.9,6.12a.12.12,0,0,1-.13,0,.12.12,0,0,1,0-.13l2.16-8.85L42.59,41a.12.12,0,0,1-.2-.08l-.24-9.42L38.32,38a.12.12,0,0,1-.13.06.12.12,0,0,1-.09-.1L37,26.2,33.54,36a.13.13,0,0,1-.13.08.12.12,0,0,1-.1-.11L33,20.05,28.44,34.9a.12.12,0,0,1-.13.08.12.12,0,0,1-.09-.13l2-22.56a.12.12,0,0,1,.13-.11.12.12,0,0,1,.11.13L28.55,33.74l4.4-14.46a.11.11,0,0,1,.13-.08.12.12,0,0,1,.1.11l.35,16L37,25.62a.11.11,0,0,1,.13-.08.12.12,0,0,1,.1.11l1.1,12L42.16,31A.13.13,0,0,1,42.3,31a.12.12,0,0,1,.09.11l.24,9.57,5.71-5.33a.12.12,0,0,1,.19.11l-2.18,8.92c3.91-2.81,8.48-6,9-6h0a.16.16,0,0,1,.08.09c.12.4-3.86,6.78-5.94,10.08l12.48-9.68a.12.12,0,0,1,.16.17l-11.5,14.1L68.82,41.86a.11.11,0,0,1,.15,0A.12.12,0,0,1,69,42L53.56,57.46,75,46.17a.12.12,0,0,1,.15,0,.12.12,0,0,1,0,.16L57.25,61.23,80.16,51.6a.12.12,0,0,1,.15.05.12.12,0,0,1,0,.15L61.55,64.27,84.2,57.94a.12.12,0,0,1,.08.22l-18,8.32L87,65.21a.13.13,0,0,1,.12.11.12.12,0,0,1-.1.13L70.77,67.81Z"/></g></g></g></svg>