<svg xmlns="http://www.w3.org/2000/svg" xmlns:xlink="http://www.w3.org/1999/xlink" viewBox="0 0 389.33 309.52"><defs><style>.cls-1{isolation:isolate;}.cls-2{opacity:0.71;fill:url(#linear-gradient);}.cls-3,.cls-5{fill:#45108a;}.cls-3,.cls-39,.cls-4{mix-blend-mode:screen;}.cls-6{opacity:0.2;}.cls-7{opacity:0;}.cls-8{opacity:0.09;}.cls-9{opacity:0.18;}.cls-10{opacity:0.27;}.cls-11{opacity:0.36;}.cls-12{opacity:0.45;}.cls-13{opacity:0.55;}.cls-14{opacity:0.64;}.cls-15{opacity:0.73;}.cls-16{opacity:0.82;}.cls-17{opacity:0.91;}.cls-18{fill:url(#linear-gradient-2);}.cls-19{fill:url(#linear-gradient-3);}.cls-20{fill:url(#linear-gradient-4);}.cls-21,.cls-32,.cls-33,.cls-34,.cls-36{mix-blend-mode:color-dodge;}.cls-21{fill:url(#Radial_Gradient_1);}.cls-22{fill:url(#linear-gradient-5);}.cls-23{fill:#1f0d3d;}.cls-24,.cls-32{fill:#3d065f;}.cls-25{fill:url(#linear-gradient-6);}.cls-26{fill:url(#linear-gradient-7);}.cls-27{fill:url(#linear-gradient-8);}.cls-28{fill:url(#linear-gradient-9);}.cls-29{fill:url(#linear-gradient-10);}.cls-30{fill:url(#linear-gradient-11);}.cls-31{fill:url(#linear-gradient-12);}.cls-33{fill:url(#radial-gradient);}.cls-34{fill:url(#radial-gradient-2);}.cls-35{fill:url(#New_Gradient_Swatch_copy_7);}.cls-36{fill:url(#Radial_Gradient_1-2);}.cls-37{fill:#a56ef4;}.cls-38{fill:#7c1dc9;}.cls-39{fill:url(#radial-gradient-3);}.cls-40,.cls-46,.cls-68{mix-blend-mode:multiply;}.cls-40{fill:url(#linear-gradient-13);}.cls-41{fill:url(#New_Gradient_Swatch_copy_36);}.cls-42{fill:url(#New_Gradient_Swatch_copy_35);}.cls-43{fill:url(#New_Gradient_Swatch_copy_35-2);}.cls-44{fill:#d1b4e3;}.cls-45{fill:url(#New_Gradient_Swatch_copy_36-2);}.cls-46{fill:#e6e7e8;}.cls-47{fill:url(#New_Gradient_Swatch_copy_35-3);}.cls-48{fill:url(#New_Gradient_Swatch_copy_36-3);}.cls-49{fill:#f1e8f6;}.cls-50{fill:url(#New_Gradient_Swatch_copy_35-4);}.cls-51{fill:url(#New_Gradient_Swatch_copy_35-5);}.Graphic-Style-184{fill:url(#linear-gradient-14);}.cls-52,.cls-53,.cls-56,.cls-57,.cls-59,.cls-60,.cls-62{opacity:0.5;}.cls-52{fill:url(#linear-gradient-15);}.cls-53{fill:url(#New_Gradient_Swatch_copy_36-4);}.cls-54{fill:url(#New_Gradient_Swatch_copy_35-6);}.cls-55{fill:url(#linear-gradient-17);}.cls-56{fill:url(#linear-gradient-19);}.cls-57{fill:url(#New_Gradient_Swatch_copy_36-5);}.cls-58{fill:url(#linear-gradient-21);}.cls-59{fill:url(#New_Gradient_Swatch_copy_36-6);}.cls-60{fill:url(#New_Gradient_Swatch_copy_36-7);}.cls-61{fill:url(#New_Gradient_Swatch_copy_36-8);}.Graphic-Style-183{fill:url(#linear-gradient-22);}.cls-62{fill:url(#New_Gradient_Swatch_copy_36-9);}.cls-63{fill:url(#New_Gradient_Swatch_copy_36-10);}.cls-64{fill:url(#New_Gradient_Swatch_copy_35-7);}.cls-65{fill:url(#New_Gradient_Swatch_copy_35-8);}.cls-66{fill:url(#New_Gradient_Swatch_copy_35-9);}.cls-67{fill:url(#linear-gradient-23);}.cls-68{fill:url(#linear-gradient-24);}.cls-69{fill:url(#New_Gradient_Swatch_copy_35-10);}.cls-70,.cls-71,.cls-72{fill:#1bb0d4;}.cls-71{opacity:0.4;}.cls-72{opacity:0.1;}.cls-73{fill:url(#New_Gradient_Swatch_copy_7-2);}.cls-74,.cls-75,.cls-76,.cls-77,.cls-79,.cls-80{fill:none;}.cls-74{stroke:#a56ef4;stroke-width:1.04px;}.cls-74,.cls-75,.cls-77,.cls-78,.cls-79,.cls-80{stroke-miterlimit:10;}.cls-75{stroke:#fff;}.cls-75,.cls-77,.cls-78{stroke-width:0.58px;}.cls-77{stroke:#e5007e;}.cls-78{fill:#fff;stroke:#4a3b8f;}.cls-79,.cls-80{stroke:#1bb0d4;}.cls-79{stroke-width:0.5px;}.cls-80{stroke-width:0.25px;}</style><linearGradient id="linear-gradient" x1="194.67" y1="81.33" x2="194.67" y2="310.41" gradientUnits="userSpaceOnUse"><stop offset="0.02" stop-color="#45108a"/><stop offset="0.39" stop-color="#3d065f"/><stop offset="1" stop-color="#12054e"/><stop offset="1" stop-color="#10054d"/></linearGradient><linearGradient id="linear-gradient-2" x1="6401.04" y1="141.3" x2="6718.37" y2="141.3" gradientTransform="matrix(-1, 0, 0, 1, 6741.51, 0)" gradientUnits="userSpaceOnUse"><stop offset="0" stop-color="#2f054a"/><stop offset="1" stop-color="#5824b0"/></linearGradient><linearGradient id="linear-gradient-3" x1="6442.76" y1="139.93" x2="6760.09" y2="139.93" gradientTransform="matrix(-1, 0, 0, 1, 6741.51, 0)" gradientUnits="userSpaceOnUse"><stop offset="0.06" stop-color="#2f0d5e"/><stop offset="0.28" stop-color="#2f105f"/><stop offset="0.47" stop-color="#311b61"/><stop offset="0.48" stop-color="#351f65"/><stop offset="0.5" stop-color="#422c73"/><stop offset="0.51" stop-color="#584188"/><stop offset="0.52" stop-color="#765fa7"/><stop offset="0.53" stop-color="#8770b8"/><stop offset="0.54" stop-color="#7e67ae"/><stop offset="0.56" stop-color="#5c468d"/><stop offset="0.59" stop-color="#442e75"/><stop offset="0.61" stop-color="#362066"/><stop offset="0.63" stop-color="#311b61"/><stop offset="0.67" stop-color="#2a1155"/><stop offset="0.75" stop-color="#230446"/><stop offset="0.81" stop-color="#200041"/><stop offset="1" stop-color="#200041"/></linearGradient><linearGradient id="linear-gradient-4" x1="6401.04" y1="133.09" x2="6718.37" y2="133.09" gradientTransform="matrix(-1, 0, 0, 1, 6741.51, 0)" gradientUnits="userSpaceOnUse"><stop offset="0" stop-color="#58098a"/><stop offset="1" stop-color="#9e3bdb"/></linearGradient><radialGradient id="Radial_Gradient_1" cx="160.56" cy="168.19" r="120.61" gradientUnits="userSpaceOnUse"><stop offset="0" stop-color="#fff"/><stop offset="1"/></radialGradient><linearGradient id="linear-gradient-5" x1="6404.21" y1="133.09" x2="6715.2" y2="133.09" gradientTransform="matrix(-1, 0, 0, 1, 6741.51, 0)" gradientUnits="userSpaceOnUse"><stop offset="0" stop-color="#2f054a"/><stop offset="1" stop-color="#5e1d9a"/></linearGradient><linearGradient id="linear-gradient-6" x1="197.63" y1="53.96" x2="142.55" y2="329.34" gradientUnits="userSpaceOnUse"><stop offset="0" stop-color="#861eb2"/><stop offset="0.43" stop-color="#5f27bd"/><stop offset="0.9" stop-color="#3d065f"/></linearGradient><linearGradient id="linear-gradient-7" x1="8963.13" y1="-774.95" x2="8978.42" y2="-774.95" gradientTransform="matrix(-0.87, 0.5, -0.5, 1.44, 7681.98, -3234.13)" gradientUnits="userSpaceOnUse"><stop offset="0" stop-color="#3d065f"/><stop offset="1" stop-color="#5f27bd"/></linearGradient><linearGradient id="linear-gradient-8" x1="8963.13" y1="-774.95" x2="8978.42" y2="-774.95" gradientTransform="matrix(-0.87, 0.5, -0.5, 1.44, 7681.98, -3234.13)" xlink:href="#linear-gradient-2"/><linearGradient id="linear-gradient-9" x1="8946.47" y1="-729.63" x2="8940.15" y2="-717.84" gradientTransform="matrix(-0.87, 0.5, -0.5, 1.44, 7681.98, -3234.13)" gradientUnits="userSpaceOnUse"><stop offset="0.06" stop-color="#9f79b8"/><stop offset="0.26" stop-color="#a17bba"/><stop offset="0.36" stop-color="#a783bf"/><stop offset="0.43" stop-color="#b290c9"/><stop offset="0.49" stop-color="#c1a1d5"/><stop offset="0.51" stop-color="#c4a5d7"/><stop offset="0.52" stop-color="#cdb3dd"/><stop offset="0.53" stop-color="#dbc8e7"/><stop offset="0.55" stop-color="#efe7f4"/><stop offset="0.56" stop-color="#fff"/><stop offset="0.57" stop-color="#ece0f3"/><stop offset="0.58" stop-color="#ddc8ea"/><stop offset="0.59" stop-color="#d4b9e5"/><stop offset="0.6" stop-color="#d1b4e3"/><stop offset="0.66" stop-color="#b395d6"/><stop offset="0.72" stop-color="#9c7dcb"/><stop offset="0.77" stop-color="#8e6ec5"/><stop offset="0.81" stop-color="#8969c3"/><stop offset="1" stop-color="#b086cc"/></linearGradient><linearGradient id="linear-gradient-10" x1="8981.06" y1="-774.95" x2="8996.35" y2="-774.95" xlink:href="#linear-gradient-7"/><linearGradient id="linear-gradient-11" x1="8981.06" y1="-774.95" x2="8996.35" y2="-774.95" gradientTransform="matrix(-0.87, 0.5, -0.5, 1.44, 7681.98, -3234.13)" xlink:href="#linear-gradient-2"/><linearGradient id="linear-gradient-12" x1="8960.4" y1="-722.16" x2="8954.08" y2="-710.37" xlink:href="#linear-gradient-9"/><radialGradient id="radial-gradient" cx="5401.69" cy="-908.93" r="57.21" gradientTransform="matrix(-1, 0, 0, 0.66, 5668.1, 751.73)" gradientUnits="userSpaceOnUse"><stop offset="0" stop-color="#972a74"/><stop offset="0.04" stop-color="#8a266a"/><stop offset="0.19" stop-color="#601b4a"/><stop offset="0.35" stop-color="#3d112f"/><stop offset="0.51" stop-color="#230a1b"/><stop offset="0.67" stop-color="#0f040c"/><stop offset="0.83" stop-color="#040103"/><stop offset="1"/></radialGradient><radialGradient id="radial-gradient-2" cx="7487.24" cy="2212.78" r="29.77" gradientTransform="matrix(0, -1, -0.66, 0, 1597.85, 7714.27)" xlink:href="#radial-gradient"/><linearGradient id="New_Gradient_Swatch_copy_7" x1="55.14" y1="163.39" x2="115.51" y2="163.39" gradientUnits="userSpaceOnUse"><stop offset="0.04" stop-color="#138bbd"/><stop offset="0.23" stop-color="#169ac7"/><stop offset="0.59" stop-color="#1fc3df"/><stop offset="1" stop-color="#2af6ff"/></linearGradient><radialGradient id="Radial_Gradient_1-2" cx="85.33" cy="171.82" r="22.26" xlink:href="#Radial_Gradient_1"/><radialGradient id="radial-gradient-3" cx="87.93" cy="161.17" r="10.8" gradientUnits="userSpaceOnUse"><stop offset="0.1" stop-color="#fff"/><stop offset="0.13" stop-color="#c778ce"/><stop offset="0.15" stop-color="#9f19ab"/><stop offset="0.17" stop-color="#93179e"/><stop offset="0.21" stop-color="#711279"/><stop offset="0.26" stop-color="#520d58"/><stop offset="0.32" stop-color="#38093d"/><stop offset="0.38" stop-color="#240626"/><stop offset="0.46" stop-color="#130315"/><stop offset="0.55" stop-color="#080109"/><stop offset="0.67" stop-color="#020002"/><stop offset="1"/></radialGradient><linearGradient id="linear-gradient-13" x1="314.9" y1="167.55" x2="155.92" y2="41.5" gradientUnits="userSpaceOnUse"><stop offset="0" stop-color="#fff"/><stop offset="1" stop-color="#939598"/></linearGradient><linearGradient id="New_Gradient_Swatch_copy_36" x1="244.77" y1="46.99" x2="271.58" y2="13.96" gradientUnits="userSpaceOnUse"><stop offset="0.1" stop-color="#45108a"/><stop offset="1" stop-color="#7c1dc9"/></linearGradient><linearGradient id="New_Gradient_Swatch_copy_35" x1="291.86" y1="114.07" x2="337.62" y2="216.77" gradientUnits="userSpaceOnUse"><stop offset="0" stop-color="#9f79c8"/><stop offset="0.14" stop-color="#a580cb"/><stop offset="0.33" stop-color="#b492d3"/><stop offset="0.55" stop-color="#cdb0e1"/><stop offset="0.58" stop-color="#d1b4e3"/><stop offset="0.76" stop-color="#dbc4e9"/><stop offset="1" stop-color="#ebdef3"/></linearGradient><linearGradient id="New_Gradient_Swatch_copy_35-2" x1="204.11" y1="62.6" x2="262.5" y2="94.6" xlink:href="#New_Gradient_Swatch_copy_35"/><linearGradient id="New_Gradient_Swatch_copy_36-2" x1="267.53" y1="110.67" x2="355.62" y2="66.83" xlink:href="#New_Gradient_Swatch_copy_36"/><linearGradient id="New_Gradient_Swatch_copy_35-3" x1="174.26" y1="43.72" x2="196.28" y2="159.81" xlink:href="#New_Gradient_Swatch_copy_35"/><linearGradient id="New_Gradient_Swatch_copy_36-3" x1="187.95" y1="160.57" x2="209.53" y2="10.65" xlink:href="#New_Gradient_Swatch_copy_36"/><linearGradient id="New_Gradient_Swatch_copy_35-4" x1="219.96" y1="108.9" x2="313.48" y2="54.59" xlink:href="#New_Gradient_Swatch_copy_35"/><linearGradient id="New_Gradient_Swatch_copy_35-5" x1="195.75" y1="100.13" x2="257.43" y2="38.66" xlink:href="#New_Gradient_Swatch_copy_35"/><linearGradient id="linear-gradient-14" x1="135.85" y1="99.41" x2="189.89" y2="87.3" xlink:href="#New_Gradient_Swatch_copy_7"/><linearGradient id="linear-gradient-15" x1="180.06" y1="60.85" x2="156.87" y2="90.16" xlink:href="#New_Gradient_Swatch_copy_7"/><linearGradient id="New_Gradient_Swatch_copy_36-4" x1="135.85" y1="99.41" x2="189.89" y2="87.3" xlink:href="#New_Gradient_Swatch_copy_36"/><linearGradient id="New_Gradient_Swatch_copy_35-6" x1="150.85" y1="88.47" x2="207.67" y2="100.32" xlink:href="#New_Gradient_Swatch_copy_35"/><linearGradient id="linear-gradient-17" x1="161.16" y1="85.27" x2="186.39" y2="117.35" xlink:href="#New_Gradient_Swatch_copy_7"/><linearGradient id="linear-gradient-19" x1="228.78" y1="72.3" x2="201.22" y2="127.57" xlink:href="#New_Gradient_Swatch_copy_7"/><linearGradient id="New_Gradient_Swatch_copy_36-5" x1="184.96" y1="127.34" x2="239" y2="115.23" xlink:href="#New_Gradient_Swatch_copy_36"/><linearGradient id="linear-gradient-21" x1="164.98" y1="74.24" x2="187.3" y2="66.65" xlink:href="#New_Gradient_Swatch_copy_7"/><linearGradient id="New_Gradient_Swatch_copy_36-6" x1="160.81" y1="78.41" x2="201.84" y2="69.21" xlink:href="#New_Gradient_Swatch_copy_36"/><linearGradient id="New_Gradient_Swatch_copy_36-7" x1="154.45" y1="116.26" x2="208.48" y2="104.14" xlink:href="#New_Gradient_Swatch_copy_36"/><linearGradient id="New_Gradient_Swatch_copy_36-8" x1="235.13" y1="120.43" x2="281.77" y2="106.47" xlink:href="#New_Gradient_Swatch_copy_36"/><linearGradient id="linear-gradient-22" x1="240.05" y1="84.28" x2="266.76" y2="76.28" xlink:href="#New_Gradient_Swatch_copy_7"/><linearGradient id="New_Gradient_Swatch_copy_36-9" x1="240.05" y1="84.28" x2="266.76" y2="76.28" xlink:href="#New_Gradient_Swatch_copy_36"/><linearGradient id="New_Gradient_Swatch_copy_36-10" x1="203.85" y1="135.23" x2="194.51" y2="26.72" xlink:href="#New_Gradient_Swatch_copy_36"/><linearGradient id="New_Gradient_Swatch_copy_35-7" x1="247.76" y1="144.11" x2="251.81" y2="153.19" xlink:href="#New_Gradient_Swatch_copy_35"/><linearGradient id="New_Gradient_Swatch_copy_35-8" x1="208.27" y1="69.85" x2="227.81" y2="156.33" xlink:href="#New_Gradient_Swatch_copy_35"/><linearGradient id="New_Gradient_Swatch_copy_35-9" x1="275.1" y1="79.95" x2="237.89" y2="150.87" xlink:href="#New_Gradient_Swatch_copy_35"/><linearGradient id="linear-gradient-23" x1="249.96" y1="111.89" x2="237.06" y2="119.77" gradientUnits="userSpaceOnUse"><stop offset="0.02" stop-color="#45108a"/><stop offset="0.29" stop-color="#3d065f"/><stop offset="1" stop-color="#12054e"/><stop offset="1" stop-color="#10054d"/></linearGradient><linearGradient id="linear-gradient-24" x1="220.46" y1="74.75" x2="204.27" y2="61.91" gradientUnits="userSpaceOnUse"><stop offset="0" stop-color="#fff"/><stop offset="1" stop-color="#bcbec0"/></linearGradient><linearGradient id="New_Gradient_Swatch_copy_35-10" x1="244.72" y1="109.15" x2="243.7" y2="151.44" xlink:href="#New_Gradient_Swatch_copy_35"/><linearGradient id="New_Gradient_Swatch_copy_7-2" x1="108.28" y1="151.78" x2="173.14" y2="151.78" xlink:href="#New_Gradient_Swatch_copy_7"/></defs><title>main-image_6</title><g class="cls-1"><g id="Capa_2" data-name="Capa 2"><g id="Layer_1" data-name="Layer 1"><ellipse class="cls-2" cx="194.67" cy="193.28" rx="194.67" ry="116.24"/><path class="cls-3" d="M314.55,203.17l-1.86-1.1a.54.54,0,0,1,.55-.93l1.86,1.1a.54.54,0,1,1-.55.93ZM310.83,201l-1.86-1.1a.54.54,0,1,1,.55-.93l1.86,1.1a.54.54,0,1,1-.55.93Zm-3.72-2.19-1.86-1.1a.54.54,0,1,1,.55-.93l1.86,1.1a.54.54,0,1,1-.55.93Zm-3.72-2.19-1.86-1.1a.54.54,0,0,1,.55-.93l1.86,1.1a.54.54,0,1,1-.55.93Zm-3.72-2.19-1.86-1.1a.54.54,0,1,1,.55-.93l1.86,1.1a.54.54,0,1,1-.55.93Zm-3.72-2.19-1.86-1.1a.54.54,0,1,1,.55-.93l1.86,1.1a.54.54,0,1,1-.55.93Z"/><path class="cls-3" d="M256.55,235.56l-1.86-1.1a.54.54,0,1,1,.55-.93l1.86,1.1a.54.54,0,1,1-.55.93Zm-3.72-2.19-1.86-1.1a.54.54,0,0,1,.55-.93l1.86,1.1a.54.54,0,0,1-.55.93Zm-3.72-2.19-1.86-1.1a.54.54,0,1,1,.55-.93l1.86,1.1a.54.54,0,0,1-.55.93ZM245.38,229l-1.86-1.1a.54.54,0,0,1,.55-.93l1.86,1.1a.54.54,0,1,1-.55.93Zm-3.72-2.19-1.86-1.1a.54.54,0,0,1,.55-.93l1.86,1.1a.54.54,0,1,1-.55.93Zm-3.72-2.19-1.86-1.1a.54.54,0,0,1,.55-.93l1.86,1.1a.54.54,0,1,1-.55.93Z"/><path class="cls-3" d="M203.08,266.65l-1.86-1.1a.54.54,0,1,1,.55-.93l1.86,1.1a.54.54,0,0,1-.55.93Zm-3.72-2.19-1.86-1.1a.54.54,0,0,1,.55-.93l1.86,1.1a.54.54,0,1,1-.55.93Zm-3.72-2.19-1.86-1.1a.54.54,0,0,1,.55-.93l1.86,1.1a.54.54,0,1,1-.55.93Zm-3.72-2.19-1.86-1.1a.54.54,0,0,1,.55-.93l1.86,1.1a.54.54,0,1,1-.55.93Zm-3.72-2.19-1.86-1.1a.54.54,0,0,1,.55-.93l1.86,1.1a.54.54,0,1,1-.55.93Zm-3.72-2.19-1.86-1.1a.54.54,0,1,1,.55-.93l1.86,1.1a.54.54,0,1,1-.55.93Z"/><g class="cls-4"><path class="cls-5" d="M263.93,154.48l-29.75,17.18-29.69-17.14,29.75-17.18,29.69,17.14Zm2.22,0-31.92-18.43-32,18.46,31.92,18.43,32-18.46Z"/><polygon class="cls-5" points="229.69 175.39 197.9 157.03 199.19 156.28 230.98 174.64 229.69 175.39"/><polygon class="cls-5" points="226 177.52 194.21 159.16 195.5 158.41 227.3 176.77 226 177.52"/><polygon class="cls-5" points="207.41 171.11 190.46 161.32 191.75 160.58 208.7 170.36 207.41 171.11"/><path class="cls-5" d="M305.12,178.26l-29.75,17.18L245.68,178.3l29.75-17.18,29.69,17.14Zm2.22,0-31.92-18.43-32,18.46,31.92,18.43,32-18.46Z"/><polygon class="cls-5" points="270.89 199.17 239.1 180.81 240.39 180.07 272.18 198.43 270.89 199.17"/><polygon class="cls-5" points="267.2 201.3 235.41 182.94 236.7 182.2 268.49 200.56 267.2 201.3"/><polygon class="cls-5" points="248.61 194.9 231.66 185.11 232.95 184.36 249.9 194.15 248.61 194.9"/><path class="cls-5" d="M208.6,186.42,178.85,203.6l-29.69-17.14,29.75-17.18,29.69,17.14Zm2.22,0L178.9,168l-32,18.46,31.92,18.43,32-18.46Z"/><polygon class="cls-5" points="174.37 207.33 142.57 188.97 143.87 188.23 175.66 206.58 174.37 207.33"/><polygon class="cls-5" points="170.68 209.46 138.89 191.1 140.18 190.35 171.97 208.71 170.68 209.46"/><polygon class="cls-5" points="152.09 203.05 135.14 193.27 136.43 192.52 153.38 202.31 152.09 203.05"/><path class="cls-5" d="M249.8,210.21,220,227.38l-29.69-17.14,29.75-17.18,29.69,17.14Zm2.22,0L220.1,191.78l-32,18.46,31.92,18.43,32-18.46Z"/><polygon class="cls-5" points="215.57 231.11 183.77 212.76 185.06 212.01 216.86 230.37 215.57 231.11"/><polygon class="cls-5" points="211.88 233.24 180.08 214.89 181.37 214.14 213.17 232.5 211.88 233.24"/><polygon class="cls-5" points="193.28 226.84 176.33 217.05 177.62 216.31 194.57 226.09 193.28 226.84"/><path class="cls-5" d="M153,218.5l-29.75,17.18L93.59,218.54l29.75-17.18L153,218.5Zm2.22,0-31.92-18.43-32,18.46L123.29,237l32-18.46Z"/><polygon class="cls-5" points="118.8 239.41 87 221.06 88.3 220.31 120.09 238.67 118.8 239.41"/><polygon class="cls-5" points="115.11 241.54 83.32 223.18 84.61 222.44 116.4 240.8 115.11 241.54"/><polygon class="cls-5" points="96.52 235.13 79.57 225.35 80.86 224.6 97.81 234.39 96.52 235.13"/><path class="cls-5" d="M194.23,242.29l-29.75,17.18-29.69-17.14,29.75-17.18,29.69,17.14Zm2.22,0-31.92-18.43-32,18.46,31.92,18.43,32-18.46Z"/><polygon class="cls-5" points="160 263.2 128.2 244.84 129.49 244.09 161.29 262.45 160 263.2"/><polygon class="cls-5" points="156.31 265.33 124.51 246.97 125.8 246.22 157.6 264.58 156.31 265.33"/><polygon class="cls-5" points="137.71 258.92 120.76 249.13 122.05 248.39 139 258.18 137.71 258.92"/><path class="cls-5" d="M250.55,122.5l10.87,6.28a1.79,1.79,0,0,0,1.62,0,.49.49,0,0,0,0-.94l-10.87-6.28a1.79,1.79,0,0,0-1.62,0A.49.49,0,0,0,250.55,122.5Zm9.76,6.92-10.87-6.28a1.79,1.79,0,0,0-1.62,0,.49.49,0,0,0,0,.94l10.87,6.28a1.79,1.79,0,0,0,1.62,0A.49.49,0,0,0,260.31,129.42ZM257.59,131l-10.87-6.28a1.79,1.79,0,0,0-1.62,0,.49.49,0,0,0,0,.94L256,131.93a1.79,1.79,0,0,0,1.62,0A.49.49,0,0,0,257.59,131Z"/><path class="cls-5" d="M138,278.68,60.31,233.82c-5.12-3-5.14-7.75-.06-10.68L243.19,117.52c5.08-2.94,13.38-2.92,18.5,0l77.69,44.86c5.12,3,5.14,7.75.06,10.68L156.5,278.71C151.42,281.65,143.12,281.63,138,278.68ZM261,118c-4.71-2.72-12.34-2.73-17,0L61,223.57c-4.68,2.7-4.65,7.11.05,9.83l77.69,44.86c4.71,2.72,12.34,2.73,17,0L338.7,172.66c4.68-2.7,4.65-7.11-.05-9.83Z"/><ellipse class="cls-5" cx="323.81" cy="167.76" rx="0.6" ry="1.05" transform="translate(155.47 491.27) rotate(-89.9)"/><path class="cls-5" d="M323.26,162.93h-.17v.6h.17c4.33,0,7.86,2,7.87,4.55v0h1v0C332.17,165.25,328.17,162.93,323.26,162.93Z"/><path class="cls-5" d="M323.28,165.34h-.17v.6h.17c2,0,3.67,1,3.67,2.12h1v0C328,166.57,325.87,165.35,323.28,165.34Z"/><path class="cls-5" d="M323.27,164.13h-.17v.6h.17c3.17,0,5.76,1.5,5.77,3.33v0h1v0C330.08,165.91,327,164.14,323.27,164.13Z"/><polygon class="cls-5" points="303.06 156.63 271.7 138.53 273.73 137.35 305.09 155.46 303.06 156.63"/></g><g class="cls-6"><path class="cls-7" d="M128.87,264.29a28.46,28.46,0,0,0,14.21-3.42L341,146.94c5.18-3,8.15-7.72,8.15-13,0-5.77-3.58-11.14-9.82-14.74L254,69.92a35,35,0,0,0-17.25-4.39A28.46,28.46,0,0,0,222.51,69L24.58,182.89c-5.18,3-8.15,7.72-8.15,13,0,5.77,3.58,11.14,9.81,14.74l85.38,49.29A35,35,0,0,0,128.87,264.29Z"/><path class="cls-8" d="M222.67,69.3,24.74,183.23c-5,2.87-7.8,7.39-7.77,12.39,0,5.46,3.45,10.58,9.44,14l81.54,47.08c.13.08,4.12,2.35,4.27,2.4A34,34,0,0,0,129.57,263a30.48,30.48,0,0,0,14-3.74L340.42,146c5-2.87,7.8-7.39,7.77-12.39,0-5.46-3.45-10.58-9.44-14l-84.87-49a35.46,35.46,0,0,0-6.29-2.8A36.71,36.71,0,0,0,236.81,66,27.85,27.85,0,0,0,222.67,69.3Z"/><path class="cls-9" d="M222.83,69.64,24.9,183.57c-4.77,2.76-7.44,7.05-7.39,11.79,0,5.16,3.32,10,9.06,13.33L108.48,256c.26.15,4,2.27,4.31,2.36a33.07,33.07,0,0,0,17.47,3.39c4.43,0,10.63-2.23,13.81-4.06L339.83,145c4.77-2.76,7.44-7.05,7.39-11.79,0-5.16-3.32-10-9.06-13.33L253.8,71.19a40.62,40.62,0,0,0-6.22-2.84,36.52,36.52,0,0,0-10.69-1.9A27.26,27.26,0,0,0,222.83,69.64Z"/><path class="cls-10" d="M223,70,25.05,183.91c-4.57,2.64-7.08,6.71-7,11.19.07,4.86,3.2,9.45,8.68,12.62L109,255.24c.39.23,3.9,2.19,4.36,2.33a32.06,32.06,0,0,0,17.58,2.9c3.94,0,10.78-2.75,13.61-4.38L339.23,144c4.57-2.64,7.08-6.71,7-11.19-.07-4.86-3.2-9.46-8.68-12.62L253.72,71.82a47.27,47.27,0,0,0-6.15-2.89,36.33,36.33,0,0,0-10.59-2A26.69,26.69,0,0,0,223,70Z"/><path class="cls-11" d="M223.15,70.32,25.21,184.25c-4.37,2.52-6.73,6.38-6.63,10.6.1,4.56,3.07,8.89,8.3,11.91l82.69,47.74c.52.3,3.79,2.1,4.4,2.29a31.06,31.06,0,0,0,17.69,2.4c3.44,0,10.94-3.27,13.41-4.69L338.64,143.08c4.37-2.52,6.73-6.38,6.63-10.6-.1-4.56-3.07-8.89-8.3-11.91L253.64,72.46a56.07,56.07,0,0,0-6.09-2.93,36.13,36.13,0,0,0-10.49-2.16A26.12,26.12,0,0,0,223.15,70.32Z"/><path class="cls-12" d="M223.31,70.66,25.37,184.59c-4.16,2.4-6.37,6-6.25,10,.12,4.26,2.94,8.33,7.92,11.21l83.07,48a47.08,47.08,0,0,0,4.45,2.25,30.06,30.06,0,0,0,17.8,1.91c3,0,11.09-3.79,13.21-5L338,142.12c4.16-2.4,6.37-6,6.25-10-.12-4.26-2.94-8.33-7.92-11.21L253.55,73.1c-1.06-.61-4.8-2.53-6-3a35.93,35.93,0,0,0-10.38-2.29C232,67.57,227,68.53,223.31,70.66Z"/><path class="cls-13" d="M223.47,71,25.53,184.93c-4,2.29-6,5.7-5.87,9.4.15,4,2.81,7.77,7.54,10.5L110.65,253a39.68,39.68,0,0,0,4.49,2.21,29.08,29.08,0,0,0,17.91,1.41c2.46,0,11.24-4.31,13-5.33L337.45,141.16c4-2.29,6-5.7,5.87-9.4-.15-4-2.81-7.77-7.54-10.5L253.47,73.73c-.89-.51-4.94-2.64-6-3a35.74,35.74,0,0,0-10.28-2.42C232.09,68,227.13,68.89,223.47,71Z"/><path class="cls-14" d="M223.63,71.34,25.69,185.28c-3.75,2.17-5.66,5.37-5.49,8.8.17,3.65,2.69,7.21,7.16,9.79l83.84,48.41a34.41,34.41,0,0,0,4.54,2.18c5.8,2.27,12.77,2.64,18,.92,2,0,11.4-4.83,12.81-5.64L336.86,140.2c3.75-2.17,5.66-5.37,5.49-8.8-.17-3.65-2.69-7.21-7.16-9.79L253.39,74.37c-.71-.41-5.08-2.75-5.88-3.06a35.54,35.54,0,0,0-10.18-2.55C232.22,68.38,227.25,69.25,223.63,71.34Z"/><path class="cls-15" d="M223.78,71.69,25.85,185.62c-3.55,2-5.31,5-5.12,8.21.2,3.35,2.56,6.65,6.78,9.09l84.23,48.63a30.47,30.47,0,0,0,4.58,2.14c5.92,2.19,13,2.39,18.13.42,1.48,0,11.55-5.35,12.61-6l189.2-108.91c3.55-2,5.31-5,5.12-8.21-.2-3.35-2.56-6.65-6.78-9.09L253.3,75c-.53-.31-5.21-2.87-5.82-3.11a35.34,35.34,0,0,0-10.08-2.69C232.35,68.79,227.37,69.61,223.78,71.69Z"/><path class="cls-16" d="M223.94,72,26,186c-3.35,1.93-5,4.69-4.74,7.61s2.43,6.09,6.4,8.38l84.61,48.85a27.42,27.42,0,0,0,4.62,2.1c6.05,2.11,13.27,2.14,18.25-.07,1,0,11.7-5.87,12.41-6.28L335.67,138.27c3.35-1.93,5-4.69,4.74-7.61s-2.43-6.09-6.4-8.38L253.22,75.64c-.35-.2-5.35-3-5.75-3.15a35.14,35.14,0,0,0-10-2.82C232.48,69.2,227.5,70,223.94,72Z"/><path class="cls-17" d="M224.1,72.37,26.17,186.3c-3.14,1.81-4.6,4.36-4.36,7s2.3,5.53,6,7.67l85,49.07a25,25,0,0,0,4.67,2.06c6.18,2,13.52,1.9,18.36-.57.49,0,11.85-6.39,12.21-6.59l187-107.65c3.14-1.81,4.6-4.36,4.36-7s-2.3-5.53-6-7.67L253.13,76.27c-.18-.1-5.48-3.11-5.68-3.2a35,35,0,0,0-9.87-2.95C232.61,69.61,227.62,70.34,224.1,72.37Z"/><path d="M136.55,250.28,334.48,136.34c5.94-3.43,5.2-9.42-1.66-13.38L247.44,73.67c-6.86-4-17.24-4.39-23.18-1L26.33,186.64c-5.94,3.43-5.2,9.42,1.66,13.38l85.38,49.29C120.23,253.28,130.6,253.71,136.55,250.28Z"/></g><path class="cls-18" d="M109,229.4,29.22,183.31c-9-5.2-7.87-14.28,2.52-20.28L219.44,54.66c10.4-6,26.12-6.65,35.13-1.46l79.82,46.08c9,5.2,7.87,14.28-2.52,20.28L144.17,227.94C133.77,233.94,118,234.59,109,229.4Z"/><path class="cls-19" d="M109,228,29.22,181.94c-4-2.32-6-5.42-6.08-8.67,0-.29,0-6.55,0-6.83.33-3.76,3.23-1.69,8.57-4.78L219.44,53.3c10.4-6,26.12-6.65,35.13-1.46l79.82,46.08c4,2.32,6-1.76,6.08,1.49,0,.28,0,7.75,0,8-.32,3.77-3.22,7.68-8.57,10.76L144.17,226.57C133.77,232.57,118,233.23,109,228Z"/><path class="cls-20" d="M109,221.19,29.22,175.1c-9-5.2-7.87-14.28,2.52-20.28L219.44,46.46c10.4-6,26.12-6.65,35.13-1.46l79.82,46.08c9,5.2,7.87,14.28-2.52,20.28L144.17,219.73C133.77,225.73,118,226.39,109,221.19Z"/><path class="cls-21" d="M29.22,174.21,109,220.29c9,5.2,24.73,4.55,35.13-1.46L331.87,110.47c5.47-3.16,8.37-7.17,8.58-11,.23,4.12-2.68,8.51-8.58,11.92L144.17,219.73c-10.4,6-26.12,6.65-35.13,1.46L29.22,175.1c-4.26-2.46-6.25-5.8-6.06-9.26C23.33,169,25.33,172,29.22,174.21Z"/><path class="cls-22" d="M33.85,156.17,221.77,47.67c9.11-5.26,22.9-5.83,30.79-1.28L332,92.24c7.89,4.56,6.9,12.52-2.21,17.78L141.83,218.51c-9.11,5.26-22.9,5.83-30.79,1.28l-79.4-45.84C23.75,169.39,24.74,161.43,33.85,156.17Z"/><path class="cls-23" d="M37.5,157.74l187-108c7.63-4.4,19.17-4.88,25.78-1.07L328,93.57c6.61,3.81,5.78,10.48-1.85,14.88l-187,108c-7.63,4.4-19.17,4.88-25.78,1.07l-77.7-44.86C29,168.8,29.87,162.14,37.5,157.74Z"/><path class="cls-24" d="M249.58,50.14c-6.23-3.59-16.29-3.61-22.48,0l-189,109.15c-6.19,3.57-6.16,9.38.07,13L114,216c6.23,3.59,16.29,3.61,22.48,0l189-109.15c6.19-3.57,6.16-9.38-.07-13Z"/><path class="cls-25" d="M125.33,217.22a21.18,21.18,0,0,0,10.41-2.46l189-109.15c2.48-1.43,3.85-3.25,3.85-5.12s-1.39-3.73-3.92-5.19l-75.9-43.82A21.42,21.42,0,0,0,238.28,49a21.18,21.18,0,0,0-10.4,2.46l-189,109.15C36.34,162,35,163.83,35,165.7s1.39,3.73,3.92,5.19l75.9,43.82A21.43,21.43,0,0,0,125.33,217.22Z"/><path class="cls-26" d="M296.42,137.82l8.7-5a4.71,4.71,0,0,0,2-3.76h0c0-1.45-.88-2.11-2-1.49l-8.7,5a4.71,4.71,0,0,0-2,3.76h0C294.45,137.79,295.33,138.45,296.42,137.82Z"/><path class="cls-27" d="M296.42,137.82l8.7-5a4.71,4.71,0,0,0,2-3.76h0c0-1.45-.88-2.11-2-1.49l-8.7,5a4.71,4.71,0,0,0-2,3.76h0C294.45,137.79,295.33,138.45,296.42,137.82Z"/><path class="cls-28" d="M295.63,137.55a1.09,1.09,0,0,0,.52-.17l8.7-5a4.22,4.22,0,0,0,1.71-3.31c0-.56-.18-1.21-.67-1.21a1.09,1.09,0,0,0-.52.17l-8.7,5a4.22,4.22,0,0,0-1.71,3.31C295,136.9,295.14,137.55,295.63,137.55Z"/><path class="cls-29" d="M280.88,146.79l8.7-5a4.71,4.71,0,0,0,2-3.76h0c0-1.45-.88-2.11-2-1.49l-8.7,5a4.71,4.71,0,0,0-2,3.76h0C278.92,146.75,279.8,147.42,280.88,146.79Z"/><path class="cls-30" d="M280.88,146.79l8.7-5a4.71,4.71,0,0,0,2-3.76h0c0-1.45-.88-2.11-2-1.49l-8.7,5a4.71,4.71,0,0,0-2,3.76h0C278.92,146.75,279.8,147.42,280.88,146.79Z"/><path class="cls-31" d="M280.1,146.52a1.09,1.09,0,0,0,.52-.17l8.7-5A4.22,4.22,0,0,0,291,138c0-.56-.18-1.21-.67-1.21a1.09,1.09,0,0,0-.52.17l-8.7,5a4.22,4.22,0,0,0-1.71,3.31C279.43,145.86,279.61,146.52,280.1,146.52Z"/><path class="cls-32" d="M205.06,184.73,331.87,111.2c5.35-3.09,8.25-7,8.57-10.76,0-.13,0-1.65,0-3.33,0,0,0,7.83,0,8.12-.32,3.77-3.22,7.68-8.57,10.76Z"/><ellipse class="cls-33" cx="266.42" cy="148.61" rx="57.21" ry="37.98" transform="translate(-36.69 114.11) rotate(-22.66)"/><ellipse class="cls-34" cx="129.02" cy="227.4" rx="19.76" ry="29.77" transform="translate(-130.35 260.3) rotate(-67.66)"/><path class="cls-35" d="M81.08,179.88l-24.31-14c-2.4-1.39-2.1-3.81.67-5.41L80.2,147.29c2.77-1.6,7-1.78,9.37-.39l24.31,14c2.4,1.39,2.1,3.81-.67,5.41L90.45,179.49C87.68,181.1,83.48,181.27,81.08,179.88Z"/><path class="cls-36" d="M113.21,165.5,90.45,178.64c-2.77,1.6-7,1.78-9.37.39L56.77,165a3,3,0,0,1-1.57-1.89,2.64,2.64,0,0,0,1.57,2.75l24.31,14c2.4,1.39,6.6,1.21,9.37-.39l22.76-13.14c1.74-1,2.5-2.33,2.24-3.52A4.16,4.16,0,0,1,113.21,165.5Z"/><path d="M61.83,200.22l14.29,8.25h0c0-2.61-1.59-5.64-3.54-6.77l-7.2-4.16c-2-1.13-3.54.07-3.54,2.68Z"/><path class="cls-37" d="M139.74,179.75a19.2,19.2,0,0,0-14.43-.12c-3.19,1.4-4.92,3.6-4.64,5.9a2.89,2.89,0,0,1-1.73,2.75l-1.73,1c-.92.53-1.07,1.33-.49,2l-1.69,1a1.13,1.13,0,0,0,0,2.13l1.37.79a4.09,4.09,0,0,0,3.69,0l1.69-1a4.58,4.58,0,0,0,3.41-.28l1.73-1a9.28,9.28,0,0,1,4.87-1,17.35,17.35,0,0,0,9-2C145.76,187.1,145.4,182.33,139.74,179.75Zm-7.87,11.42a11.3,11.3,0,0,0-5.85,1.21l-1.73,1a2.53,2.53,0,0,1-2.28,0l-1.38-.8,8-4.6h4.73a.74.74,0,0,0,.59-.23c.1-.14,0-.3-.14-.4l-5.23-3a1,1,0,0,0-.7-.08c-.24.06-.4.19-.39.34l0,3L119.72,192l-1.59-.92a.7.7,0,0,1,0-1.32l1.73-1c1.49-.86,2.25-2.07,2.1-3.33-.25-2,1.3-4,4.14-5.26a17.11,17.11,0,0,1,12.85.1q.5.23.94.48c4.12,2.38,4.14,6.24,0,8.6A15.46,15.46,0,0,1,131.87,191.17Z"/><path class="cls-37" d="M128.44,206.14a8.81,8.81,0,0,1-4.32-1l-24.31-14a3.27,3.27,0,0,1-1.87-2.78c0-1.29.93-2.56,2.54-3.5l22.76-13.14a11.41,11.41,0,0,1,5.55-1.39,8.81,8.81,0,0,1,4.32,1l24.31,14a3.28,3.28,0,0,1,1.87,2.78c0,1.29-.93,2.56-2.54,3.49L134,204.75A11.42,11.42,0,0,1,128.44,206.14Zm.35-34.85a10.39,10.39,0,0,0-5.05,1.26L101,185.69c-1.3.75-2,1.71-2,2.63a2.3,2.3,0,0,0,1.37,1.92l24.31,14a7.81,7.81,0,0,0,3.82.87,10.4,10.4,0,0,0,5.05-1.26l22.76-13.14c1.3-.75,2-1.71,2-2.63a2.33,2.33,0,0,0-1.37-1.92l-24.31-14A7.81,7.81,0,0,0,128.79,171.29Z"/><path class="cls-38" d="M87.93,160.5a.5.5,0,0,1-.5-.5v-.12a.5.5,0,1,1,1,0V160A.5.5,0,0,1,87.93,160.5Zm0-2.12a.5.5,0,0,1-.5-.5v-2a.5.5,0,1,1,1,0v2A.5.5,0,0,1,87.93,158.38Zm0-4a.5.5,0,0,1-.5-.5v-2a.5.5,0,1,1,1,0v2A.5.5,0,0,1,87.93,154.38Zm0-4a.5.5,0,0,1-.5-.5v-2a.5.5,0,1,1,1,0v2A.5.5,0,0,1,87.93,150.38Zm0-4a.5.5,0,0,1-.5-.5v-2a.5.5,0,1,1,1,0v2A.5.5,0,0,1,87.93,146.38Zm0-4a.5.5,0,0,1-.5-.5v-2a.5.5,0,1,1,1,0v2A.5.5,0,0,1,87.93,142.38Zm0-4a.5.5,0,0,1-.5-.5v-2a.5.5,0,1,1,1,0v2A.5.5,0,0,1,87.93,138.38Zm0-4a.5.5,0,0,1-.5-.5v-2a.5.5,0,1,1,1,0v2A.5.5,0,0,1,87.93,134.38Zm0-4a.5.5,0,0,1-.5-.5v-2a.5.5,0,1,1,1,0v2A.5.5,0,0,1,87.93,130.38Zm0-4a.5.5,0,0,1-.5-.5v-2a.5.5,0,1,1,1,0v2A.5.5,0,0,1,87.93,126.38Zm0-4a.5.5,0,0,1-.5-.5v-2a.5.5,0,1,1,1,0v2A.5.5,0,0,1,87.93,122.38Zm0-4a.5.5,0,0,1-.5-.5v-2a.5.5,0,1,1,1,0v2A.5.5,0,0,1,87.93,118.38Zm0-4a.5.5,0,0,1-.5-.5v-2a.5.5,0,1,1,1,0v2A.5.5,0,0,1,87.93,114.38Zm0-4a.5.5,0,0,1-.5-.5v-2a.5.5,0,1,1,1,0v2A.5.5,0,0,1,87.93,110.38Zm0-4a.5.5,0,0,1-.5-.5v-2a.5.5,0,1,1,1,0v2A.5.5,0,0,1,87.93,106.38Zm0-4a.5.5,0,0,1-.5-.5v-2a.5.5,0,1,1,1,0v2A.5.5,0,0,1,87.93,102.38Z"/><circle class="cls-39" cx="87.93" cy="161.17" r="10.8"/><polygon class="cls-40" points="148.14 106.58 167.26 117.52 167.39 123.72 192.77 138.48 229.24 152.96 298.95 136.34 292.82 133.49 317.54 96.52 241.63 50.8 148.14 106.58"/><polygon class="cls-41" points="190.54 17.71 264.33 60.64 306.75 66.7 232.92 24.62 190.54 17.71"/><polygon class="cls-42" points="264.31 60.64 264.31 133.06 271.93 128.75 271.94 127.16 299.06 111.11 300.71 111.72 306.75 108.14 306.75 66.7 264.31 60.64"/><polygon class="cls-43" points="264.33 60.64 264.33 133.06 190.54 90.1 190.54 17.71 264.33 60.64"/><polygon class="cls-44" points="270.19 91.6 302.48 72.2 302.48 110.67 300.71 111.72 299.06 111.11 271.94 127.16 271.93 128.75 270.19 129.78 270.19 91.6"/><polygon class="cls-45" points="299.06 111.11 299.06 76.3 271.94 92.59 271.94 127.16 299.06 111.11"/><polygon class="cls-46" points="299.06 78.95 299.06 76.3 271.94 92.59 271.94 95 299.06 78.95"/><polygon class="cls-46" points="299.06 79.46 299.06 78.05 271.94 94.34 271.94 95.51 299.06 79.46"/><polygon class="cls-46" points="299.06 82.2 299.06 80.79 271.94 97.08 271.94 98.25 299.06 82.2"/><polygon class="cls-46" points="299.06 84.95 299.06 83.54 271.94 99.83 271.94 101 299.06 84.95"/><polygon class="cls-46" points="299.06 87.69 299.06 86.28 271.94 102.57 271.94 103.74 299.06 87.69"/><polygon class="cls-46" points="299.06 90.44 299.06 89.03 271.94 105.32 271.94 106.49 299.06 90.44"/><polygon class="cls-46" points="299.06 93.18 299.06 91.77 271.94 108.06 271.94 109.23 299.06 93.18"/><polygon class="cls-46" points="299.06 95.93 299.06 94.52 271.94 110.81 271.94 111.98 299.06 95.93"/><polygon class="cls-46" points="299.06 98.67 299.06 97.26 271.94 113.55 271.94 114.72 299.06 98.67"/><polygon class="cls-46" points="299.06 101.42 299.06 100 271.94 116.29 271.94 117.46 299.06 101.42"/><polygon class="cls-46" points="299.06 104.16 299.06 102.75 271.94 119.04 271.94 120.21 299.06 104.16"/><polygon class="cls-46" points="299.06 106.9 299.06 105.49 271.94 121.78 271.94 122.95 299.06 106.9"/><polygon class="cls-46" points="299.06 109.65 299.06 108.24 271.94 124.53 271.94 125.7 299.06 109.65"/><polygon class="cls-47" points="223.65 103.56 223.65 149.67 148.14 106.58 148.14 60.2 223.65 103.56"/><polygon class="cls-48" points="223.65 103.99 259.06 43.09 183.55 0 148.14 60.64 223.65 103.99"/><polygon class="cls-49" points="153.43 109.39 153.43 68.98 169.55 78.44 169.55 118.77 153.43 109.39"/><polygon class="cls-44" points="167.8 79.44 167.8 115.73 155.18 108.39 155.18 72.04 167.8 79.44"/><polygon class="cls-50" points="223.65 149.67 223.65 103.99 258.9 42.63 258.9 129.94 223.65 149.67"/><polygon class="cls-51" points="225.39 46.45 192.77 65.53 192.77 138.48 198.08 135.37 198.08 89.21 225.39 46.45"/><polygon class="Graphic-Style-184" points="156.78 107.58 167.8 113.99 167.8 79.44 156.78 72.98 156.78 107.58"/><polygon class="cls-52" points="156.78 107.58 167.8 79.44 156.78 72.98 156.78 107.58"/><path class="cls-53" d="M156.78,73v34.6l11,6.41V79.44Zm10.14,39.49-9.27-5.39V74.51l9.27,5.43Z"/><polygon class="cls-54" points="192.77 65.53 192.77 138.48 167.39 123.72 167.39 50.65 192.77 65.53"/><polygon class="cls-49" points="172.02 126.23 172.02 85.83 188.14 95.28 188.14 135.62 172.02 126.23"/><polygon class="cls-44" points="186.39 96.28 186.39 132.57 173.77 125.23 173.77 88.88 186.39 96.28"/><polygon class="cls-49" points="202.54 137.32 202.54 96.91 218.66 106.36 218.66 146.7 202.54 137.32"/><polygon class="cls-44" points="216.91 107.37 216.91 143.66 204.29 136.31 204.29 99.97 216.91 107.37"/><polygon class="cls-49" points="172.02 80.52 172.02 58.7 188.14 68.16 188.14 89.9 172.02 80.52"/><polygon class="cls-44" points="186.39 69.16 186.39 86.86 173.77 79.51 173.77 61.76 186.39 69.16"/><polygon class="Graphic-Style-184" points="175.38 124.43 186.39 130.84 186.39 96.28 175.38 89.82 175.38 124.43"/><polygon class="cls-55" points="175.38 124.43 186.39 96.28 175.38 89.82 175.38 124.43"/><polygon class="Graphic-Style-184" points="205.89 135.51 216.91 141.92 216.91 107.37 205.89 100.91 205.89 135.51"/><polygon class="cls-56" points="205.89 135.51 216.91 107.37 205.89 100.91 205.89 135.51"/><polygon class="Graphic-Style-184" points="175.38 78.71 186.39 85.12 186.39 69.16 175.38 62.7 175.38 78.71"/><path class="cls-57" d="M205.89,100.91v34.6l11,6.41V107.37ZM216,140.4,206.77,135V102.43l9.27,5.43Z"/><polygon class="cls-58" points="175.38 78.71 186.39 69.16 175.38 62.7 175.38 78.71"/><path class="cls-59" d="M175.37,62.7v16l11,6.41v-16Zm10.14,20.9-9.27-5.39v-14l9.27,5.43Z"/><path class="cls-60" d="M175.37,89.82v34.6l11,6.41V96.28Zm10.14,39.49-9.27-5.39V91.35l9.27,5.43Z"/><polygon class="cls-44" points="233.1 99.15 235.87 97.56 252.12 88.1 252.12 64.51 233.1 99.15"/><polygon class="cls-49" points="237.75 94.44 250.37 87.1 250.37 71.53 237.75 94.44"/><polygon class="cls-44" points="233.39 103.95 252.12 93.23 252.12 133.64 233.39 144.28 233.39 103.95"/><polygon class="cls-49" points="235.15 104.95 235.15 141.24 250.37 132.63 250.37 96.29 235.15 104.95"/><polygon class="cls-61" points="248.91 131.83 248.91 97.14 235.15 104.95 235.15 139.59 248.91 131.83"/><path class="cls-46" d="M235.14,105v34.64l13.77-7.76V97.14ZM248,131.32l-12,6.78V105.46l12-6.82Z"/><polygon class="Graphic-Style-183" points="248.91 74.18 239.09 92.01 248.91 86.3 248.91 74.18"/><path class="cls-62" d="M239.09,92l9.83-5.72V74.18Zm9-6.22-6.66,3.87L248,77.58Z"/><polygon class="cls-63" points="192.77 65.53 225.39 46.45 200.01 31.69 167.39 50.65 192.77 65.53"/><polygon class="cls-64" points="229.23 150.83 229.23 152.96 264.36 133.03 264.36 130.9 229.23 150.83"/><polygon class="cls-65" points="229.24 150.83 229.24 152.96 223.63 149.67 223.63 147.56 229.24 150.83"/><polygon class="cls-66" points="223.63 147.56 229.24 150.83 264.36 130.9 258.89 127.72 223.63 147.56"/><path class="cls-67" d="M238.32,119a2,2,0,0,1-.9,1.55c-.5.29-.9.06-.9-.51a2,2,0,0,1,.9-1.55C237.92,118.23,238.32,118.46,238.32,119Z"/><polygon class="cls-68" points="198.08 89.21 225.39 46.45 205.76 93.61 198.08 89.21"/><polygon class="cls-69" points="223.63 147.56 264.36 130.9 258.89 127.72 223.63 147.56"/><polygon class="cls-49" points="299.06 76.3 299.06 111.11 300.71 111.72 300.71 75.41 299.06 76.3"/><path class="cls-37" d="M230.32,212.19l-13-7.53L206,211.2l13,7.53ZM219,217.88l-11.56-6.68,9.85-5.69,11.56,6.68Zm18.59-9.12-14.36-8.29a5.82,5.82,0,0,0-5.25,0l-17.79,10.27,19.63,11.34L237.6,211.8C239,211,239,209.6,237.59,208.76Zm-17.78,12.46-18.16-10.49,15.07-8.7,18.16,10.49Zm15.8-9.12-18.16-10.49,1.26-.73a4.19,4.19,0,0,1,3.79,0l14.36,8.29a1.15,1.15,0,0,1,0,2.19Zm-1.66-3.52a1.76,1.76,0,0,0-1.59,0,.49.49,0,0,0,0,.92,1.76,1.76,0,0,0,1.59,0A.49.49,0,0,0,233.95,208.57Zm-3.47-2a1.76,1.76,0,0,0-1.59,0,.49.49,0,0,0,0,.92,1.76,1.76,0,0,0,1.59,0A.49.49,0,0,0,230.48,206.57Zm-3.47-2a1.76,1.76,0,0,0-1.59,0,.49.49,0,0,0,0,.92,1.76,1.76,0,0,0,1.59,0A.49.49,0,0,0,227,204.57Zm-3.47-2a1.76,1.76,0,0,0-1.59,0,.49.49,0,0,0,0,.92,1.76,1.76,0,0,0,1.59,0A.49.49,0,0,0,223.55,202.57Z"/><path class="cls-37" d="M173.4,247.49l2.95-1.7c1.39-.8,1.38-2.11,0-2.91l-12.8-7.39a5.58,5.58,0,0,0-5,0l-2.95,1.7a6.28,6.28,0,0,0-3.92.6l-6.8,3.93.7.4,3-1.72,19.35,11.17-3,1.72.7.4,6.8-3.93C173.43,249.14,173.76,248.27,173.4,247.49Zm-14.21-11.61a4,4,0,0,1,3.65,0l12.8,7.39a1.11,1.11,0,0,1,0,2.11L173,246.92a3,3,0,0,0-.64-.5l-.24-.14.54-.31a1.12,1.12,0,0,0,0-2.12L169,241.75a4.13,4.13,0,0,0-3.1-.25c.55-.57.41-1.3-.43-1.79l-3.63-2.09a4.07,4.07,0,0,0-3.68,0l-.54.31-.24-.14a4.68,4.68,0,0,0-.86-.37Zm5.06,5.87-5.92-3.42.54-.31a2.53,2.53,0,0,1,2.29,0l3.63,2.09a.7.7,0,0,1,0,1.32Zm7.16,4.13-5.92-3.42.54-.31a2.53,2.53,0,0,1,2.29,0l3.63,2.09a.7.7,0,0,1,0,1.32ZM149.19,240l3.13-1.81a4.85,4.85,0,0,1,4.38,0l15,8.64a1.34,1.34,0,0,1,0,2.53l-3.13,1.81Z"/><path class="cls-37" d="M288.64,181.23l-1.07-8.09c-.13-1-1.66-1.9-3.43-2l-14-.61a5.44,5.44,0,0,0-2.88.61l-11.47,6.62,20.32,11.73,11.47-6.62A1.75,1.75,0,0,0,288.64,181.23Zm-6.51.69-13.2-7.62.92-.53,13.2,7.62Zm-13.88-7.22,13.2,7.62-8.22,4.75L260,179.45Zm7.85,14-2.19-1.26,10.51-6.07L269.85,173,259.33,179l-2.19-1.26,10.79-6.23a4,4,0,0,1,2.12-.45l14,.61c1.3.06,2.43.71,2.53,1.46l1.07,8.09a1.29,1.29,0,0,1-.79,1.23Z"/><path class="cls-37" d="M321.27,210.71A6.28,6.28,0,0,1,318,210a2.7,2.7,0,0,1-1-1,1.8,1.8,0,0,1-.24-1.11,2.25,2.25,0,0,1,.47-1.1,3.64,3.64,0,0,1,1.11-1,6.54,6.54,0,0,1,1.67-.66,8.68,8.68,0,0,1,1.89-.26,8,8,0,0,1,1.9.16,5.59,5.59,0,0,1,1.67.62,2.81,2.81,0,0,1,1.31,1.27,1.45,1.45,0,0,1-.1,1.27l-1.21-.13a1.1,1.1,0,0,0,.07-1.05,2.2,2.2,0,0,0-.92-.89,3.9,3.9,0,0,0-1.26-.45,6,6,0,0,0-1.42-.08,6.69,6.69,0,0,0-1.41.24,5.5,5.5,0,0,0-1.25.52,3.1,3.1,0,0,0-.91.75,1.72,1.72,0,0,0-.38.84,1.25,1.25,0,0,0,.19.83,2.12,2.12,0,0,0,.79.72,6,6,0,0,0,3.32.59l1-.58-1.59-.92.7-.4,2.37,1.37-3.65,2.11-.79-.46Z"/><path class="cls-37" d="M323.89,213.48a2,2,0,0,1-.59-.49,1,1,0,0,1-.22-.54.85.85,0,0,1,.15-.53,1.48,1.48,0,0,1,.52-.46,2.5,2.5,0,0,1,.84-.29,3.72,3.72,0,0,1,1,0,5.3,5.3,0,0,1,1.06.22,5.32,5.32,0,0,1,1.77,1,3.17,3.17,0,0,1,.52.53l.43-.25q.66-.38.66-.81c0-.29-.23-.56-.68-.83a6,6,0,0,0-2.35-.63l.29-.51a7.26,7.26,0,0,1,2.81.81q1.07.62,1.1,1.29t-1,1.27L328,214.45c-.21.12-.23.24,0,.36l-.78.45-.27-.12-.21-.11c-.18-.1-.27-.22-.27-.34a.42.42,0,0,1,.19-.33l.36-.23a5.55,5.55,0,0,1-1.65-.11A4.91,4.91,0,0,1,323.89,213.48Zm.92-.25a4,4,0,0,0,1.09.42,3.61,3.61,0,0,0,1.12.09,1.23,1.23,0,0,0,.6-.12l.79-.46a3.75,3.75,0,0,0-1.12-.94,3.59,3.59,0,0,0-1.4-.48,1.89,1.89,0,0,0-1.18.19,1,1,0,0,0-.34.29.52.52,0,0,0-.09.34.67.67,0,0,0,.15.35A1.32,1.32,0,0,0,324.81,213.23Z"/><path class="cls-37" d="M336,215.09a4.44,4.44,0,0,0-1.56-.5,4.23,4.23,0,0,0-1.66.1l-3.32,1.91-.91-.53L334,213l.85.49-1.25.72a6.07,6.07,0,0,1,1.64-.1,3.75,3.75,0,0,1,1.36.34l.18.1.11.08Z"/><path class="cls-37" d="M333.91,219.27a2,2,0,0,1-.59-.49,1,1,0,0,1-.22-.54.86.86,0,0,1,.15-.53,1.48,1.48,0,0,1,.52-.46,2.46,2.46,0,0,1,.84-.29,3.73,3.73,0,0,1,1,0,5.22,5.22,0,0,1,1.06.22,5.1,5.1,0,0,1,1,.46,5.32,5.32,0,0,1,.73.5,3.14,3.14,0,0,1,.52.53l.43-.25q.66-.38.66-.81t-.68-.83a6,6,0,0,0-2.35-.63l.29-.51a7.32,7.32,0,0,1,2.81.81q1.07.62,1.1,1.29t-1,1.27L338,220.24c-.21.12-.23.24,0,.36l-.78.45-.27-.12-.21-.11c-.18-.1-.27-.22-.27-.34a.41.41,0,0,1,.19-.33l.36-.23a5.61,5.61,0,0,1-1.65-.1A5,5,0,0,1,333.91,219.27Zm.92-.26a3.94,3.94,0,0,0,1.09.42,3.55,3.55,0,0,0,1.12.09,1.23,1.23,0,0,0,.6-.12l.79-.46a3.74,3.74,0,0,0-1.12-.95,3.63,3.63,0,0,0-1.4-.48,1.9,1.9,0,0,0-1.18.19,1,1,0,0,0-.33.29.52.52,0,0,0-.09.34.67.67,0,0,0,.15.35A1.31,1.31,0,0,0,334.83,219Z"/><path class="cls-37" d="M340.72,223.15a2.09,2.09,0,0,1-.78-.71,1.26,1.26,0,0,1-.19-.81,1.59,1.59,0,0,1,.36-.8,3,3,0,0,1,.85-.7,5.28,5.28,0,0,1,1.26-.52,6.16,6.16,0,0,1,1.41-.22,5.75,5.75,0,0,1,1.39.11,4.13,4.13,0,0,1,1.24.46,1.78,1.78,0,0,1,.85.87,1.45,1.45,0,0,1,0,1l1.07-.62.81.47-5.32,3.07a3.94,3.94,0,0,1-1.23.46,5.16,5.16,0,0,1-1.33.08,5.78,5.78,0,0,1-1.33-.24,5.87,5.87,0,0,1-1.23-.53,2.92,2.92,0,0,1-1.19-1,1.35,1.35,0,0,1-.09-1.06l1,0a1,1,0,0,0,.12.89,2.4,2.4,0,0,0,.86.77,3.91,3.91,0,0,0,.81.35,3.75,3.75,0,0,0,.89.16,3.69,3.69,0,0,0,.92-.07,2.88,2.88,0,0,0,.88-.34l.95-.55a5.62,5.62,0,0,1-.82,0,5.82,5.82,0,0,1-.8-.07,4.61,4.61,0,0,1-.74-.18A3.6,3.6,0,0,1,340.72,223.15Zm1-.27a2.6,2.6,0,0,0,.66.26,4.35,4.35,0,0,0,.77.13,4.25,4.25,0,0,0,.77,0,2.61,2.61,0,0,0,.65-.14l1.55-.89a1.16,1.16,0,0,0,.21-.46,1.06,1.06,0,0,0,0-.46,1.11,1.11,0,0,0-.23-.44,1.6,1.6,0,0,0-.44-.36,2.71,2.71,0,0,0-.92-.33,4.21,4.21,0,0,0-1-.05,4.87,4.87,0,0,0-1,.18,3.79,3.79,0,0,0-.86.35,2,2,0,0,0-.62.52,1.11,1.11,0,0,0-.24.59,1,1,0,0,0,.16.58A1.57,1.57,0,0,0,341.75,222.89Z"/><path class="cls-37" d="M347.65,227.2a2.68,2.68,0,0,1-.9-.77,1.39,1.39,0,0,1-.27-.85,1.51,1.51,0,0,1,.33-.84,2.88,2.88,0,0,1,.87-.74,4.94,4.94,0,0,1,1.27-.5,6.39,6.39,0,0,1,2.93,0,4.77,4.77,0,0,1,1.34.52,2.58,2.58,0,0,1,.89.77,1.38,1.38,0,0,1,.25.84,1.47,1.47,0,0,1-.33.82,2.84,2.84,0,0,1-.84.71l-.21.12-.16.08-4.49-2.59a1.82,1.82,0,0,0-.54.53,1,1,0,0,0-.16.56,1,1,0,0,0,.19.54,1.63,1.63,0,0,0,.53.46,3,3,0,0,0,.55.24,4.42,4.42,0,0,0,.63.15,3.73,3.73,0,0,0,.65.05,2.72,2.72,0,0,0,.62-.07l.57.58a4.54,4.54,0,0,1-.91.1,5.88,5.88,0,0,1-1.93-.29A4.65,4.65,0,0,1,347.65,227.2Zm5-.75a1.65,1.65,0,0,0,.51-.52,1,1,0,0,0,.15-.55,1,1,0,0,0-.21-.53,1.8,1.8,0,0,0-.56-.47,3,3,0,0,0-.81-.32,4.21,4.21,0,0,0-.93-.12,4.31,4.31,0,0,0-.94.09,3.63,3.63,0,0,0-.88.3Z"/><path class="cls-37" d="M258.46,241.1l7.3-4.22.93.54-4,2.33,7.84-.15,1,.58-6.18.16-1,4.16-1-.59.88-3.6-2.6,0-2.24,1.29Z"/><path class="cls-37" d="M265.34,245.07l5.38-3.1.91.53-5.38,3.1Zm6.39-3.69,1.13-.65.91.53-1.13.66Z"/><path class="cls-37" d="M271,248.06l-.32-.07-.42-.11-.46-.16a3.35,3.35,0,0,1-.45-.22,1.11,1.11,0,0,1-.59-.65c-.06-.24.1-.48.49-.7l3.62-2.09-.74-.42.71-.41.74.43,1.79-1,.91.53-1.79,1,1.21.7-.71.41-1.21-.7-3.34,1.93c-.18.12-.26.24-.24.36a.53.53,0,0,0,.28.32,2.31,2.31,0,0,0,.58.23l.45.1Z"/><path class="cls-37" d="M274.15,247a4.93,4.93,0,0,1,1.27-.5,6,6,0,0,1,1.44-.19,6.31,6.31,0,0,1,1.46.16,4.74,4.74,0,0,1,1.35.52,2.31,2.31,0,0,1,1,1,1.14,1.14,0,0,1-.07,1.06l-1.17-.36a.72.72,0,0,0,0-.68,1.47,1.47,0,0,0-.62-.6,3,3,0,0,0-.85-.32,3.94,3.94,0,0,0-1-.09,4.71,4.71,0,0,0-1,.14,3.69,3.69,0,0,0-.93.38,2.14,2.14,0,0,0-.65.54,1.18,1.18,0,0,0-.25.6.89.89,0,0,0,.14.58,1.49,1.49,0,0,0,.55.49,2.71,2.71,0,0,0,.54.23,3.88,3.88,0,0,0,1.21.18,2,2,0,0,0,.53-.07l.62.67a4.34,4.34,0,0,1-.89.11,5.31,5.31,0,0,1-.95-.06,6,6,0,0,1-.95-.23,4.58,4.58,0,0,1-.87-.39,2.6,2.6,0,0,1-.89-.78,1.41,1.41,0,0,1-.26-.85,1.5,1.5,0,0,1,.33-.84A2.85,2.85,0,0,1,274.15,247Z"/><path class="cls-37" d="M282.51,255l-.91-.53,3-1.74q.84-.48,1-.88c.08-.27-.07-.51-.44-.73a2.5,2.5,0,0,0-.65-.25,4.48,4.48,0,0,0-.8-.12,5.33,5.33,0,0,0-.86,0,4.34,4.34,0,0,0-.84.17l-3.24,1.87-.91-.53,7.52-4.34.91.53-3.3,1.9a5.78,5.78,0,0,1,1.79,0,4.3,4.3,0,0,1,1.53.5,1.6,1.6,0,0,1,.63.57.69.69,0,0,1,.06.58,1.45,1.45,0,0,1-.43.58,4.92,4.92,0,0,1-.8.57Z"/><path class="cls-37" d="M286.49,257.4a2.65,2.65,0,0,1-.9-.77,1.38,1.38,0,0,1-.27-.85,1.5,1.5,0,0,1,.33-.84,2.85,2.85,0,0,1,.87-.74,4.87,4.87,0,0,1,1.27-.5,6.43,6.43,0,0,1,2.94,0,4.83,4.83,0,0,1,1.34.52,2.57,2.57,0,0,1,.89.78,1.38,1.38,0,0,1,.25.84,1.47,1.47,0,0,1-.33.82,2.86,2.86,0,0,1-.84.71l-.21.12-.16.07-4.49-2.59a1.83,1.83,0,0,0-.54.53,1,1,0,0,0-.16.56,1,1,0,0,0,.19.54,1.63,1.63,0,0,0,.53.46,2.85,2.85,0,0,0,.55.24,4.38,4.38,0,0,0,.63.15,3.72,3.72,0,0,0,.65.05,2.63,2.63,0,0,0,.62-.07l.57.58a4.68,4.68,0,0,1-.92.1,5.87,5.87,0,0,1-1-.06,5.74,5.74,0,0,1-1-.23A4.55,4.55,0,0,1,286.49,257.4Zm5-.75a1.66,1.66,0,0,0,.51-.52,1,1,0,0,0,.15-.55,1,1,0,0,0-.21-.53,1.8,1.8,0,0,0-.56-.47,3.09,3.09,0,0,0-.81-.32,4,4,0,0,0-.93-.12,4.3,4.3,0,0,0-.94.09,3.79,3.79,0,0,0-.88.3Z"/><path class="cls-37" d="M295.28,262.36l-.91-.53,3-1.74q.87-.5,1-.88t-.41-.69a2.69,2.69,0,0,0-.67-.26,5.1,5.1,0,0,0-.82-.14,4.81,4.81,0,0,0-.88,0,4.06,4.06,0,0,0-.85.16l-3.25,1.87-.91-.53,5.38-3.11.83.48-1.15.67a5.7,5.7,0,0,1,1.83,0,4.85,4.85,0,0,1,1.66.57,1.5,1.5,0,0,1,.61.55.65.65,0,0,1,0,.56,1.55,1.55,0,0,1-.45.57,5.69,5.69,0,0,1-.82.56Z"/><path class="cls-37" d="M212,274.41a3,3,0,0,1-.94.35,4.31,4.31,0,0,1-1.06.08,4.89,4.89,0,0,1-1.07-.18,4.22,4.22,0,0,1-1-.4l-3.49-2L211.8,268l3.66,2.11a1.34,1.34,0,0,1,.53.5.87.87,0,0,1,.1.55,1.15,1.15,0,0,1-.26.54,2,2,0,0,1-.56.46,3.6,3.6,0,0,1-1.29.43,4.08,4.08,0,0,1-1.47-.05,1,1,0,0,1,.31,1A1.55,1.55,0,0,1,212,274.41Zm-.78-.64a1.32,1.32,0,0,0,.39-.33.76.76,0,0,0,.17-.37.56.56,0,0,0-.08-.37.93.93,0,0,0-.35-.32l-2.63-1.52-2.51,1.45,2.56,1.48a1.94,1.94,0,0,0,.58.22,3.21,3.21,0,0,0,.66.06,2.87,2.87,0,0,0,.66-.08A2.16,2.16,0,0,0,211.24,273.77Zm.69-4.75-2.44,1.41,2.34,1.35a1.84,1.84,0,0,0,.55.21,2.66,2.66,0,0,0,.62.06,2.87,2.87,0,0,0,.62-.09,2.07,2.07,0,0,0,.56-.22,1.42,1.42,0,0,0,.4-.33.75.75,0,0,0,.17-.35.5.5,0,0,0-.08-.35,1,1,0,0,0-.34-.3Z"/><path class="cls-37" d="M213.84,277.76a2.69,2.69,0,0,1-.9-.77,1.38,1.38,0,0,1-.27-.85,1.5,1.5,0,0,1,.33-.84,2.87,2.87,0,0,1,.87-.74,4.86,4.86,0,0,1,1.27-.5,6.38,6.38,0,0,1,2.93,0,4.73,4.73,0,0,1,1.34.52,2.56,2.56,0,0,1,.89.77,1.39,1.39,0,0,1,.25.84,1.46,1.46,0,0,1-.33.82,2.85,2.85,0,0,1-.84.71l-.21.12-.16.07-4.49-2.59a1.82,1.82,0,0,0-.55.53,1,1,0,0,0-.16.56,1,1,0,0,0,.19.54,1.63,1.63,0,0,0,.53.46,2.83,2.83,0,0,0,.55.24,4.36,4.36,0,0,0,.63.15,3.74,3.74,0,0,0,.65.05,2.71,2.71,0,0,0,.61-.07l.57.58a4.67,4.67,0,0,1-.91.1,5.87,5.87,0,0,1-1-.06,6.08,6.08,0,0,1-1-.23A4.67,4.67,0,0,1,213.84,277.76Zm5-.75a1.65,1.65,0,0,0,.51-.52,1,1,0,0,0,.15-.55,1,1,0,0,0-.21-.53,1.8,1.8,0,0,0-.56-.47,3.11,3.11,0,0,0-.81-.32,4,4,0,0,0-.93-.12,4.21,4.21,0,0,0-.95.09,3.72,3.72,0,0,0-.88.3Z"/><path class="cls-37" d="M220.07,281.35a2.22,2.22,0,0,1-.81-.73,1.31,1.31,0,0,1-.21-.82,1.59,1.59,0,0,1,.35-.82,3,3,0,0,1,.87-.72,5.27,5.27,0,0,1,1.26-.52,6.33,6.33,0,0,1,1.4-.22,5.8,5.8,0,0,1,1.38.1,4,4,0,0,1,1.21.44,1.71,1.71,0,0,1,.82.87,1.29,1.29,0,0,1,0,.95l3.22-1.86.91.53-6.41,3.7c-.21.12-.23.24,0,.36l-.78.45-.26-.12-.18-.09a.5.5,0,0,1-.29-.38.36.36,0,0,1,.22-.36l.45-.26a5.53,5.53,0,0,1-1.67,0A4.22,4.22,0,0,1,220.07,281.35Zm1-.33a2.65,2.65,0,0,0,.61.24,4.67,4.67,0,0,0,.76.14,4.49,4.49,0,0,0,.79,0,2.49,2.49,0,0,0,.69-.14l1.55-.89a1,1,0,0,0,.21-.44,1,1,0,0,0,0-.48,1.21,1.21,0,0,0-.23-.44,1.49,1.49,0,0,0-.43-.36,2.79,2.79,0,0,0-.9-.32,4.25,4.25,0,0,0-1-.06,4.63,4.63,0,0,0-1,.17,3.84,3.84,0,0,0-.87.36,2,2,0,0,0-.62.53,1.1,1.1,0,0,0-.24.59,1,1,0,0,0,.16.58A1.56,1.56,0,0,0,221.07,281Z"/><path class="cls-37" d="M232.17,282.93a4.44,4.44,0,0,0-1.56-.5,4.27,4.27,0,0,0-1.66.1l-3.32,1.92-.91-.53,5.38-3.1.85.49-1.25.72a6.13,6.13,0,0,1,1.64-.09,3.7,3.7,0,0,1,1.36.34l.18.1.11.08Z"/><path class="cls-37" d="M230.88,287.6a2.57,2.57,0,0,1-.89-.77,1.39,1.39,0,0,1-.25-.85,1.49,1.49,0,0,1,.33-.83,2.82,2.82,0,0,1,.86-.73,4.87,4.87,0,0,1,1.27-.5,6.51,6.51,0,0,1,1.45-.19,6.28,6.28,0,0,1,1.47.14,4.67,4.67,0,0,1,1.33.51,2.61,2.61,0,0,1,.88.77,1.39,1.39,0,0,1,.26.85,1.54,1.54,0,0,1-.33.83,2.81,2.81,0,0,1-.87.74,5,5,0,0,1-1.26.5,6.27,6.27,0,0,1-1.45.19,6.49,6.49,0,0,1-1.47-.15A4.67,4.67,0,0,1,230.88,287.6Zm1-2.64a2.14,2.14,0,0,0-.64.53,1.1,1.1,0,0,0-.24.58.92.92,0,0,0,.15.57,1.5,1.5,0,0,0,.55.49,2.86,2.86,0,0,0,.85.31,4.4,4.4,0,0,0,1,.09,4.54,4.54,0,0,0,1-.14,3.65,3.65,0,0,0,.93-.37,2.15,2.15,0,0,0,.64-.53,1.11,1.11,0,0,0,.25-.59.93.93,0,0,0-.15-.58,1.53,1.53,0,0,0-.55-.49,2.82,2.82,0,0,0-.86-.31,4.43,4.43,0,0,0-1-.08,4.73,4.73,0,0,0-1,.15A3.69,3.69,0,0,0,231.86,285Z"/><path class="cls-37" d="M237.35,291.33a2.57,2.57,0,0,1-.89-.78,1.39,1.39,0,0,1-.25-.85,1.49,1.49,0,0,1,.33-.83,2.85,2.85,0,0,1,.86-.73,4.93,4.93,0,0,1,1.27-.5,6.62,6.62,0,0,1,1.45-.19,6.28,6.28,0,0,1,1.47.15,4.62,4.62,0,0,1,1.33.51,2.61,2.61,0,0,1,.88.77,1.39,1.39,0,0,1,.26.85,1.54,1.54,0,0,1-.33.83,2.8,2.8,0,0,1-.87.73,4.89,4.89,0,0,1-1.26.5,6.18,6.18,0,0,1-1.45.19,6.39,6.39,0,0,1-1.47-.15A4.66,4.66,0,0,1,237.35,291.33Zm1-2.64a2.13,2.13,0,0,0-.64.53,1.11,1.11,0,0,0-.24.58.93.93,0,0,0,.15.57,1.53,1.53,0,0,0,.55.49,2.87,2.87,0,0,0,.85.31,4.39,4.39,0,0,0,1,.09,4.64,4.64,0,0,0,1-.14,3.71,3.71,0,0,0,.93-.37,2.13,2.13,0,0,0,.64-.53,1.12,1.12,0,0,0,.25-.59.93.93,0,0,0-.15-.58,1.53,1.53,0,0,0-.55-.49,2.82,2.82,0,0,0-.86-.31,4.43,4.43,0,0,0-1-.08,4.73,4.73,0,0,0-1,.15A3.63,3.63,0,0,0,238.33,288.7Z"/><path class="cls-37" d="M249.72,298.35l-.91-.53,3-1.74q.84-.49,1-.88c.08-.26-.05-.49-.41-.7a2.94,2.94,0,0,0-1.4-.35,5,5,0,0,0-1.65.23l-3.24,1.87-.91-.53,3-1.74q.87-.5,1-.88t-.42-.69a3,3,0,0,0-1.38-.35,4.81,4.81,0,0,0-1.66.23l-3.24,1.87-.91-.53,5.38-3.11.83.48-1.15.67a5.94,5.94,0,0,1,1.78,0,4.13,4.13,0,0,1,1.52.5q.68.4.72.84a1,1,0,0,1-.45.83,5,5,0,0,1,3.37.44,1.52,1.52,0,0,1,.61.55.64.64,0,0,1,0,.56,1.6,1.6,0,0,1-.45.57,5.25,5.25,0,0,1-.81.56Z"/><g class="cls-4"><path class="cls-70" d="M67.12,90.57C54.88,83.5,54.82,72,67,65s32-7,44.25.08,12.3,18.53.14,25.55S79.36,97.63,67.12,90.57ZM109.76,66c-11.42-6.59-29.94-6.63-41.29-.07s-11.29,17.25.13,23.84,29.94,6.63,41.29.07S121.18,72.54,109.76,66Z"/><path class="cls-71" d="M60.9,94.16C45.21,85.1,45.13,70.41,60.72,61.4s41-9,56.73.1,15.77,23.75.18,32.75S76.59,103.22,60.9,94.16Zm54.34-31.37c-14.46-8.35-37.92-8.39-52.29-.09s-14.3,21.84.16,30.19,37.92,8.39,52.29.09S129.7,71.13,115.24,62.79Z"/><path class="cls-72" d="M54.26,98C34.89,86.81,34.79,68.66,54,57.55s50.68-11.06,70.05.13,19.47,29.33.22,40.44S73.64,109.18,54.26,98Zm66.88-38.61C103.41,49.14,74.64,49.09,57,59.26s-17.54,26.79.2,37,46.51,10.29,64.13.12S138.88,69.62,121.14,59.38Z"/></g><path class="cls-73" d="M108.28,139c5.22-.25,6.11-1.1,6.11-1.1a7.39,7.39,0,0,1,1.76-2.09h0c3-2.54,7.76-3.25,10.6-1.59l44.36,26c2.83,1.66,2.68,5.06-.34,7.59h0c-3,2.54-7.76,3.25-10.6,1.59l-44.36-26a4.15,4.15,0,0,1-1.61-1.62C109.25,141.5,108.28,139,108.28,139Z"/><path class="cls-74" d="M198.57,168.71c-2.44-4.62-2.17-5.82-2.17-5.82a7.39,7.39,0,0,0,.9-2.58h0c.64-3.89-1.16-8.34-4-9.93l-44.94-24.95c-2.87-1.59-5.72.27-6.36,4.16h0c-.64,3.89,1.16,8.34,4,9.93l44.94,24.95a4.15,4.15,0,0,0,2.21.56C195.91,169.16,198.57,168.71,198.57,168.71Z"/><line class="cls-74" x1="147.89" y1="132.99" x2="191.56" y2="156.95"/><line class="cls-74" x1="121.9" y1="140.1" x2="165.57" y2="164.07"/><polygon class="cls-75" points="79.83 152.53 79.32 154.77 78.77 155.72 73.58 156.01 79.83 152.53"/><polyline class="cls-75" points="79.83 152.53 89.55 153.51 94.09 154.8 94.51 155.06 96.94 158.16 99.88 164.89 96.78 170.31 89.42 174.39 84.54 174.4 81.84 173.59 71.94 167.49 70.25 165.8 69.16 162.21 73.58 156.01"/><path class="cls-76" d="M69.16,162.21"/><line class="cls-75" x1="85.97" y1="153.15" x2="79.32" y2="154.77"/><polyline class="cls-75" points="78.77 155.72 78.73 155.97 69.3 162.29 72.98 163.44 78.62 156.32 81.67 164.54 83.61 165.73 94.9 166.26 95.27 166.15 95.57 166.03 96.83 165.56 99.88 164.89"/><polyline class="cls-75" points="96.78 170.31 95.57 166.03 95.27 166.15 89.42 174.39 86.83 171.84 81.84 173.59"/><polyline class="cls-75" points="76.72 170.44 86.83 171.84 73.09 163.5 72.98 163.44 71.94 167.49"/><line class="cls-75" x1="81.68" y1="164.54" x2="73.09" y2="163.5"/><polyline class="cls-75" points="83.61 165.73 86.83 171.84 94.9 166.26"/><line class="cls-75" x1="96.83" y1="165.56" x2="98.15" y2="160.93"/><path class="cls-77" d="M84.58,174.63"/><path class="cls-78" d="M73.24,163.95"/><polygon class="cls-75" points="91.9 156.07 91.88 156.45 92.19 156.44 92.37 156.56 91.24 156.59 91.56 156.79 93.03 156.77 91.9 156.07"/><polygon class="cls-75" points="93.23 156.9 91.77 156.92 92.84 157.64 92.81 157.28 92.62 157.27 92.42 157.12 93.55 157.09 93.23 156.9"/><path class="cls-75" d="M95.63,161.7c-1.76,1.59-5.55,1.44-8.45-.35s-3.83-4.53-2.06-6.13,5.55-1.44,8.45.35S97.39,160.11,95.63,161.7Z"/><path class="cls-75" d="M95.18,161.43c-1.61,1.46-5.07,1.31-7.72-.32S84,157,85.57,155.5s5.07-1.31,7.72.32S96.79,160,95.18,161.43Z"/><path class="cls-75" d="M86,163.7a1.36,1.36,0,0,1-1.5-.06c-.51-.32-.68-.8-.37-1.09a1.36,1.36,0,0,1,1.5.06C86.19,162.93,86.35,163.41,86,163.7Z"/><polygon class="cls-79" points="85.68 65.98 85.17 68.23 84.62 69.18 79.44 69.46 85.68 65.98"/><polyline class="cls-79" points="85.68 65.98 95.4 66.96 99.95 68.25 100.36 68.51 102.79 71.61 105.73 78.34 102.63 83.76 95.27 87.84 90.39 87.85 87.69 87.05 77.79 80.94 76.1 79.26 75.01 75.66 79.44 69.46"/><path class="cls-79" d="M75,75.66"/><line class="cls-79" x1="91.82" y1="66.6" x2="85.17" y2="68.23"/><polyline class="cls-79" points="84.62 69.18 84.58 69.42 75.15 75.74 78.83 76.89 84.47 69.77 87.53 77.99 89.47 79.18 100.76 79.71 101.13 79.6 101.43 79.49 102.68 79.02 105.73 78.34"/><polyline class="cls-79" points="102.63 83.76 101.43 79.49 101.13 79.6 95.27 87.84 92.68 85.29 87.69 87.05"/><polyline class="cls-79" points="82.57 83.89 92.68 85.29 78.94 76.95 78.83 76.89 77.79 80.94"/><line class="cls-79" x1="87.53" y1="77.99" x2="78.94" y2="76.96"/><polyline class="cls-79" points="89.47 79.18 92.68 85.29 100.76 79.71"/><line class="cls-79" x1="102.68" y1="79.02" x2="104" y2="74.38"/><path class="cls-79" d="M90.43,88.08"/><path class="cls-79" d="M79.1,77.4"/><polygon class="cls-80" points="97.75 69.52 97.74 69.9 98.04 69.9 98.22 70.01 97.09 70.05 97.41 70.25 98.88 70.22 97.75 69.52"/><polygon class="cls-80" points="99.09 70.35 97.62 70.38 98.7 71.09 98.67 70.74 98.47 70.72 98.27 70.57 99.41 70.54 99.09 70.35"/><path class="cls-80" d="M101.48,75.16c-1.76,1.59-5.55,1.44-8.45-.35S89.2,70.27,91,68.68s5.55-1.44,8.45.35S103.24,73.56,101.48,75.16Z"/><path class="cls-80" d="M101,74.88c-1.61,1.46-5.07,1.31-7.72-.32s-3.5-4.14-1.89-5.6,5.07-1.31,7.72.32S102.64,73.42,101,74.88Z"/><path class="cls-80" d="M91.89,77.15a1.36,1.36,0,0,1-1.5-.06c-.51-.32-.68-.8-.37-1.09a1.36,1.36,0,0,1,1.5.06C92,76.38,92.2,76.87,91.89,77.15Z"/></g></g></g></svg>