<svg xmlns="http://www.w3.org/2000/svg" xmlns:xlink="http://www.w3.org/1999/xlink" viewBox="0 0 160.12 167.6"><defs><style>.cls-1{isolation:isolate;}.cls-2,.cls-21,.cls-3,.cls-4,.cls-5{opacity:0.4;}.cls-17,.cls-18,.cls-2,.cls-3,.cls-4,.cls-5{mix-blend-mode:lighten;}.cls-2{fill:url(#Áåçûìÿííûé_ãðàäèåíò_371);}.cls-3{fill:url(#Áåçûìÿííûé_ãðàäèåíò_374);}.cls-4{fill:url(#Áåçûìÿííûé_ãðàäèåíò_374-2);}.cls-5{fill:url(#Áåçûìÿííûé_ãðàäèåíò_371-2);}.cls-19,.cls-20,.cls-21,.cls-22,.cls-23,.cls-6{fill:#6ee8fc;}.cls-7{fill:#161242;opacity:0.5;}.cls-8{fill:url(#Áåçûìÿííûé_ãðàäèåíò_377);}.cls-9{fill:#0c0f38;}.cls-20,.cls-9{opacity:0.6;}.cls-10{fill:url(#Áåçûìÿííûé_ãðàäèåíò_388);}.cls-11{fill:#d4088c;}.cls-12{fill:#6de0f6;}.cls-13{fill:#25bfec;}.cls-14{fill:#267fe5;}.cls-15{fill:#3be1fa;}.cls-16{fill:#18d0f7;}.cls-17,.cls-22{opacity:0.2;}.cls-17{fill:url(#Áåçûìÿííûé_ãðàäèåíò_370);}.cls-18{opacity:0.25;fill:url(#Áåçûìÿííûé_ãðàäèåíò_384);}.cls-19{opacity:0.8;}.cls-23{opacity:0.1;}</style><radialGradient id="Áåçûìÿííûé_ãðàäèåíò_371" cx="181.79" cy="1375.33" fx="158.35809425378272" fy="1385.4144453061542" r="36.63" gradientTransform="matrix(0.62, 0.78, -0.99, 0.15, 1364.84, -207.1)" gradientUnits="userSpaceOnUse"><stop offset="0.01" stop-color="#25bfec"/><stop offset="0.05" stop-color="#24b4e1"/><stop offset="0.22" stop-color="#1f83b0"/><stop offset="0.39" stop-color="#1b5a86"/><stop offset="0.56" stop-color="#173a66"/><stop offset="0.72" stop-color="#152350"/><stop offset="0.87" stop-color="#131642"/><stop offset="1" stop-color="#13113d"/></radialGradient><radialGradient id="Áåçûìÿííûé_ãðàäèåíò_374" cx="66.68" cy="113.49" r="54.11" gradientUnits="userSpaceOnUse"><stop offset="0.01" stop-color="#d4088c"/><stop offset="0.1" stop-color="#b70980"/><stop offset="0.26" stop-color="#860c6c"/><stop offset="0.42" stop-color="#5c0e5b"/><stop offset="0.58" stop-color="#3c0f4e"/><stop offset="0.73" stop-color="#261045"/><stop offset="0.87" stop-color="#18113f"/><stop offset="1" stop-color="#13113d"/></radialGradient><radialGradient id="Áåçûìÿííûé_ãðàäèåíò_374-2" cx="55.49" cy="50.47" r="47.93" xlink:href="#Áåçûìÿííûé_ãðàäèåíò_374"/><radialGradient id="Áåçûìÿííûé_ãðàäèåíò_371-2" cx="107.16" cy="99.76" fx="107.16214729285639" fy="99.76274999999987" r="35.98" gradientTransform="matrix(1, 0, 0, 1, 0, 0)" xlink:href="#Áåçûìÿííûé_ãðàäèåíò_371"/><linearGradient id="Áåçûìÿííûé_ãðàäèåíò_377" x1="50.19" y1="54.8" x2="115.63" y2="81.08" gradientUnits="userSpaceOnUse"><stop offset="0" stop-color="#a31fa9"/><stop offset="0.07" stop-color="#8b17a0"/><stop offset="0.15" stop-color="#740f98"/><stop offset="0.24" stop-color="#640a92"/><stop offset="0.34" stop-color="#5b078f"/><stop offset="0.48" stop-color="#58068e"/><stop offset="0.63" stop-color="#4d22a3"/><stop offset="0.94" stop-color="#3168da"/><stop offset="1" stop-color="#2c75e4"/></linearGradient><linearGradient id="Áåçûìÿííûé_ãðàäèåíò_388" x1="58.91" y1="122.18" x2="107.23" y2="122.18" gradientUnits="userSpaceOnUse"><stop offset="0" stop-color="#d4088c"/><stop offset="0.23" stop-color="#d4088c"/><stop offset="0.51" stop-color="#6ee1f8"/><stop offset="0.78" stop-color="#6ee8fc"/><stop offset="1" stop-color="#6ee8fc"/></linearGradient><linearGradient id="Áåçûìÿííûé_ãðàäèåíò_370" x1="79.13" y1="58.55" x2="10.3" y2="15.45" gradientTransform="matrix(1, 0, 0, 1, 0, 0)" xlink:href="#Áåçûìÿííûé_ãðàäèåíò_371"/><linearGradient id="Áåçûìÿííûé_ãðàäèåíò_384" x1="77.35" y1="57.8" x2="16.28" y2="19.55" gradientUnits="userSpaceOnUse"><stop offset="0.01" stop-color="#70e8fc"/><stop offset="0.15" stop-color="#5ab5cf"/><stop offset="0.3" stop-color="#4584a3"/><stop offset="0.46" stop-color="#335a7e"/><stop offset="0.6" stop-color="#253a62"/><stop offset="0.75" stop-color="#1b244d"/><stop offset="0.88" stop-color="#151641"/><stop offset="1" stop-color="#13113d"/></linearGradient></defs><title>monitorea-pic</title><g class="cls-1"><g id="Capa_2" data-name="Capa 2"><g id="Ñëîé_1" data-name="Ñëîé 1"><path class="cls-2" d="M140.08,165.24c-20,3-46.43-7.49-59-23.34s-6.54-31.1,13.47-34.06,46.43,7.49,59,23.34S160.09,162.28,140.08,165.24Z"/><circle class="cls-3" cx="66.68" cy="113.49" r="54.11"/><circle class="cls-4" cx="55.49" cy="50.47" r="47.93"/><circle class="cls-5" cx="107.16" cy="99.76" r="35.98"/><circle class="cls-6" cx="46.7" cy="76.66" r="5.66" transform="translate(-40.53 55.48) rotate(-45)"/><path class="cls-7" d="M46.71,82.33A5.66,5.66,0,1,0,45,71.25c0,.12,0,.23,0,.35A35.22,35.22,0,0,0,46.71,82.33Z"/><circle class="cls-6" cx="44.64" cy="66.46" r="2.92" transform="translate(-33.92 51.03) rotate(-45)"/><circle class="cls-7" cx="44.65" cy="66.46" r="2.92" transform="translate(-33.92 51.04) rotate(-45)"/><circle class="cls-6" cx="34.96" cy="64.92" r="1.86" transform="translate(-35.67 43.73) rotate(-45)"/><circle class="cls-8" cx="83.07" cy="68.01" r="35.25"/><path class="cls-9" d="M96.67,130c-7.51,4.33-19.68,4.33-27.19,0s-7.51-11.36,0-15.7,19.68-4.33,27.19,0S104.17,125.69,96.67,130Z"/><path class="cls-10" d="M83.07,136.28c-6.16,0-12.31-1.35-17-4.06s-7.16-6.23-7.16-10,2.54-7.38,7.16-10c9.37-5.41,24.62-5.41,34,0,4.62,2.67,7.16,6.23,7.16,10s-2.54,7.38-7.16,10S89.23,136.28,83.07,136.28Zm0-27.42c-6,0-12,1.32-16.59,4-4.36,2.51-6.75,5.83-6.75,9.35s2.4,6.83,6.75,9.35c9.15,5.28,24,5.28,33.19,0h0c4.36-2.51,6.75-5.83,6.75-9.35s-2.4-6.83-6.75-9.35C95.09,110.19,89.08,108.87,83.07,108.87Z"/><path class="cls-11" d="M48.91,68.71A35.21,35.21,0,0,1,103.09,39a35.23,35.23,0,1,0-39,58.7A35.2,35.2,0,0,1,48.91,68.71Z"/><path class="cls-6" d="M102.63,38.68A35.23,35.23,0,0,1,62.05,96.26a35.23,35.23,0,1,0,40.58-57.58Z"/><ellipse class="cls-12" cx="68.03" cy="55.34" rx="15.2" ry="11.8" transform="translate(-17.36 75.29) rotate(-52.28)"/><path class="cls-13" d="M64.14,51.13c3.88-5,9.58-7.45,14.36-6.64a9.15,9.15,0,0,0-1.17-1.17c-5.16-4-13.5-1.84-18.63,4.8s-5.12,15.25,0,19.24A9.53,9.53,0,0,0,63,69.2C59.11,64.87,59.45,57.2,64.14,51.13Z"/><path class="cls-14" d="M61.18,49.52c4.41-5.7,11.18-8.06,16.27-6.1l-.11-.11c-5.16-4-13.5-1.84-18.63,4.8s-5.12,15.25,0,19.24a9.29,9.29,0,0,0,2.36,1.3C56.07,64.62,56.09,56.11,61.18,49.52Z"/><ellipse class="cls-7" cx="96.33" cy="88.93" rx="7.43" ry="6.27" transform="translate(-34.67 94.17) rotate(-45)"/><ellipse class="cls-7" cx="90.99" cy="75.95" rx="1.52" ry="1.28" transform="translate(-27.05 86.59) rotate(-45)"/><ellipse class="cls-7" cx="88.56" cy="85.03" rx="1.52" ry="1.28" transform="translate(-34.19 87.53) rotate(-45)"/><ellipse class="cls-7" cx="89.52" cy="79.42" rx="0.69" ry="0.58" transform="translate(-29.94 86.56) rotate(-45)"/><circle class="cls-6" cx="97.76" cy="90.37" r="1.43"/><circle class="cls-6" cx="103.27" cy="84.73" r="0.72"/><circle class="cls-6" cx="94.51" cy="77.44" r="1.49"/><circle class="cls-6" cx="92.65" cy="80.76" r="0.63"/><circle class="cls-6" cx="96" cy="80.96" r="1.12"/><circle class="cls-6" cx="109.21" cy="97.71" r="9.13" transform="translate(-37.1 105.85) rotate(-45)"/><ellipse class="cls-15" cx="105.55" cy="94.44" rx="4.71" ry="3.67" transform="translate(-35.86 102.3) rotate(-45)"/><ellipse class="cls-16" cx="105.55" cy="94.44" rx="2.62" ry="2.04" transform="translate(-35.86 102.3) rotate(-45)"/><circle class="cls-6" cx="109.21" cy="111.95" r="3.98" transform="translate(-47.17 110.02) rotate(-45)"/><circle class="cls-6" cx="99.85" cy="108.21" r="1.57" transform="translate(-47.27 102.3) rotate(-45)"/><ellipse class="cls-15" cx="107.65" cy="110.38" rx="1.64" ry="1.28" transform="translate(-46.52 108.45) rotate(-45)"/><path class="cls-17" d="M77.33,43.32l-.25-.17L21.64,0,0,31.54,59.69,68h0c5.18,3.07,12.85.8,17.68-5.45C82.51,55.92,82.49,47.3,77.33,43.32Z"/><path class="cls-18" d="M75.76,44.28l-.22-.15L26.33,5.85l-19.2,28,53,32.35h0c4.6,2.72,11.4.71,15.68-4.83C80.35,55.46,80.33,47.82,75.76,44.28Z"/><circle class="cls-6" cx="45.64" cy="29.62" r="1.86" transform="translate(11.13 71.68) rotate(-83.62)"/><circle class="cls-19" cx="53.14" cy="31.59" r="1.86" transform="translate(6.94 72.66) rotate(-72.36)"/><circle class="cls-20" cx="60.11" cy="34.98" r="1.86" transform="translate(0.45 70.72) rotate(-61.12)"/><circle class="cls-21" cx="66.29" cy="39.67" r="1.86" transform="translate(-6.77 64.78) rotate(-49.87)"/><circle class="cls-22" cx="71.43" cy="45.47" r="1.86" transform="translate(-12.76 54.52) rotate(-38.62)"/><circle class="cls-23" cx="75.34" cy="52.16" r="1.86" transform="translate(22.15 126.78) rotate(-89.21)"/><circle class="cls-6" cx="38.69" cy="30.25" r="1.89" transform="translate(4.33 65.34) rotate(-83.62)"/><circle class="cls-19" cx="31.2" cy="28.28" r="1.86" transform="translate(-5.21 49.44) rotate(-72.37)"/><circle class="cls-20" cx="24.22" cy="24.89" r="1.86" transform="translate(-9.27 34.07) rotate(-61.12)"/><circle class="cls-21" cx="18.05" cy="20.2" r="1.86" transform="translate(-9.03 20.98) rotate(-49.87)"/><circle class="cls-22" cx="12.9" cy="14.4" r="1.86" transform="translate(-6.16 11.2) rotate(-38.62)"/><circle class="cls-23" cx="8.99" cy="7.7" r="1.86" transform="translate(1.17 16.59) rotate(-89.21)"/><circle class="cls-6" cx="34.03" cy="42.04" r="1.29" transform="translate(-17.69 26.21) rotate(-33.99)"/><circle class="cls-19" cx="30.42" cy="38.06" r="1.29" transform="translate(-18.03 32.85) rotate(-45.23)"/><circle class="cls-20" cx="26.09" cy="34.87" r="1.29" transform="matrix(0.55, -0.83, 0.83, 0.55, -17.39, 37.37)"/><circle class="cls-21" cx="21.23" cy="32.58" r="1.29" transform="translate(-16.97 39.88) rotate(-67.73)"/><circle class="cls-22" cx="16.01" cy="31.28" r="1.29" transform="translate(-17.76 41.02) rotate(-78.99)"/><circle class="cls-23" cx="10.64" cy="31.03" r="1.29" transform="translate(-13.47 8.79) rotate(-28.39)"/><circle class="cls-6" cx="35.88" cy="46.51" r="1.31" transform="translate(-19.87 28) rotate(-33.98)"/><circle class="cls-19" cx="39.5" cy="50.49" r="1.29" transform="translate(-24.16 42.98) rotate(-45.23)"/><circle class="cls-20" cx="43.82" cy="53.68" r="1.29" transform="translate(-25.13 60.58) rotate(-56.49)"/><circle class="cls-21" cx="48.69" cy="55.97" r="1.29" transform="translate(-21.56 79.82) rotate(-67.73)"/><circle class="cls-22" cx="53.91" cy="57.27" r="1.29" transform="translate(-12.6 99.24) rotate(-78.99)"/><circle class="cls-23" cx="59.28" cy="57.52" r="1.29" transform="matrix(0.88, -0.48, 0.48, 0.88, -20.22, 35.1)"/><path class="cls-21" d="M59.28,57.64a.12.12,0,0,1,0-.24l13.42-4.22-18.73,4.2a.12.12,0,0,1-.09-.22l16.27-11L48.74,56.08a.12.12,0,0,1-.13-.2L65.27,40.45,43.89,53.78a.12.12,0,0,1-.16-.18L59.26,35.77,39.57,50.58a.12.12,0,0,1-.17-.17l13-18.06L36,46.6a.12.12,0,0,1-.16,0,.12.12,0,0,1,0-.15l9.23-16L34.12,42.12a.12.12,0,0,1-.2-.13c1.79-4.17,4.37-10.4,4.65-11.54-.9.64-5.2,4.84-8.07,7.7a.12.12,0,0,1-.21-.1L31,28.68l-4.85,6.27a.13.13,0,0,1-.12,0,.12.12,0,0,1-.09-.1l-1.79-9.56-2.84,7.29a.14.14,0,0,1-.12.08.12.12,0,0,1-.11-.09l-3-11.84L16.13,31.3a.12.12,0,0,1-.12.1h0a.12.12,0,0,1-.12-.1l-3-16.14L10.76,31a.14.14,0,0,1-.12.1.12.12,0,0,1-.12-.11L8.87,7.71A.12.12,0,0,1,9,7.58a.13.13,0,0,1,.13.11l1.56,22.15,2.11-15.47a.12.12,0,0,1,.12-.1h0a.12.12,0,0,1,.12.1l3,16.24,1.92-10.43a.12.12,0,0,1,.12-.1h0a.12.12,0,0,1,.12.09l3.08,12,2.86-7.34a.12.12,0,0,1,.12-.08.12.12,0,0,1,.11.1l1.82,9.71,4.94-6.37a.12.12,0,0,1,.14,0,.12.12,0,0,1,.08.12l-.75,9.46c3.55-3.54,7.74-7.62,8.15-7.62h0a.16.16,0,0,1,.09.07c.19.39-2.82,7.55-4.4,11.25L45.55,29.54a.13.13,0,0,1,.16,0,.12.12,0,0,1,0,.16l-9.4,16.27L53.06,31.49a.12.12,0,0,1,.18.16L40.07,49.91l20-15a.12.12,0,0,1,.16,0,.12.12,0,0,1,0,.16L44.45,53.15,66.22,39.56a.12.12,0,0,1,.15.19l-17,15.78,22-10.18a.12.12,0,0,1,.16.05.12.12,0,0,1,0,.16L54.51,57l20.92-4.69a.12.12,0,0,1,.14.09.12.12,0,0,1-.08.15L59.32,57.64Z"/></g></g></g></svg>