<svg xmlns="http://www.w3.org/2000/svg" xmlns:xlink="http://www.w3.org/1999/xlink" viewBox="0 0 109.58 184.27"><defs><style>.cls-1{fill:none;}.cls-2{isolation:isolate;}.cls-3{fill:#0c0f38;opacity:0.6;}.cls-4{fill:url(#Áåçûìÿííûé_ãðàäèåíò_422);}.cls-5{fill:url(#Áåçûìÿííûé_ãðàäèåíò_377);}.cls-6{fill:url(#Áåçûìÿííûé_ãðàäèåíò_388);}.cls-7{fill:#d4088c;}.cls-8{fill:#6ee8fc;}.cls-9{fill:url(#Áåçûìÿííûé_ãðàäèåíò_300);}.cls-10{fill:url(#Áåçûìÿííûé_ãðàäèåíò_302);}.cls-11{fill:#6de0f6;}.cls-12{clip-path:url(#clip-path);}.cls-13{fill:#267fe5;}.cls-14{fill:#25bfec;}.cls-15{fill:#18d0f7;}.cls-16{opacity:0.2;mix-blend-mode:lighten;fill:url(#Áåçûìÿííûé_ãðàäèåíò_370);}</style><linearGradient id="Áåçûìÿííûé_ãðàäèåíò_422" x1="49.85" y1="121.27" x2="59.73" y2="183.63" gradientUnits="userSpaceOnUse"><stop offset="0" stop-color="#6ee8fc"/><stop offset="0.22" stop-color="#6ee8fc"/><stop offset="0.49" stop-color="#6ee1f8"/><stop offset="0.77" stop-color="#d4088c"/><stop offset="1" stop-color="#d4088c"/></linearGradient><linearGradient id="Áåçûìÿííûé_ãðàäèåíò_377" x1="-0.05" y1="142.54" x2="112.32" y2="142.54" gradientUnits="userSpaceOnUse"><stop offset="0" stop-color="#a31fa9"/><stop offset="0.07" stop-color="#8b17a0"/><stop offset="0.15" stop-color="#740f98"/><stop offset="0.24" stop-color="#640a92"/><stop offset="0.34" stop-color="#5b078f"/><stop offset="0.48" stop-color="#58068e"/><stop offset="0.63" stop-color="#4d22a3"/><stop offset="0.94" stop-color="#3168da"/><stop offset="1" stop-color="#2c75e4"/></linearGradient><linearGradient id="Áåçûìÿííûé_ãðàäèåíò_388" x1="-0.05" y1="155.41" x2="112.32" y2="155.41" gradientUnits="userSpaceOnUse"><stop offset="0" stop-color="#d4088c"/><stop offset="0.23" stop-color="#d4088c"/><stop offset="0.51" stop-color="#6ee1f8"/><stop offset="0.78" stop-color="#6ee8fc"/><stop offset="1" stop-color="#6ee8fc"/></linearGradient><linearGradient id="Áåçûìÿííûé_ãðàäèåíò_300" x1="258.63" y1="589.2" x2="311.64" y2="543.3" gradientTransform="matrix(0.87, 0.5, -1, 0.58, 373.14, -340.02)" gradientUnits="userSpaceOnUse"><stop offset="0" stop-color="#8d139b"/><stop offset="0.17" stop-color="#851ba1"/><stop offset="0.43" stop-color="#6e33b2"/><stop offset="0.76" stop-color="#4958cd"/><stop offset="1" stop-color="#2979e4"/></linearGradient><linearGradient id="Áåçûìÿííûé_ãðàäèåíò_302" x1="265.55" y1="583.21" x2="305.01" y2="549.04" gradientTransform="matrix(0.87, 0.5, -1, 0.58, 373.14, -340.02)" gradientUnits="userSpaceOnUse"><stop offset="0" stop-color="#630692"/><stop offset="0.23" stop-color="#5b0e94"/><stop offset="0.59" stop-color="#432399"/><stop offset="1" stop-color="#2142a1"/></linearGradient><clipPath id="clip-path"><path class="cls-1" d="M52.07,143.27l-21.14-12.2c-1.5-.87-1.31-2.38.42-3.39L51.64,116a6.52,6.52,0,0,1,5.86-.24l21.14,12.2c1.5.87,1.31,2.38-.42,3.39L57.93,143A6.52,6.52,0,0,1,52.07,143.27Z"/></clipPath><linearGradient id="Áåçûìÿííûé_ãðàäèåíò_370" x1="54.79" y1="143.86" x2="54.79" gradientUnits="userSpaceOnUse"><stop offset="0.01" stop-color="#25bfec"/><stop offset="0.05" stop-color="#24b4e1"/><stop offset="0.22" stop-color="#1f83b0"/><stop offset="0.39" stop-color="#1b5a86"/><stop offset="0.56" stop-color="#173a66"/><stop offset="0.72" stop-color="#152350"/><stop offset="0.87" stop-color="#131642"/><stop offset="1" stop-color="#13113d"/></linearGradient></defs><title>notifica-pic</title><g class="cls-2"><g id="Capa_2" data-name="Capa 2"><g id="Ñëîé_1" data-name="Ñëîé 1"><path class="cls-3" d="M49.74,178,10.55,155.36c-2.79-1.61-2.44-4.42.78-6.28L49,127.36c3.22-1.86,8.08-2.06,10.87-.45L99,149.54c2.79,1.61,2.44,4.42-.78,6.28L60.61,177.54C57.4,179.39,52.53,179.6,49.74,178Z"/><path class="cls-4" d="M54.41,184.27a11.82,11.82,0,0,1-5.79-1.33L2.45,156.28A4.27,4.27,0,0,1,0,152.67c0-1.68,1.23-3.35,3.37-4.58l44.33-25.59C51.6,120.24,57.56,120,61,122l46.17,26.65a4.27,4.27,0,0,1,2.45,3.61c0,1.68-1.23,3.35-3.37,4.58L61.88,182.4A15.36,15.36,0,0,1,54.41,184.27Zm-5.33-2.13c3.15,1.82,8.69,1.58,12.34-.53L105.75,156c1.85-1.07,2.9-2.44,2.9-3.78a3.39,3.39,0,0,0-2-2.81L60.5,122.76c-3.15-1.82-8.69-1.58-12.34.53L3.83,148.89C2,150,.93,151.33.93,152.67a3.39,3.39,0,0,0,2,2.81Z"/><path class="cls-5" d="M100.9,129.5H81.47L59.83,117c-2.79-1.61-7.65-1.41-10.87.45l-20.86,12H8.68v13h0a3.15,3.15,0,0,0,1.87,2.91l39.19,22.63c2.79,1.61,7.65,1.41,10.87-.45l37.63-21.72c1.67-1,2.56-2.19,2.65-3.36h0Z"/><path class="cls-6" d="M98.24,145,60.61,166.73c-3.22,1.86-8.08,2.06-10.87.45L10.55,144.56a3.15,3.15,0,0,1-1.87-2.91h0v.9h0a3.15,3.15,0,0,0,1.87,2.91l39.19,22.63c2.79,1.61,7.65,1.41,10.87-.45l37.63-21.72c1.67-1,2.56-2.19,2.65-3.36h0v-.9h0C100.8,142.82,99.91,144,98.24,145Z"/><path class="cls-7" d="M9.91,143.44h0v-13H29.33l20.86-12c3.22-1.86,8.08-2.06,10.87-.45L82.69,130.4H100.9v-.9H81.47L59.83,117c-2.79-1.61-7.65-1.41-10.87.45l-20.86,12H8.68v13h0a3.15,3.15,0,0,0,1.87,2.91l.22.13A2.73,2.73,0,0,1,9.91,143.44Z"/><path class="cls-8" d="M99.8,130.54v13h0a3.45,3.45,0,0,1-.93,2,4.21,4.21,0,0,0,2-3h0V129.63A5.78,5.78,0,0,0,99.8,130.54Z"/><path class="cls-9" d="M49.74,155,10.55,132.41c-2.79-1.61-2.44-4.42.78-6.28L49,104.41c3.22-1.86,8.08-2.06,10.87-.45L99,126.58c2.79,1.61,2.44,4.42-.78,6.28L60.61,154.58C57.4,156.44,52.53,156.64,49.74,155Z"/><path class="cls-8" d="M99,126.58,59.83,104a10.11,10.11,0,0,0-5.49-1.06,9.1,9.1,0,0,1,4,1.06l39.19,22.63c2.79,1.61,2.44,4.42-.78,6.28L59.08,154.58a12.39,12.39,0,0,1-5.38,1.51,12.79,12.79,0,0,0,6.92-1.51l37.63-21.72C101.46,131,101.81,128.19,99,126.58Z"/><path class="cls-10" d="M51,148.51,21.85,131.66c-2.07-1.2-1.81-3.29.58-4.67l28-16.17c2.4-1.38,6-1.53,8.09-.34l29.18,16.85c2.07,1.2,1.81,3.29-.58,4.67l-28,16.17C56.73,149.56,53.11,149.71,51,148.51Z"/><path class="cls-11" d="M52.07,143.27l-21.14-12.2c-1.5-.87-1.31-2.38.42-3.39L51.64,116a6.52,6.52,0,0,1,5.86-.24l21.14,12.2c1.5.87,1.31,2.38-.42,3.39L57.93,143A6.52,6.52,0,0,1,52.07,143.27Z"/><path class="cls-7" d="M51.5,155,12.31,132.41c-2.79-1.61-2.44-4.42.78-6.28l37.63-21.72a12.36,12.36,0,0,1,5.3-1.5,12.82,12.82,0,0,0-7.06,1.5L11.33,126.13c-3.22,1.86-3.57,4.67-.78,6.28L49.74,155a10.17,10.17,0,0,0,5.57,1.05A9,9,0,0,1,51.5,155Z"/><g class="cls-12"><path class="cls-13" d="M31.34,129.33l20.3-11.72a6.52,6.52,0,0,1,5.87-.24l21.15,12.21a2.24,2.24,0,0,1,.74.66,1.57,1.57,0,0,0-.74-2.32L57.51,115.71a6.52,6.52,0,0,0-5.87.24l-20.3,11.72c-1.35.78-1.75,1.87-1.16,2.72A3.2,3.2,0,0,1,31.34,129.33Z"/><path class="cls-14" d="M31.34,131.32l20.3-11.72a6.52,6.52,0,0,1,5.87-.24l21.15,12.21a2.35,2.35,0,0,1,.62.52,1.58,1.58,0,0,0-.62-2.51L57.51,117.37a6.52,6.52,0,0,0-5.87.24l-20.3,11.72c-1.43.83-1.79,2-1,2.87A3.48,3.48,0,0,1,31.34,131.32Z"/><path class="cls-15" d="M30.51,134.41a3.71,3.71,0,0,1,.83-.65L51.64,122a6.52,6.52,0,0,1,5.87-.24L78.66,134a2.62,2.62,0,0,1,.41.3,1.6,1.6,0,0,0-.41-2.73L57.51,119.36a6.52,6.52,0,0,0-5.87.24l-20.3,11.72C29.79,132.22,29.48,133.52,30.51,134.41Z"/></g><path class="cls-16" d="M79.66,0H29.91V129.6h0a1.74,1.74,0,0,0,1,1.46l21.14,12.2a6.52,6.52,0,0,0,5.86-.24l20.3-11.72a2.49,2.49,0,0,0,1.43-1.81h0Z"/><circle class="cls-11" cx="58.22" cy="88.85" r="1.33"/><circle class="cls-11" cx="51.24" cy="79.79" r="0.94"/><circle class="cls-11" cx="56.89" cy="69.68" r="2.17"/><circle class="cls-11" cx="50.79" cy="53.44" r="0.97"/><circle class="cls-11" cx="59.05" cy="98.24" r="0.97"/><circle class="cls-11" cx="58.09" cy="40.61" r="0.7"/><circle class="cls-11" cx="51.18" cy="31.52" r="0.33"/><circle class="cls-11" cx="51.84" cy="84.24" r="2.01"/><circle class="cls-11" cx="50.79" cy="59.74" r="0.97"/><circle class="cls-11" cx="52.99" cy="56.35" r="0.39"/><circle class="cls-11" cx="56.62" cy="73.77" r="0.85"/></g></g></g></svg>