<svg xmlns="http://www.w3.org/2000/svg" xmlns:xlink="http://www.w3.org/1999/xlink" viewBox="0 0 576.58 450.57"><defs><style>.cls-1{isolation:isolate;}.cls-2{fill:#d0eaf0;}.cls-3{fill:#c7e1e5;}.cls-4{opacity:0.3;}.cls-5{opacity:0.05;}.cls-6{fill:url(#Degradado_sin_nombre_126);}.cls-7{opacity:0.19;}.cls-8{opacity:0.89;fill:url(#Degradado_sin_nombre_216);}.cls-9{opacity:0.32;}.cls-10{opacity:0.78;fill:url(#Degradado_sin_nombre_215);}.cls-11{opacity:0.46;}.cls-12{opacity:0.67;fill:url(#Degradado_sin_nombre_214);}.cls-13{opacity:0.59;}.cls-14{opacity:0.55;fill:url(#Degradado_sin_nombre_213);}.cls-15{opacity:0.73;}.cls-16{opacity:0.44;fill:url(#Degradado_sin_nombre_212);}.cls-17{opacity:0.86;}.cls-18{opacity:0.33;fill:url(#Degradado_sin_nombre_211);}.cls-19{opacity:0.22;fill:url(#Degradado_sin_nombre_33);}.cls-20{fill:#7c7c7d;opacity:0.29;}.cls-21{fill:#1f1f1f;}.cls-22{fill:#bbbaba;}.cls-23{fill:#c9c9c8;}.cls-24{fill:#dbdbdb;}.cls-25{fill:#d6d6d6;}.cls-26{fill:#c3c3c3;}.cls-27{fill:#cfcfcf;}.cls-28{fill:#d4d4d4;}.cls-29,.cls-32,.cls-51,.cls-52{fill:none;stroke-miterlimit:10;}.cls-29{stroke:#1f1f1f;}.cls-30{fill:#6b6b6c;}.cls-31{fill:#616164;}.cls-32{stroke:#7a797b;}.cls-33{fill:#4e4e50;}.cls-34{fill:#2b2c2c;}.cls-35{fill:#5bb56b;}.cls-36{fill:#328c3b;}.cls-37,.cls-38,.cls-39,.cls-42,.cls-50,.cls-53,.cls-57,.cls-58,.cls-59,.cls-61,.cls-63,.cls-64,.cls-65,.cls-66,.cls-67,.cls-68,.cls-69{mix-blend-mode:multiply;}.cls-37{fill:url(#linear-gradient);}.cls-38{fill:url(#linear-gradient-2);}.cls-39,.cls-53,.cls-57,.cls-58,.cls-59,.cls-63,.cls-65,.cls-67,.cls-69{opacity:0.5;}.cls-39{fill:url(#linear-gradient-3);}.cls-40{fill:#5b3915;}.cls-41{fill:#714d25;}.cls-42{fill:url(#linear-gradient-4);}.cls-43{fill:#8a5d31;}.cls-44{fill:#ae3c3c;}.cls-45{fill:#d85755;}.cls-46{fill:#f2c727;}.cls-47{fill:#85a4aa;}.cls-48{fill:#bfc7d0;}.cls-49{fill:#9e6a3c;}.cls-50{fill:url(#linear-gradient-5);}.cls-51,.cls-52{stroke:#5b3915;stroke-linecap:round;stroke-width:0.52px;}.cls-52{stroke-dasharray:1.55 1.55;}.cls-53{fill:url(#linear-gradient-6);}.cls-54{fill:#c16aa8;}.cls-55{fill:#80a6d8;}.cls-56{fill:#cccece;}.cls-57{fill:url(#linear-gradient-7);}.cls-58{fill:url(#linear-gradient-8);}.cls-59{fill:url(#linear-gradient-9);}.cls-60{fill:#e2af10;}.cls-61{fill:url(#linear-gradient-10);}.cls-62{fill:#e0ae0f;}.cls-63{fill:url(#linear-gradient-11);}.cls-64{fill:url(#linear-gradient-12);}.cls-65{fill:url(#linear-gradient-13);}.cls-66{fill:url(#linear-gradient-14);}.cls-67{fill:url(#linear-gradient-15);}.cls-68{fill:url(#linear-gradient-16);}.cls-69{fill:url(#linear-gradient-17);}</style><linearGradient id="Degradado_sin_nombre_126" x1="146.14" y1="81.64" x2="528.69" y2="81.64" gradientUnits="userSpaceOnUse"><stop offset="0" stop-color="#00a8bf"/><stop offset="0" stop-color="#00a7bf"/><stop offset="0.06" stop-color="#008cb6"/><stop offset="0.12" stop-color="#0079b0"/><stop offset="0.18" stop-color="#006eac"/><stop offset="0.24" stop-color="#006aab"/><stop offset="0.67" stop-color="#911d79"/><stop offset="0.89" stop-color="#4b1f53"/><stop offset="1" stop-color="#cf1c83"/></linearGradient><linearGradient id="Degradado_sin_nombre_216" x1="146.14" y1="105.87" x2="528.69" y2="105.87" gradientUnits="userSpaceOnUse"><stop offset="0" stop-color="#53b4c9"/><stop offset="0.04" stop-color="#4ea3c3"/><stop offset="0.11" stop-color="#468cbb"/><stop offset="0.18" stop-color="#427eb6"/><stop offset="0.24" stop-color="#4079b4"/><stop offset="0.67" stop-color="#953b80"/><stop offset="0.89" stop-color="#542d57"/><stop offset="1" stop-color="#be4385"/></linearGradient><linearGradient id="Degradado_sin_nombre_215" x1="146.14" y1="130.1" x2="528.69" y2="130.1" gradientUnits="userSpaceOnUse"><stop offset="0" stop-color="#7cc1d2"/><stop offset="0.1" stop-color="#6fa3c7"/><stop offset="0.18" stop-color="#6791c0"/><stop offset="0.24" stop-color="#648abd"/><stop offset="0.67" stop-color="#985589"/><stop offset="0.89" stop-color="#5b3c5c"/><stop offset="1" stop-color="#ad5885"/></linearGradient><linearGradient id="Degradado_sin_nombre_214" x1="146.14" y1="154.33" x2="528.69" y2="154.33" gradientUnits="userSpaceOnUse"><stop offset="0" stop-color="#9ccddb"/><stop offset="0.05" stop-color="#96c1d6"/><stop offset="0.17" stop-color="#88a6ca"/><stop offset="0.24" stop-color="#839cc6"/><stop offset="0.67" stop-color="#996a90"/><stop offset="0.89" stop-color="#5e485f"/><stop offset="1" stop-color="#986380"/></linearGradient><linearGradient id="Degradado_sin_nombre_213" x1="146.14" y1="178.56" x2="528.69" y2="178.56" gradientUnits="userSpaceOnUse"><stop offset="0" stop-color="#b8dae5"/><stop offset="0.12" stop-color="#aac2d8"/><stop offset="0.24" stop-color="#9eaece"/><stop offset="0.67" stop-color="#977a94"/><stop offset="0.89" stop-color="#5f5160"/><stop offset="1" stop-color="#826374"/></linearGradient><linearGradient id="Degradado_sin_nombre_212" x1="146.14" y1="202.79" x2="528.7" y2="202.79" gradientUnits="userSpaceOnUse"><stop offset="0" stop-color="#d1e6ee"/><stop offset="0.24" stop-color="#b7c0d6"/><stop offset="0.67" stop-color="#958495"/><stop offset="0.89" stop-color="#5b535c"/><stop offset="1" stop-color="#665760"/></linearGradient><linearGradient id="Degradado_sin_nombre_211" x1="146.14" y1="227.02" x2="528.7" y2="227.02" gradientUnits="userSpaceOnUse"><stop offset="0" stop-color="#e9f3f7"/><stop offset="0.17" stop-color="#d6dce6"/><stop offset="0.24" stop-color="#cdd1dd"/><stop offset="0.67" stop-color="#8f8990"/><stop offset="0.89" stop-color="#545154"/><stop offset="1" stop-color="#464143"/></linearGradient><linearGradient id="Degradado_sin_nombre_33" x1="146.14" y1="251.24" x2="528.69" y2="251.24" gradientUnits="userSpaceOnUse"><stop offset="0" stop-color="#fff"/><stop offset="0.09" stop-color="#f4f4f4"/><stop offset="0.24" stop-color="#d7d7d7"/><stop offset="0.43" stop-color="#a9a9a9"/><stop offset="0.67" stop-color="#686868"/><stop offset="0.93" stop-color="#161616"/><stop offset="1"/></linearGradient><linearGradient id="linear-gradient" x1="445.34" y1="377.26" x2="469.14" y2="295.51" gradientUnits="userSpaceOnUse"><stop offset="0" stop-color="#fff" stop-opacity="0"/><stop offset="1" stop-color="#5bb56b"/></linearGradient><linearGradient id="linear-gradient-2" x1="456.11" y1="321.35" x2="489.92" y2="277.54" xlink:href="#linear-gradient"/><linearGradient id="linear-gradient-3" x1="456.83" y1="194.38" x2="456.83" y2="329.47" gradientUnits="userSpaceOnUse"><stop offset="0.06" stop-color="#fff" stop-opacity="0"/><stop offset="0.17" stop-color="#c8cccf" stop-opacity="0.36"/><stop offset="0.27" stop-color="#9ea3aa" stop-opacity="0.64"/><stop offset="0.36" stop-color="#7f8690" stop-opacity="0.84"/><stop offset="0.45" stop-color="#6c7580" stop-opacity="0.96"/><stop offset="0.53" stop-color="#666f7a"/></linearGradient><linearGradient id="linear-gradient-4" x1="488.06" y1="220.73" x2="471" y2="245.92" xlink:href="#linear-gradient"/><linearGradient id="linear-gradient-5" x1="448.1" y1="170.08" x2="448.1" y2="423.5" gradientUnits="userSpaceOnUse"><stop offset="0.06" stop-color="#fff" stop-opacity="0"/><stop offset="0.14" stop-color="#e8e3de" stop-opacity="0.14"/><stop offset="0.38" stop-color="#ab9987" stop-opacity="0.51"/><stop offset="0.61" stop-color="#7f6448" stop-opacity="0.78"/><stop offset="0.82" stop-color="#644422" stop-opacity="0.94"/><stop offset="1" stop-color="#5b3915"/></linearGradient><linearGradient id="linear-gradient-6" x1="5061.27" y1="342.7" x2="5074.3" y2="322.72" gradientTransform="translate(-4658.64)" xlink:href="#linear-gradient-3"/><linearGradient id="linear-gradient-7" x1="4953.71" y1="386.63" x2="4966.73" y2="366.65" gradientTransform="translate(-4658.64)" xlink:href="#linear-gradient-3"/><linearGradient id="linear-gradient-8" x1="5083.57" y1="399.89" x2="5096.6" y2="379.92" gradientTransform="translate(-4658.64)" xlink:href="#linear-gradient-3"/><linearGradient id="linear-gradient-9" x1="5140.51" y1="325.05" x2="5152.83" y2="306.15" gradientTransform="translate(-4658.64)" xlink:href="#linear-gradient-3"/><linearGradient id="linear-gradient-10" x1="482.21" y1="310.74" x2="507.76" y2="310.74" gradientUnits="userSpaceOnUse"><stop offset="0" stop-color="#fff" stop-opacity="0"/><stop offset="1" stop-color="#e2af10"/></linearGradient><linearGradient id="linear-gradient-11" x1="5135.91" y1="318.74" x2="5147.8" y2="300.5" gradientTransform="translate(-4658.64)" xlink:href="#linear-gradient-3"/><linearGradient id="linear-gradient-12" x1="473.58" y1="305.55" x2="502.96" y2="305.55" xlink:href="#linear-gradient-10"/><linearGradient id="linear-gradient-13" x1="5135.77" y1="314.55" x2="5147.66" y2="296.31" gradientTransform="translate(-4658.64)" xlink:href="#linear-gradient-3"/><linearGradient id="linear-gradient-14" x1="479.68" y1="301.57" x2="506.54" y2="301.57" xlink:href="#linear-gradient-10"/><linearGradient id="linear-gradient-15" x1="478.07" y1="309.45" x2="489.69" y2="291.63" xlink:href="#linear-gradient-3"/><linearGradient id="linear-gradient-16" x1="474.45" y1="296.78" x2="506.2" y2="296.78" xlink:href="#linear-gradient-10"/><linearGradient id="linear-gradient-17" x1="5113.17" y1="353.15" x2="5126.2" y2="333.18" gradientTransform="translate(-4658.64)" xlink:href="#linear-gradient-3"/></defs><title>imagen4_1</title><g class="cls-1"><g id="Capa_2" data-name="Capa 2"><g id="Capa_1-2" data-name="Capa 1"><polyline class="cls-2" points="2.58 384.63 242.58 255.8 576.58 261.83 539.84 417.63"/><rect class="cls-3" x="0.5" y="401.13" width="538.83" height="33" transform="translate(26.03 -15.72) rotate(3.5)"/><polyline class="cls-3" points="537.82 450.57 576.58 279.01 576.58 261.83 539.84 417.63"/><g class="cls-4"><g class="cls-5"><path class="cls-6" d="M396.12,1.42c21.47,3.9,32.53,15.37,32.75,30.92,23-7.65,45.7-11.14,64.23-8.82,1.49.18,2.93.4,4.32.65,39.67,7.2,42.06,41.56,4.44,78.6C464,140,408.46,166.52,365.17,163l-1.42-.13c-.75-.09-1.51-.14-2.25-.23-1.46-.18-2.88-.4-4.26-.66s-2.91-.56-4.31-.9L166.51,130.41l-9.14-1.5c-18.23-6.78-13.52-24.78,8.72-46.68,23.36-23,56.21-33.46,83.46-32.09C291,17.17,350.92-4.31,391.63.73Q393.95,1,396.12,1.42Z"/></g><g class="cls-7"><path class="cls-8" d="M396.12,25.64c21.47,3.9,32.53,15.37,32.75,30.92,23-7.65,45.7-11.14,64.23-8.82,1.49.18,2.93.4,4.32.65C537.1,55.6,539.49,90,501.87,127c-37.86,37.27-93.4,63.75-136.7,60.18l-1.42-.13c-.75-.09-1.51-.14-2.25-.23-1.46-.18-2.87-.41-4.26-.66s-2.91-.57-4.31-.9L166.51,154.64l-9.14-1.5c-18.23-6.78-13.52-24.78,8.72-46.68,23.36-23,56.21-33.46,83.46-32.09C291,41.4,350.92,19.92,391.63,25Q393.95,25.25,396.12,25.64Z"/></g><g class="cls-9"><path class="cls-10" d="M396.12,49.87c21.47,3.9,32.53,15.37,32.75,30.92,23-7.65,45.7-11.14,64.23-8.82,1.49.18,2.93.4,4.32.65,39.67,7.2,42.06,41.56,4.44,78.6C464,188.5,408.46,215,365.17,211.41l-1.42-.13c-.75-.09-1.51-.14-2.25-.23-1.46-.18-2.88-.4-4.26-.65s-2.91-.57-4.31-.9L166.51,178.87l-9.14-1.5c-18.23-6.78-13.52-24.78,8.72-46.68,23.36-23,56.21-33.46,83.46-32.09,41.45-33,101.36-54.45,142.08-49.41Q393.95,49.48,396.12,49.87Z"/></g><g class="cls-11"><path class="cls-12" d="M396.12,74.1C417.6,78,428.66,89.48,428.88,105c23-7.65,45.7-11.14,64.23-8.82,1.49.18,2.93.4,4.32.65,39.67,7.2,42.06,41.57,4.44,78.61-37.86,37.27-93.4,63.75-136.7,60.18l-1.42-.13c-.75-.09-1.51-.14-2.25-.23-1.46-.18-2.88-.4-4.26-.65s-2.91-.57-4.31-.9L166.51,203.1l-9.14-1.5c-18.23-6.78-13.52-24.78,8.72-46.68,23.36-23,56.21-33.46,83.46-32.09,41.45-33,101.36-54.45,142.08-49.41Q393.95,73.71,396.12,74.1Z"/></g><g class="cls-13"><path class="cls-14" d="M396.12,98.33c21.47,3.9,32.53,15.37,32.75,30.92,23-7.65,45.7-11.14,64.23-8.82,1.49.18,2.93.4,4.32.65,39.67,7.21,42.06,41.57,4.44,78.61C464,237,408.46,263.44,365.17,259.87l-1.42-.13c-.75-.09-1.51-.14-2.25-.23-1.46-.18-2.88-.4-4.26-.65s-2.91-.57-4.31-.91L166.51,227.33l-9.14-1.5c-18.23-6.78-13.52-24.78,8.72-46.68,23.36-23,56.21-33.46,83.46-32.09,41.45-33,101.36-54.45,142.08-49.41Q393.95,97.94,396.12,98.33Z"/></g><g class="cls-15"><path class="cls-16" d="M396.12,122.56c21.47,3.89,32.53,15.37,32.75,30.92,23-7.65,45.7-11.14,64.23-8.83,1.49.18,2.93.4,4.32.65,39.69,7.11,42.06,41.57,4.44,78.61-37.86,37.26-93.4,63.75-136.7,60.18l-1.42-.13c-.75-.09-1.51-.14-2.25-.23-1.46-.18-2.88-.4-4.26-.65s-2.91-.57-4.31-.91L166.51,251.56l-9.14-1.5c-18.23-6.78-13.52-24.78,8.72-46.68,23.36-23,56.21-33.46,83.46-32.09,41.45-33,101.36-54.45,142.08-49.41Q393.95,122.17,396.12,122.56Z"/></g><g class="cls-17"><path class="cls-18" d="M396.12,146.79c21.47,3.89,32.53,15.37,32.75,30.93,23-7.65,45.7-11.14,64.23-8.83,1.49.18,2.93.4,4.32.65,39.69,7.1,42.06,41.57,4.44,78.61-37.86,37.26-93.4,63.75-136.7,60.18l-1.42-.13c-.75-.09-1.51-.14-2.25-.23-1.46-.18-2.88-.4-4.26-.65s-2.91-.57-4.31-.91L166.51,275.79l-9.14-1.51c-18.23-6.78-13.52-24.78,8.72-46.68,23.36-23,56.21-33.46,83.46-32.09,41.45-33,101.36-54.45,142.08-49.41C393.18,146.3,394.67,146.53,396.12,146.79Z"/></g><path class="cls-19" d="M396.12,171c21.47,3.89,32.53,15.37,32.75,30.93,23-7.65,45.7-11.14,64.23-8.83,1.49.18,2.93.4,4.32.65,39.67,7.21,42.06,41.57,4.44,78.61-37.86,37.26-93.4,63.75-136.7,60.18l-1.42-.13c-.75-.09-1.51-.14-2.25-.23-1.46-.17-2.88-.4-4.26-.64s-2.91-.58-4.31-.91L166.51,300l-9.14-1.51c-18.23-6.78-13.52-24.78,8.72-46.68,23.36-23,56.21-33.46,83.46-32.09,41.45-33,101.36-54.45,142.08-49.41C393.18,170.53,394.67,170.76,396.12,171Z"/></g><path class="cls-20" d="M345.13,286.57c0,11-31.81,36.11-71,56.16s-71,27.43-71,16.47,31.81-36.11,71-56.16S345.13,275.61,345.13,286.57Z"/><path class="cls-21" d="M270.81,186.59"/><polygon class="cls-22" points="246 245.54 272.84 343.82 301.51 267.81 248.08 240.34 246 245.54"/><polygon class="cls-22" points="274.84 205.88 301.51 267.81 248.08 240.34 253.59 229.81 274.84 205.88"/><polygon class="cls-23" points="238.05 179.24 274.84 205.88 253.59 229.81 238.05 179.24"/><polygon class="cls-24" points="77.11 226.99 114.06 180.48 138.58 163.81 182.77 149.09 216.06 161.78 238.17 179.24 254.41 229.03 246.52 247.45 162.51 300.15 139.78 298.78 79.08 240.65 77.11 226.99"/><polyline class="cls-25" points="243.52 247.48 225.03 335.44 272.43 342.31 246 245.54"/><polygon class="cls-26" points="226 335.57 212.97 371.57 240.1 364.9 272.87 343.57 272.47 342.06 226 335.57"/><polyline class="cls-22" points="275.64 204.52 280.63 198.32 300.44 264.26 274.84 205.88 216.47 163.31 226.75 158.81 237.53 167.44 256.45 180.81 271.34 191.31 279.34 196.8 280.46 198.16 280.51 198.28"/><polygon class="cls-25" points="88.66 328.75 227.6 336.08 162.17 299.5 139.73 298.34 88.66 328.75"/><polygon class="cls-27" points="79.1 240.34 88.66 328.84 139.81 298.88 79.1 240.34"/><polygon class="cls-28" points="88.66 328.75 113.73 364.27 212.97 371.57 226.56 336.13 88.66 328.75"/><polygon class="cls-26" points="76.07 331.52 100.82 356.81 113.73 364.27 88.66 328.84 76.07 331.52"/><polyline class="cls-24" points="79.1 240.34 76.07 331.52 67.52 259.51 78.51 241.31 79.1 240.34 73.92 205.63 67.52 259.51"/><polygon class="cls-25" points="76.07 331.52 89.25 328.84 79.08 240.65 76.07 331.52"/><polyline class="cls-23" points="73.92 204.15 77.11 226.99 114.06 180.48 74.51 204.23"/><polygon class="cls-24" points="216.47 163.31 225.81 159.06 183.54 149.97 216.47 163.31"/><polygon class="cls-27" points="161.88 299.79 225.54 336.08 244.21 248.09 161.88 299.79"/><path class="cls-29" d="M226.55,278.11"/><path class="cls-30" d="M226,201.59c0,22.09-23.9,47-54.5,47s-53.75-12.16-53.75-34.25,27.9-47.75,58.5-47.75S226,179.5,226,201.59Z"/><path class="cls-31" d="M219,202.36c0,19.27-20.84,41-47.53,41s-46.87-10.6-46.87-29.87,24.33-41.64,51-41.64S219,183.1,219,202.36Z"/><polygon class="cls-32" points="167.7 180.14 178.7 179.79 171.72 188.71 166.03 188.6 174.02 182.2 167.16 182.09 167.7 180.14"/><polygon class="cls-32" points="180.59 180.05 184.51 180.05 177.34 186.96 182.76 186.96 182.68 188.88 173.26 188.88 180.59 180.05"/><ellipse class="cls-31" cx="153.89" cy="277.13" rx="7.75" ry="6.27"/><ellipse class="cls-33" cx="153.89" cy="277.13" rx="5.4" ry="4.36"/><ellipse class="cls-31" cx="153.89" cy="277.13" rx="4.07" ry="3.29"/><ellipse class="cls-34" cx="153.89" cy="277.13" rx="1.58" ry="1.25"/><g id="_Grupo_" data-name="&lt;Grupo&gt;"><g id="_Grupo_2" data-name="&lt;Grupo&gt;"><polygon id="_Trazado_" data-name="&lt;Trazado&gt;" class="cls-35" points="478.4 353.19 409.64 313.49 443.55 293.92 512.3 333.61 478.4 353.19"/><g id="_Grupo_3" data-name="&lt;Grupo&gt;"><path id="_Trazado_compuesto_" data-name="&lt;Trazado compuesto&gt;" class="cls-36" d="M478.17,350.71l-64.23-37.08,29.56-17.07,64.23,37.08Zm-62-37.08,62,35.8,27.34-15.79-62-35.8Z"/></g><g id="_Grupo_4" data-name="&lt;Grupo&gt;"><path id="_Trazado_2" data-name="&lt;Trazado&gt;" class="cls-36" d="M462.61,323.36c-1-1.4-1-1.93-.23-2.39a3.31,3.31,0,0,1,3.25.2,3.52,3.52,0,0,1,1.62,1.65l.06.14,2.06-.54,0-.1a4.36,4.36,0,0,0-1.66-1.71l1.79-1-1.45-.84-1.86,1.07a7,7,0,0,0-5.84.19c-1.85,1.07-1.2,2.42-.21,3.73.84,1.14.82,1.82-.07,2.33a3.9,3.9,0,0,1-3.69-.22,3.81,3.81,0,0,1-1.78-1.91l-.05-.15-2.05.56,0,.09a4.38,4.38,0,0,0,1.9,2.06l-1.84,1.06,1.45.84,1.93-1.12a7.42,7.42,0,0,0,6.15-.2C463.66,326.14,463.83,325,462.61,323.36Z"/><g id="_Grupo_5" data-name="&lt;Grupo&gt;"><path id="_Trazado_compuesto_2" data-name="&lt;Trazado compuesto&gt;" class="cls-36" d="M449.82,330c-6.15-3.55-6.15-9.33,0-12.87s16.15-3.55,22.3,0,6.15,9.33,0,12.87S456,333.54,449.82,330ZM471,317.75c-5.54-3.2-14.55-3.2-20.08,0s-5.54,8.4,0,11.59,14.55,3.2,20.08,0S476.55,321,471,317.75Z"/></g></g><polygon id="_Trazado_3" data-name="&lt;Trazado&gt;" class="cls-37" points="478.4 353.19 409.64 313.49 443.55 293.92 512.3 333.61 478.4 353.19"/></g><g id="_Grupo_6" data-name="&lt;Grupo&gt;"><polygon id="_Trazado_4" data-name="&lt;Trazado&gt;" class="cls-35" points="481.96 340.08 413.2 300.38 447.1 280.81 515.86 320.5 481.96 340.08"/><g id="_Grupo_7" data-name="&lt;Grupo&gt;"><path id="_Trazado_compuesto_3" data-name="&lt;Trazado compuesto&gt;" class="cls-36" d="M481.73,337.6l-64.23-37.08,29.56-17.07,64.23,37.08Zm-62-37.08,62,35.8,27.34-15.79-62-35.8Z"/></g><g id="_Grupo_8" data-name="&lt;Grupo&gt;"><path id="_Trazado_5" data-name="&lt;Trazado&gt;" class="cls-36" d="M466.16,310.25c-1-1.4-1-1.93-.23-2.39a3.31,3.31,0,0,1,3.25.2,3.52,3.52,0,0,1,1.62,1.65l.06.14,2.06-.54,0-.1a4.36,4.36,0,0,0-1.66-1.71l1.79-1-1.45-.84-1.86,1.07a7,7,0,0,0-5.84.19c-1.85,1.07-1.2,2.42-.21,3.73.84,1.14.82,1.82-.07,2.33a3.9,3.9,0,0,1-3.69-.22,3.8,3.8,0,0,1-1.78-1.91l-.05-.15-2.05.56,0,.09a4.38,4.38,0,0,0,1.9,2.06l-1.84,1.06,1.45.84,1.93-1.12a7.42,7.42,0,0,0,6.15-.2C467.22,313,467.38,311.93,466.16,310.25Z"/><g id="_Grupo_9" data-name="&lt;Grupo&gt;"><path id="_Trazado_compuesto_4" data-name="&lt;Trazado compuesto&gt;" class="cls-36" d="M453.38,316.88c-6.15-3.55-6.15-9.33,0-12.87s16.15-3.55,22.3,0,6.15,9.33,0,12.87S459.53,320.43,453.38,316.88Zm21.19-12.23c-5.54-3.2-14.55-3.2-20.08,0s-5.54,8.4,0,11.59,14.55,3.2,20.08,0S480.11,307.84,474.57,304.65Z"/></g></g><polygon id="_Trazado_6" data-name="&lt;Trazado&gt;" class="cls-38" points="481.96 340.08 413.2 300.38 447.1 280.81 515.86 320.5 481.96 340.08"/></g><path id="_Trazado_7" data-name="&lt;Trazado&gt;" class="cls-39" d="M387.82,310.62h15.09a12.17,12.17,0,0,0,6-1.56l49.32-27.71,50.7,29.27,3.88-1.24,12.06-7.26a2.09,2.09,0,0,0,0-3.6L458.9,260.33Z"/><g id="_Grupo_10" data-name="&lt;Grupo&gt;"><path id="_Trazado_8" data-name="&lt;Trazado&gt;" class="cls-40" d="M510.93,245.77,456.76,214.5a12.51,12.51,0,0,0-6.26-1.68H446.2a12.51,12.51,0,0,0-6.26,1.68l-54.17,31.27a5.47,5.47,0,0,0-2.74,4.74v57.33a1.74,1.74,0,0,0,.91,1.53h0l2.08,1.21-.35-1.22,57.18-33h11l57.18,33-.35,1.22,2.08-1.21h0a1.73,1.73,0,0,0,.91-1.53V250.51A5.47,5.47,0,0,0,510.93,245.77Z"/><path id="_Trazado_9" data-name="&lt;Trazado&gt;" class="cls-41" d="M508.78,247l-54.17-31.27a12.51,12.51,0,0,0-6.26-1.68h0a12.51,12.51,0,0,0-6.26,1.68L387.93,247a5.47,5.47,0,0,0-2.74,4.74V309.1a1.75,1.75,0,0,0,2.63,1.52l55.29-31.92a8.13,8.13,0,0,1,4.07-1.09h2.35a8.13,8.13,0,0,1,4.07,1.09l55.29,31.92a1.75,1.75,0,0,0,2.63-1.52V251.77A5.47,5.47,0,0,0,508.78,247Z"/><polygon id="_Trazado_10" data-name="&lt;Trazado&gt;" class="cls-35" points="449.75 220.43 502.02 230.99 502.02 256.99 449.58 227.47 449.75 220.43"/><polygon id="_Trazado_11" data-name="&lt;Trazado&gt;" class="cls-42" points="449.75 220.43 502.02 230.99 502.02 256.99 449.58 227.47 449.75 220.43"/><polygon id="_Trazado_12" data-name="&lt;Trazado&gt;" class="cls-36" points="446.19 223.77 446.14 224.67 497.41 235.06 497.41 259.43 498.46 260.33 498.46 234.33 446.19 223.77"/><path id="_Trazado_13" data-name="&lt;Trazado&gt;" class="cls-35" d="M454.61,220a12.51,12.51,0,0,0-12.51,0l-35.8,20.67V286h.09l35.71-20.62a12.51,12.51,0,0,1,12.51,0L490.32,286h.09V240.71Z"/><path id="_Trazado_14" data-name="&lt;Trazado&gt;" class="cls-43" d="M448.35,224.17a12.51,12.51,0,0,0-6.26,1.68L385.19,258.7V309.1a1.75,1.75,0,0,0,2.63,1.52l55.29-31.92a8.13,8.13,0,0,1,4.07-1.09h2.35a8.13,8.13,0,0,1,4.07,1.09l55.29,31.92a1.75,1.75,0,0,0,2.63-1.52V258.7l-56.91-32.85A12.51,12.51,0,0,0,448.35,224.17Z"/><g id="_Grupo_11" data-name="&lt;Grupo&gt;"><path id="_Trazado_15" data-name="&lt;Trazado&gt;" class="cls-44" d="M499.26,294.61,460.6,272.29a3.41,3.41,0,0,1-1.7-2.95V238.13a1.25,1.25,0,0,1,1.87-1.08l39.14,22.6a3.34,3.34,0,0,1,1.67,2.89v30.73A1.55,1.55,0,0,1,499.26,294.61Z"/><path id="_Trazado_16" data-name="&lt;Trazado&gt;" class="cls-45" d="M498.55,295.12,459.89,272.8a3.41,3.41,0,0,1-1.7-2.95V238.64a1.25,1.25,0,0,1,1.87-1.08l39.14,22.6a3.34,3.34,0,0,1,1.67,2.89v30.73A1.55,1.55,0,0,1,498.55,295.12Z"/><polygon id="_Trazado_17" data-name="&lt;Trazado&gt;" class="cls-46" points="496.96 269.52 491.47 266.36 491.47 261.7 496.96 264.87 496.96 269.52"/></g><g id="_Grupo_12" data-name="&lt;Grupo&gt;"><path id="_Trazado_18" data-name="&lt;Trazado&gt;" class="cls-47" d="M396.76,294.61l38.66-22.32a3.41,3.41,0,0,0,1.7-2.95V238.13a1.25,1.25,0,0,0-1.87-1.08l-39.14,22.6a3.34,3.34,0,0,0-1.67,2.89v30.73A1.55,1.55,0,0,0,396.76,294.61Z"/><path id="_Trazado_19" data-name="&lt;Trazado&gt;" class="cls-48" d="M397.47,295.12l38.66-22.32a3.41,3.41,0,0,0,1.7-2.95V238.64a1.25,1.25,0,0,0-1.87-1.08l-39.14,22.6a3.34,3.34,0,0,0-1.67,2.89v30.73A1.55,1.55,0,0,0,397.47,295.12Z"/><polygon id="_Trazado_20" data-name="&lt;Trazado&gt;" class="cls-46" points="399.06 269.52 404.54 266.36 404.54 261.7 399.06 264.87 399.06 269.52"/></g><path id="_Trazado_21" data-name="&lt;Trazado&gt;" class="cls-49" d="M507.52,273.19l-52.91-30.55a12.51,12.51,0,0,0-12.51,0l-52.91,30.55v29.66a1.31,1.31,0,0,0,2,1.14l50.94-29.41a12.51,12.51,0,0,1,12.51,0L505.55,304a1.31,1.31,0,0,0,2-1.14Z"/><path id="_Trazado_22" data-name="&lt;Trazado&gt;" class="cls-50" d="M451.45,224.3a12.37,12.37,0,0,0-6.7.15V278a8.13,8.13,0,0,1,2.44-.38h2.35a8.13,8.13,0,0,1,1.92.23Z"/><g id="_Grupo_13" data-name="&lt;Grupo&gt;"><line class="cls-51" x1="387.12" y1="251.58" x2="387.12" y2="252.36"/><line class="cls-52" x1="387.12" y1="253.91" x2="387.12" y2="305.67"/><line class="cls-51" x1="387.12" y1="306.45" x2="387.12" y2="307.23"/></g><g id="_Grupo_14" data-name="&lt;Grupo&gt;"><line class="cls-51" x1="509.88" y1="251.84" x2="509.88" y2="252.63"/><line class="cls-52" x1="509.88" y1="254.18" x2="509.88" y2="305.94"/><line class="cls-51" x1="509.88" y1="306.71" x2="509.88" y2="307.5"/></g></g><g id="_Grupo_15" data-name="&lt;Grupo&gt;"><path id="_Trazado_23" data-name="&lt;Trazado&gt;" class="cls-53" d="M426.51,329.52c0-4.49-7.19-8.13-16-8.13a30.41,30.41,0,0,0-5.41.48c-5.24,1.34-8.83,4.09-8.83,7.26,0,4.49,7.19,8.13,16,8.13a30.41,30.41,0,0,0,5.41-.48C422.91,335.44,426.51,332.7,426.51,329.52Z"/><g id="_Grupo_16" data-name="&lt;Grupo&gt;"><path id="_Trazado_24" data-name="&lt;Trazado&gt;" class="cls-54" d="M422.35,325.16c-2.51-2.84-8.12-4.82-14.65-4.82s-12.15,2-14.65,4.82h-1.4v3.32c0,4.49,7.19,8.13,16,8.13s16-3.64,16-8.13v-3.32Z"/><ellipse id="_Trazado_25" data-name="&lt;Trazado&gt;" class="cls-55" cx="407.69" cy="325.16" rx="16.05" ry="8.13"/><ellipse id="_Trazado_26" data-name="&lt;Trazado&gt;" class="cls-56" cx="407.69" cy="324.77" rx="12.42" ry="5.53"/></g></g><g id="_Grupo_17" data-name="&lt;Grupo&gt;"><path id="_Trazado_27" data-name="&lt;Trazado&gt;" class="cls-57" d="M318.94,373.45c0-4.49-7.19-8.13-16-8.13a30.41,30.41,0,0,0-5.41.48c-5.24,1.34-8.83,4.09-8.83,7.26,0,4.49,7.19,8.13,16,8.13a30.41,30.41,0,0,0,5.41-.48C315.35,379.37,318.94,376.63,318.94,373.45Z"/><g id="_Grupo_18" data-name="&lt;Grupo&gt;"><path id="_Trazado_28" data-name="&lt;Trazado&gt;" class="cls-54" d="M314.78,369.1c-2.51-2.84-8.12-4.82-14.65-4.82s-12.15,2-14.65,4.82h-1.4v3.32c0,4.49,7.19,8.13,16,8.13s16-3.64,16-8.13V369.1Z"/><ellipse id="_Trazado_29" data-name="&lt;Trazado&gt;" class="cls-55" cx="300.12" cy="369.1" rx="16.05" ry="8.13"/><ellipse id="_Trazado_30" data-name="&lt;Trazado&gt;" class="cls-56" cx="300.12" cy="368.7" rx="12.42" ry="5.53"/></g></g><g id="_Grupo_19" data-name="&lt;Grupo&gt;"><path id="_Trazado_31" data-name="&lt;Trazado&gt;" class="cls-58" d="M448.8,386.72c0-4.49-7.19-8.13-16-8.13a30.41,30.41,0,0,0-5.41.48c-5.24,1.34-8.83,4.09-8.83,7.26,0,4.49,7.19,8.13,16,8.13A30.41,30.41,0,0,0,440,394C445.21,392.64,448.8,389.89,448.8,386.72Z"/><g id="_Grupo_20" data-name="&lt;Grupo&gt;"><path id="_Trazado_32" data-name="&lt;Trazado&gt;" class="cls-54" d="M444.64,382.36c-2.51-2.84-8.12-4.82-14.65-4.82s-12.15,2-14.65,4.82h-1.4v3.32c0,4.49,7.19,8.13,16,8.13s16-3.64,16-8.13v-3.32Z"/><ellipse id="_Trazado_33" data-name="&lt;Trazado&gt;" class="cls-55" cx="429.99" cy="382.36" rx="16.05" ry="8.13"/><ellipse id="_Trazado_34" data-name="&lt;Trazado&gt;" class="cls-56" cx="429.99" cy="381.97" rx="12.42" ry="5.53"/></g></g><g id="_Grupo_21" data-name="&lt;Grupo&gt;"><path id="_Trazado_35" data-name="&lt;Trazado&gt;" class="cls-59" d="M504.45,312.58c0-4.25-6.8-7.69-15.18-7.69a28.77,28.77,0,0,0-5.12.45c-5,1.27-8.35,3.87-8.35,6.87,0,4.25,6.8,7.69,15.18,7.69a28.77,28.77,0,0,0,5.12-.45C501.05,318.19,504.45,315.59,504.45,312.58Z"/><g id="_Grupo_22" data-name="&lt;Grupo&gt;"><g id="_Grupo_23" data-name="&lt;Grupo&gt;"><path id="_Trazado_36" data-name="&lt;Trazado&gt;" class="cls-60" d="M498.47,307.71c-2.29-2.59-7.41-4.4-13.38-4.4s-11.09,1.81-13.38,4.4h-1.27v3c0,4.1,6.56,7.42,14.65,7.42s14.65-3.32,14.65-7.42v-3Z"/><path id="_Trazado_37" data-name="&lt;Trazado&gt;" class="cls-61" d="M498.47,307.71c-2.29-2.59-7.41-4.4-13.38-4.4s-11.09,1.81-13.38,4.4h-1.27v3c0,4.1,6.56,7.42,14.65,7.42s14.65-3.32,14.65-7.42v-3Z"/><ellipse id="_Trazado_38" data-name="&lt;Trazado&gt;" class="cls-46" cx="485.1" cy="307.71" rx="14.65" ry="7.42"/><ellipse id="_Trazado_39" data-name="&lt;Trazado&gt;" class="cls-62" cx="485.1" cy="307.35" rx="11.34" ry="5.05"/><path id="_Trazado_40" data-name="&lt;Trazado&gt;" class="cls-46" d="M483.92,307.21c.69-1,.73-1.37.16-1.7a2.35,2.35,0,0,0-2.3.14,2.49,2.49,0,0,0-1.15,1.17l0,.1-1.46-.38,0-.07a3.09,3.09,0,0,1,1.17-1.21l-1.27-.73,1-.59,1.32.76a5,5,0,0,1,4.13.13c1.31.76.85,1.72.15,2.64s-.58,1.29,0,1.65a2.76,2.76,0,0,0,2.61-.16,2.69,2.69,0,0,0,1.26-1.35l0-.11,1.45.4,0,.06a3.1,3.1,0,0,1-1.34,1.46l1.3.75-1,.59-1.37-.79a5.26,5.26,0,0,1-4.36-.14C483.17,309.18,483.06,308.4,483.92,307.21Z"/></g><path id="_Trazado_41" data-name="&lt;Trazado&gt;" class="cls-63" d="M499.06,306.71c0-4.1-6.56-7.42-14.65-7.42a27.76,27.76,0,0,0-4.94.43c-4.78,1.22-8.06,3.73-8.06,6.63,0,4.1,6.56,7.42,14.65,7.42a27.76,27.76,0,0,0,4.94-.43C495.78,312.11,499.06,309.61,499.06,306.71Z"/><g id="_Grupo_24" data-name="&lt;Grupo&gt;"><path id="_Trazado_42" data-name="&lt;Trazado&gt;" class="cls-60" d="M497.65,302.52c-2.29-2.59-7.41-4.4-13.38-4.4s-11.09,1.81-13.38,4.4h-1.27v3c0,4.1,6.56,7.42,14.65,7.42s14.65-3.32,14.65-7.42v-3Z"/><path id="_Trazado_43" data-name="&lt;Trazado&gt;" class="cls-64" d="M497.65,302.52c-2.29-2.59-7.41-4.4-13.38-4.4s-11.09,1.81-13.38,4.4h-1.27v3c0,4.1,6.56,7.42,14.65,7.42s14.65-3.32,14.65-7.42v-3Z"/><ellipse id="_Trazado_44" data-name="&lt;Trazado&gt;" class="cls-46" cx="484.27" cy="302.52" rx="14.65" ry="7.42"/><ellipse id="_Trazado_45" data-name="&lt;Trazado&gt;" class="cls-62" cx="484.27" cy="302.16" rx="11.34" ry="5.05"/><path id="_Trazado_46" data-name="&lt;Trazado&gt;" class="cls-46" d="M483.1,302c.69-1,.73-1.37.16-1.7a2.35,2.35,0,0,0-2.3.14,2.49,2.49,0,0,0-1.15,1.17l0,.1-1.46-.38,0-.07a3.09,3.09,0,0,1,1.17-1.21l-1.27-.73,1-.59,1.32.76a5,5,0,0,1,4.13.13c1.31.76.85,1.72.15,2.64s-.58,1.29,0,1.65a2.76,2.76,0,0,0,2.61-.16,2.69,2.69,0,0,0,1.26-1.35l0-.11,1.45.4,0,.06a3.1,3.1,0,0,1-1.34,1.46l1.3.75-1,.59-1.37-.79a5.26,5.26,0,0,1-4.36-.14C482.35,304,482.23,303.2,483.1,302Z"/></g><path id="_Trazado_47" data-name="&lt;Trazado&gt;" class="cls-65" d="M498.92,302.52c0-4.1-6.56-7.42-14.65-7.42a27.76,27.76,0,0,0-4.94.43c-4.78,1.22-8.06,3.73-8.06,6.63,0,4.1,6.56,7.42,14.65,7.42a27.76,27.76,0,0,0,4.94-.43C495.64,307.92,498.92,305.42,498.92,302.52Z"/><g id="_Grupo_25" data-name="&lt;Grupo&gt;"><path id="_Trazado_48" data-name="&lt;Trazado&gt;" class="cls-60" d="M499.3,298.54c-2.29-2.59-7.41-4.4-13.38-4.4s-11.09,1.81-13.38,4.4h-1.27v3c0,4.1,6.56,7.42,14.65,7.42s14.65-3.32,14.65-7.42v-3Z"/><path id="_Trazado_49" data-name="&lt;Trazado&gt;" class="cls-66" d="M499.3,298.54c-2.29-2.59-7.41-4.4-13.38-4.4s-11.09,1.81-13.38,4.4h-1.27v3c0,4.1,6.56,7.42,14.65,7.42s14.65-3.32,14.65-7.42v-3Z"/><ellipse id="_Trazado_50" data-name="&lt;Trazado&gt;" class="cls-46" cx="485.92" cy="298.54" rx="14.65" ry="7.42"/><ellipse id="_Trazado_51" data-name="&lt;Trazado&gt;" class="cls-62" cx="485.92" cy="298.18" rx="11.34" ry="5.05"/><path id="_Trazado_52" data-name="&lt;Trazado&gt;" class="cls-46" d="M484.75,298c.69-1,.73-1.37.16-1.7a2.35,2.35,0,0,0-2.3.14,2.49,2.49,0,0,0-1.15,1.17l0,.1-1.46-.38,0-.07a3.09,3.09,0,0,1,1.17-1.21l-1.27-.73,1-.59,1.32.76a5,5,0,0,1,4.13.13c1.31.76.85,1.72.15,2.64s-.58,1.29,0,1.65a2.76,2.76,0,0,0,2.61-.16,2.69,2.69,0,0,0,1.26-1.35l0-.11,1.45.4,0,.06a3.1,3.1,0,0,1-1.34,1.46l1.3.75-1,.59-1.37-.79a5.26,5.26,0,0,1-4.36-.14C484,300,483.88,299.22,484.75,298Z"/></g><path id="_Trazado_53" data-name="&lt;Trazado&gt;" class="cls-67" d="M499.1,295.29c-2.38-2.47-7.38-4.17-13.18-4.17-6.12,0-11.37,1.9-13.56,4.61a4,4,0,0,0-.27,1.4c0,4.1,6.56,7.42,14.65,7.42a27.76,27.76,0,0,0,4.94-.43c4.78-1.22,8.06-3.73,8.06-6.63A4.18,4.18,0,0,0,499.1,295.29Z"/><g id="_Grupo_26" data-name="&lt;Grupo&gt;"><path id="_Trazado_54" data-name="&lt;Trazado&gt;" class="cls-60" d="M497.48,293.76c-2.29-2.59-7.41-4.4-13.38-4.4s-11.09,1.81-13.38,4.4h-1.27v3c0,4.1,6.56,7.42,14.65,7.42s14.65-3.32,14.65-7.42v-3Z"/><path id="_Trazado_55" data-name="&lt;Trazado&gt;" class="cls-68" d="M497.48,293.76c-2.29-2.59-7.41-4.4-13.38-4.4s-11.09,1.81-13.38,4.4h-1.27v3c0,4.1,6.56,7.42,14.65,7.42s14.65-3.32,14.65-7.42v-3Z"/><ellipse id="_Trazado_56" data-name="&lt;Trazado&gt;" class="cls-46" cx="484.1" cy="293.76" rx="14.65" ry="7.42"/><ellipse id="_Trazado_57" data-name="&lt;Trazado&gt;" class="cls-62" cx="484.1" cy="293.4" rx="11.34" ry="5.05"/><path id="_Trazado_58" data-name="&lt;Trazado&gt;" class="cls-46" d="M482.93,293.26c.69-1,.73-1.37.16-1.7a2.35,2.35,0,0,0-2.3.14,2.49,2.49,0,0,0-1.15,1.17l0,.1-1.46-.38,0-.07a3.09,3.09,0,0,1,1.17-1.21l-1.27-.73,1-.59,1.32.76a5,5,0,0,1,4.13.13c1.31.76.85,1.72.15,2.64s-.58,1.29,0,1.65a2.76,2.76,0,0,0,2.61-.16,2.69,2.69,0,0,0,1.26-1.35l0-.11,1.45.4,0,.06a3.1,3.1,0,0,1-1.34,1.46l1.3.75-1,.59-1.37-.79a5.26,5.26,0,0,1-4.36-.14C482.18,295.23,482.06,294.44,482.93,293.26Z"/></g></g></g><g id="_Grupo_27" data-name="&lt;Grupo&gt;"><path id="_Trazado_59" data-name="&lt;Trazado&gt;" class="cls-69" d="M478.41,340c0-4.49-7.19-8.13-16-8.13a30.41,30.41,0,0,0-5.41.48c-5.24,1.34-8.83,4.09-8.83,7.26,0,4.49,7.19,8.13,16,8.13a30.41,30.41,0,0,0,5.41-.48C474.81,345.9,478.41,343.15,478.41,340Z"/><g id="_Grupo_28" data-name="&lt;Grupo&gt;"><path id="_Trazado_60" data-name="&lt;Trazado&gt;" class="cls-54" d="M474.25,335.62c-2.51-2.84-8.12-4.82-14.65-4.82s-12.15,2-14.65,4.82h-1.4v3.32c0,4.49,7.19,8.13,16,8.13s16-3.64,16-8.13v-3.32Z"/><ellipse id="_Trazado_61" data-name="&lt;Trazado&gt;" class="cls-55" cx="459.59" cy="335.62" rx="16.05" ry="8.13"/><ellipse id="_Trazado_62" data-name="&lt;Trazado&gt;" class="cls-56" cx="459.59" cy="335.22" rx="12.42" ry="5.53"/></g></g></g></g></g></g></svg>