<svg xmlns="http://www.w3.org/2000/svg" viewBox="0 0 627.71 331.76"><defs><style>.cls-1{fill:#7c7c7d;opacity:0.29;}.cls-2{fill:#1f1f1f;}.cls-3{fill:#80b7b2;}.cls-4{fill:#8fbfb7;}.cls-5{fill:#a4d5cd;}.cls-6{fill:#9bcdc3;}.cls-7{fill:#87bab3;}.cls-8{fill:#6b6b6c;}.cls-9{fill:#616164;}.cls-10,.cls-19,.cls-20{fill:none;stroke-miterlimit:10;}.cls-10,.cls-20{stroke:#7a797b;}.cls-10{stroke-width:1.1px;}.cls-11{fill:#4e4e50;}.cls-12{fill:#2b2c2c;}.cls-13{fill:#d39b9b;}.cls-14{fill:#ceb2b2;}.cls-15{fill:#ceaeae;}.cls-16{fill:#c69999;}.cls-17{fill:#b79291;}.cls-18{fill:#e0b3b3;}.cls-19{stroke:#1f1f1f;}.cls-19,.cls-20{stroke-width:1.36px;}</style></defs><title>imagen1_1</title><g id="Capa_2" data-name="Capa 2"><g id="Capa_1-2" data-name="Capa 1"><ellipse class="cls-1" cx="130.97" cy="224.18" rx="130.97" ry="30.71"/><path class="cls-2" d="M58.52,42.57"/><polygon class="cls-3" points="85.04 109.5 56.34 221.07 25.7 134.78 82.82 103.6 85.04 109.5"/><polygon class="cls-3" points="54.21 64.47 25.7 134.78 82.82 103.6 76.93 91.63 54.21 64.47"/><polygon class="cls-4" points="93.54 34.23 54.21 64.47 76.93 91.63 93.54 34.23"/><polygon class="cls-5" points="265.62 88.44 226.11 35.64 199.9 16.72 152.65 0 117.05 14.41 93.42 34.23 76.06 90.75 84.48 111.67 174.3 171.49 198.61 169.94 263.51 103.95 265.62 88.44"/><polyline class="cls-6" points="87.69 111.69 107.47 211.56 56.79 219.36 85.04 109.5"/><polygon class="cls-7" points="106.43 211.7 120.36 252.57 91.35 245 56.31 220.78 56.74 219.07 106.43 211.7"/><polyline class="cls-3" points="53.35 62.93 48.02 55.89 26.84 130.75 54.21 64.47 116.62 16.15 105.62 11.04 94.1 20.83 73.87 36.02 57.95 47.94 49.4 54.17 48.19 55.7 48.14 55.85"/><polygon class="cls-6" points="253.27 203.96 104.71 212.28 174.68 170.75 198.66 169.44 253.27 203.96"/><polygon class="cls-7" points="263.49 103.6 253.27 204.06 198.58 170.05 263.49 103.6"/><polygon class="cls-4" points="253.27 203.96 226.46 244.29 120.36 252.57 105.83 212.34 253.27 203.96"/><polygon class="cls-7" points="266.73 207.11 240.27 235.82 226.46 244.29 253.27 204.06 266.73 207.11"/><polyline class="cls-5" points="263.49 103.6 266.73 207.11 275.88 125.35 264.12 104.7 263.49 103.6 269.03 64.19 275.88 125.35"/><polygon class="cls-6" points="266.73 207.11 252.64 204.06 263.51 103.95 266.73 207.11"/><polyline class="cls-4" points="269.03 62.51 265.62 88.44 226.11 35.64 268.4 62.6"/><polygon class="cls-5" points="116.62 16.15 106.62 11.32 151.82 1 116.62 16.15"/><polygon class="cls-7" points="174.99 171.08 106.92 212.28 86.96 112.39 174.99 171.08"/><path class="cls-8" d="M117.51,60.85c0,25.08,25.55,53.36,58.27,53.36s57.47-13.8,57.47-38.88S203.41,21.12,170.7,21.12,117.51,35.77,117.51,60.85Z"/><path class="cls-9" d="M124.91,61.72c0,21.87,22.29,46.53,50.82,46.53s50.12-12,50.12-33.91-26-47.27-54.55-47.27S124.91,39.85,124.91,61.72Z"/><polygon class="cls-10" points="179.81 36.49 168.04 36.1 175.51 46.23 181.59 46.11 173.04 38.84 180.38 38.72 179.81 36.49"/><polygon class="cls-10" points="166.02 36.39 161.83 36.39 169.49 44.24 163.7 44.24 163.79 46.42 173.86 46.42 166.02 36.39"/><ellipse class="cls-9" cx="194.57" cy="146.6" rx="8.29" ry="7.11"/><ellipse class="cls-11" cx="194.57" cy="146.6" rx="5.77" ry="4.95"/><ellipse class="cls-9" cx="194.57" cy="146.6" rx="4.35" ry="3.74"/><ellipse class="cls-12" cx="194.57" cy="146.6" rx="1.69" ry="1.42"/><ellipse class="cls-1" cx="466.14" cy="293.88" rx="161.57" ry="37.88"/><path class="cls-2" d="M537.82,53.25"/><polygon class="cls-13" points="505.1 135.82 540.49 273.45 578.3 167 507.83 128.54 505.1 135.82"/><polygon class="cls-13" points="543.13 80.27 578.3 167 507.83 128.54 515.11 113.78 543.13 80.27"/><polygon class="cls-14" points="494.61 42.96 543.13 80.27 515.11 113.78 494.61 42.96"/><polygon class="cls-15" points="282.33 109.84 331.07 44.7 363.41 21.36 421.69 0.74 465.61 18.51 494.76 42.96 516.18 112.69 505.79 138.49 394.98 212.29 365 210.37 284.94 128.97 282.33 109.84"/><polyline class="cls-16" points="501.83 138.52 477.43 261.72 539.95 271.34 505.1 135.82"/><polygon class="cls-16" points="478.71 261.89 461.53 312.31 497.32 302.97 540.54 273.1 540 270.98 478.71 261.89"/><polyline class="cls-13" points="544.18 78.37 550.77 69.69 576.9 162.03 543.13 80.27 466.14 20.66 479.71 14.36 493.92 26.44 518.87 45.17 538.52 59.87 549.07 67.56 550.55 69.46 550.61 69.63"/><polygon class="cls-16" points="297.57 252.35 480.83 262.61 394.52 211.38 364.93 209.76 297.57 252.35"/><polygon class="cls-17" points="284.96 128.54 297.57 252.47 365.04 210.52 284.96 128.54"/><polygon class="cls-18" points="297.57 252.35 330.64 302.09 461.53 312.31 479.45 262.68 297.57 252.35"/><polygon class="cls-16" points="280.97 256.23 313.61 291.64 330.64 302.09 297.57 252.47 280.97 256.23"/><polyline class="cls-15" points="284.96 128.54 280.97 256.23 269.68 155.37 284.19 129.89 284.96 128.54 278.13 79.92 269.68 155.37"/><polygon class="cls-16" points="280.97 256.23 298.35 252.47 284.94 128.97 280.97 256.23"/><polyline class="cls-14" points="278.13 77.84 282.33 109.84 331.07 44.7 278.9 77.96"/><polygon class="cls-15" points="466.14 20.66 478.47 14.71 422.71 1.97 466.14 20.66"/><polygon class="cls-17" points="394.14 211.78 478.11 262.61 502.73 139.38 394.14 211.78"/><path class="cls-19" d="M479.45,185.27"/><path class="cls-8" d="M478.67,78.11c0,30.94-31.52,65.82-71.88,65.82s-70.89-17-70.89-48,36.8-66.87,77.16-66.87S478.67,47.18,478.67,78.11Z"/><path class="cls-9" d="M469.54,79.19c0,27-27.49,57.4-62.69,57.4S345,121.74,345,94.76s32.09-58.32,67.29-58.32S469.54,52.21,469.54,79.19Z"/><polygon class="cls-20" points="401.82 48.06 416.33 47.58 407.12 60.07 399.62 59.92 410.16 50.96 401.11 50.8 401.82 48.06"/><polygon class="cls-20" points="418.83 47.94 423.99 47.94 414.54 57.63 421.69 57.63 421.58 60.31 409.16 60.31 418.83 47.94"/><ellipse class="cls-9" cx="383.6" cy="183.89" rx="10.22" ry="8.77"/><ellipse class="cls-11" cx="383.6" cy="183.89" rx="7.12" ry="6.11"/><ellipse class="cls-9" cx="383.6" cy="183.89" rx="5.37" ry="4.61"/><ellipse class="cls-12" cx="383.6" cy="183.89" rx="2.08" ry="1.75"/></g></g></svg>