<svg xmlns="http://www.w3.org/2000/svg" viewBox="0 0 506.02 467.48"><defs><style>.cls-1{fill:#dddad9;}.cls-2{fill:#ede9e7;}.cls-3{fill:#d1cfcf;}.cls-19,.cls-4{fill:#774d9a;}.cls-4{opacity:0.13;}.cls-5{fill:#7c7c7d;opacity:0.29;}.cls-6{fill:#1f1f1f;}.cls-7{fill:#80b7b2;}.cls-8{fill:#8fbfb7;}.cls-9{fill:#a4d5cd;}.cls-10{fill:#9bcdc3;}.cls-11{fill:#87bab3;}.cls-12{fill:#6b6b6c;}.cls-13{fill:#616164;}.cls-14,.cls-20,.cls-21{fill:none;stroke-miterlimit:10;}.cls-14{stroke:#7a797b;stroke-width:1.09px;}.cls-15{fill:#4e4e50;}.cls-16{fill:#2b2c2c;}.cls-17,.cls-18{fill:#d6d6d6;}.cls-18{opacity:0.43;}.cls-19{opacity:0.85;}.cls-20,.cls-21{stroke:#fff;}.cls-20{stroke-width:6.7px;}.cls-21{stroke-width:5.1px;}</style></defs><title>imagen3</title><g id="Capa_2" data-name="Capa 2"><g id="Capa_1-2" data-name="Capa 1"><polygon class="cls-1" points="431.88 447.4 47.11 467.48 45.57 424.29 430.34 403.91 431.88 447.4"/><polyline class="cls-2" points="45.77 424.36 0.21 340.85 338.96 328.98 430.55 404.28"/><polyline class="cls-3" points="0 340.48 0 373.56 47.11 467.48 45.57 424.29"/><path class="cls-4" d="M202.71,119.15c9.19-9,9-12.74,9-12.74a26.82,26.82,0,0,1-1.36-8.5h0c0-11.73,7.27-21.23,16.24-21.23H367c9,0,16.24,9.51,16.24,21.23h0c0,11.73-7.27,21.23-16.24,21.23H226.56a13,13,0,0,1-6.6-1.85C210.1,124.47,202.71,119.15,202.71,119.15Z"/><ellipse class="cls-5" cx="191.75" cy="362.59" rx="133.92" ry="29.57"/><path class="cls-6" d="M117.67,187.7"/><polygon class="cls-7" points="144.78 252.16 115.45 359.6 84.11 276.5 142.52 246.47 144.78 252.16"/><polygon class="cls-7" points="113.26 208.79 84.11 276.5 142.52 246.47 136.49 234.95 113.26 208.79"/><polygon class="cls-8" points="153.48 179.67 113.26 208.79 136.49 234.95 153.48 179.67"/><polygon class="cls-9" points="329.43 231.88 289.03 181.03 262.23 162.81 213.92 146.71 177.52 160.58 153.35 179.67 135.6 234.1 144.22 254.24 236.06 311.86 260.91 310.36 327.27 246.81 329.43 231.88"/><polyline class="cls-10" points="147.5 254.27 167.72 350.44 115.9 357.95 144.78 252.16"/><polygon class="cls-11" points="166.66 350.58 180.9 389.94 151.23 382.65 115.41 359.32 115.85 357.67 166.66 350.58"/><polyline class="cls-7" points="112.39 207.31 106.93 200.53 85.27 272.62 113.26 208.79 177.08 162.26 165.83 157.34 154.05 166.77 133.37 181.39 117.09 192.87 108.34 198.87 107.11 200.35 107.06 200.49"/><polygon class="cls-10" points="316.8 343.13 164.9 351.14 236.44 311.14 260.96 309.88 316.8 343.13"/><polygon class="cls-11" points="327.25 246.47 316.8 343.22 260.88 310.47 327.25 246.47"/><polygon class="cls-8" points="316.8 343.13 289.39 381.96 180.9 389.94 166.04 351.19 316.8 343.13"/><polygon class="cls-11" points="330.56 346.15 303.51 373.8 289.39 381.96 316.8 343.22 330.56 346.15"/><polyline class="cls-9" points="327.25 246.47 330.56 346.15 339.92 267.42 327.89 247.53 327.25 246.47 332.92 208.52 339.92 267.42"/><polygon class="cls-10" points="330.56 346.15 316.16 343.22 327.27 246.81 330.56 346.15"/><polyline class="cls-8" points="332.91 206.9 329.43 231.88 289.03 181.03 332.27 206.99"/><polygon class="cls-9" points="177.08 162.26 166.85 157.61 213.07 147.67 177.08 162.26"/><polygon class="cls-11" points="236.76 311.46 167.16 351.14 146.75 254.94 236.76 311.46"/><path class="cls-12" d="M178,205.31c0,24.15,26.13,51.38,59.58,51.38s58.76-13.29,58.76-37.44-30.5-52.2-64-52.2S178,181.16,178,205.31Z"/><path class="cls-13" d="M185.55,206.15c0,21.06,22.79,44.81,52,44.81s51.25-11.59,51.25-32.65-26.6-45.52-55.77-45.52S185.55,185.09,185.55,206.15Z"/><polygon class="cls-14" points="241.68 181.85 229.66 181.47 237.29 191.22 243.51 191.11 234.77 184.11 242.27 183.99 241.68 181.85"/><polygon class="cls-14" points="227.58 181.75 223.3 181.75 231.14 189.31 225.22 189.31 225.31 191.41 235.6 191.41 227.58 181.75"/><ellipse class="cls-13" cx="256.78" cy="287.89" rx="8.47" ry="6.85"/><ellipse class="cls-15" cx="256.78" cy="287.89" rx="5.9" ry="4.77"/><ellipse class="cls-13" cx="256.78" cy="287.89" rx="4.45" ry="3.6"/><ellipse class="cls-16" cx="256.78" cy="287.89" rx="1.73" ry="1.37"/><path class="cls-17" d="M506,42.47c-14.59-9-14.25-12.74-14.25-12.74a18,18,0,0,0,2.16-8.5h0C493.93,9.51,482.38,0,468.14,0H245.08c-14.24,0-25.79,9.51-25.79,21.23h0c0,11.73,11.55,21.23,25.79,21.23H468.14a30.4,30.4,0,0,0,10.48-1.85C494.27,47.79,506,42.47,506,42.47Z"/><path class="cls-18" d="M506,49.12c-14.59-9-14.25-12.74-14.25-12.74a18,18,0,0,0,2.16-8.5h0c0-11.73-11.55-21.23-25.79-21.23H245.08c-14.24,0-25.79,9.51-25.79,21.23h0c0,11.73,11.55,21.23,25.79,21.23H468.14a30.4,30.4,0,0,0,10.48-1.85C494.27,54.44,506,49.12,506,49.12Z"/><path class="cls-19" d="M198.87,112.81c9.19-9,9-12.74,9-12.74a26.82,26.82,0,0,1-1.36-8.5h0c0-11.73,7.27-21.23,16.24-21.23H363.17c9,0,16.24,9.51,16.24,21.23h0c0,11.73-7.27,21.23-16.24,21.23H222.71a13,13,0,0,1-6.6-1.85C206.26,118.13,198.87,112.81,198.87,112.81Z"/><line class="cls-20" x1="266.7" y1="22.18" x2="458.61" y2="22.18"/><line class="cls-21" x1="233.6" y1="92.53" x2="344.67" y2="92.53"/></g></g></svg>