<svg xmlns="http://www.w3.org/2000/svg" viewBox="0 0 320.35 412.05"><defs><style>.cls-1,.cls-13{fill:none;stroke-miterlimit:10;}.cls-1{stroke:#1f1f1f;}.cls-2{fill:#7c7c7d;opacity:0.29;}.cls-3{fill:#1f1f1f;}.cls-4{fill:#aaaad4;}.cls-5{fill:#bdbde0;}.cls-6{fill:#d7d6ec;}.cls-7{fill:#d0cfe9;}.cls-8{fill:#c0bee0;}.cls-9{fill:#c6c5e4;}.cls-10{fill:#cdcce7;}.cls-11{fill:#6b6b6c;}.cls-12{fill:#616164;}.cls-13{stroke:#7a797b;}.cls-14{fill:#4e4e50;}.cls-15{fill:#2b2c2c;}.cls-16{opacity:0.7;}.cls-17{opacity:0;}.cls-18{fill:#b5dfe8;}.cls-19{opacity:0.14;}.cls-20{fill:#b3dee7;}.cls-21{opacity:0.29;}.cls-22{fill:#b2dee7;}.cls-23{opacity:0.43;}.cls-24{fill:#b1dde6;}.cls-25{opacity:0.57;}.cls-26{fill:#b0dde6;}.cls-27{opacity:0.71;}.cls-28{fill:#afdce5;}.cls-29{opacity:0.86;}.cls-30{fill:#aedce4;}.cls-31{fill:#acdbe4;}.cls-32{opacity:0.8;}.cls-33{fill:#addce5;}.cls-34{fill:#4d64ad;opacity:0.36;}.cls-35,.cls-37{fill:#fff;}.cls-36{fill:#c7d7f0;}.cls-37{opacity:0.47;}.cls-38{fill:#f4a8b4;opacity:0.39;}.cls-39{fill:#6595ce;}</style></defs><title>imagen2</title><g id="Capa_2" data-name="Capa 2"><g id="Capa_1-2" data-name="Capa 1"><path class="cls-1" d="M207.94,307.44"/><ellipse class="cls-2" cx="197.86" cy="385" rx="122.5" ry="27.05"/><path class="cls-3" d="M252.2,215.69"/><polygon class="cls-4" points="227.39 274.65 254.23 372.93 282.9 296.92 229.47 269.45 227.39 274.65"/><polygon class="cls-4" points="256.23 234.99 282.9 296.92 229.47 269.45 234.98 258.91 256.23 234.99"/><polygon class="cls-5" points="219.44 208.34 256.23 234.99 234.98 258.91 219.44 208.34"/><polygon class="cls-6" points="58.5 256.1 95.45 209.59 119.97 192.92 164.16 178.19 197.45 190.89 219.56 208.34 235.79 258.13 227.91 276.56 143.91 329.26 121.17 327.89 60.47 269.76 58.5 256.1"/><polyline class="cls-7" points="224.91 276.58 206.41 364.55 253.82 371.42 227.39 274.65"/><polygon class="cls-8" points="207.39 364.68 194.36 400.68 221.49 394.01 254.26 372.68 253.86 371.17 207.39 364.68"/><polyline class="cls-4" points="257.03 233.63 262.02 227.43 281.83 293.37 256.23 234.99 197.85 192.42 208.14 187.92 218.92 196.54 237.84 209.92 252.73 220.42 260.73 225.91 261.86 227.26 261.9 227.39"/><polygon class="cls-7" points="70.05 357.86 208.99 365.19 143.56 328.61 121.12 327.45 70.05 357.86"/><polygon class="cls-9" points="60.49 269.45 70.05 357.95 121.2 327.99 60.49 269.45"/><polygon class="cls-10" points="70.05 357.86 95.12 393.38 194.36 400.68 207.95 365.24 70.05 357.86"/><polygon class="cls-8" points="57.46 360.63 82.21 385.92 95.12 393.38 70.05 357.95 57.46 360.63"/><polyline class="cls-6" points="60.49 269.45 57.46 360.63 48.91 288.61 59.9 270.42 60.49 269.45 55.31 234.74 48.91 288.61"/><polygon class="cls-7" points="57.46 360.63 70.64 357.95 60.47 269.76 57.46 360.63"/><polyline class="cls-5" points="55.31 233.25 58.5 256.1 95.45 209.59 55.9 233.34"/><polygon class="cls-6" points="197.85 192.42 207.21 188.17 164.93 179.07 197.85 192.42"/><polygon class="cls-9" points="143.26 328.89 206.93 365.19 225.6 277.2 143.26 328.89"/><path class="cls-11" d="M207.36,230.92c0,22.09-23.9,47-54.5,47s-53.75-12.16-53.75-34.25,27.9-47.75,58.5-47.75S207.36,208.83,207.36,230.92Z"/><path class="cls-12" d="M200.43,231.69c0,19.27-20.84,41-47.53,41S106,262.07,106,242.81s24.33-41.64,51-41.64S200.43,212.42,200.43,231.69Z"/><polygon class="cls-13" points="149.09 209.47 160.09 209.12 153.11 218.04 147.42 217.93 155.41 211.53 148.56 211.42 149.09 209.47"/><polygon class="cls-13" points="161.99 209.38 165.9 209.38 158.74 216.29 164.15 216.29 164.07 218.21 154.65 218.21 161.99 209.38"/><ellipse class="cls-12" cx="135.28" cy="306.46" rx="7.75" ry="6.27"/><ellipse class="cls-14" cx="135.28" cy="306.46" rx="5.4" ry="4.36"/><ellipse class="cls-12" cx="135.28" cy="306.46" rx="4.07" ry="3.29"/><ellipse class="cls-15" cx="135.28" cy="306.46" rx="1.58" ry="1.25"/><g class="cls-16"><g class="cls-17"><path class="cls-18" d="M83.09,220.38l-6.89,4.14a1.42,1.42,0,0,1-1.42,0l-7.06-3.94a1.41,1.41,0,0,1,0-2.45L74.56,214A1.41,1.41,0,0,1,76,214L83,217.93A1.42,1.42,0,0,1,83.09,220.38Z"/></g><g class="cls-19"><path class="cls-20" d="M83,208.9,76.07,213a1.42,1.42,0,0,1-1.42,0l-7.06-3.94a1.41,1.41,0,0,1,0-2.45l6.89-4.14a1.41,1.41,0,0,1,1.42,0l7.07,3.94A1.42,1.42,0,0,1,83,208.9Z"/></g><g class="cls-21"><path class="cls-22" d="M82.82,197.41l-6.89,4.14a1.42,1.42,0,0,1-1.42,0l-7.06-3.94a1.41,1.41,0,0,1,0-2.45L74.29,191a1.41,1.41,0,0,1,1.42,0L82.77,195A1.42,1.42,0,0,1,82.82,197.41Z"/></g><g class="cls-23"><path class="cls-24" d="M82.68,185.93l-6.89,4.14a1.42,1.42,0,0,1-1.42,0l-7.06-3.94a1.41,1.41,0,0,1,0-2.45l6.89-4.14a1.41,1.41,0,0,1,1.42,0l7.07,3.94A1.42,1.42,0,0,1,82.68,185.93Z"/></g><g class="cls-25"><path class="cls-26" d="M82.54,174.44l-6.89,4.14a1.42,1.42,0,0,1-1.42,0l-7.06-3.94a1.41,1.41,0,0,1,0-2.45L74,168.08a1.41,1.41,0,0,1,1.42,0L82.5,172A1.41,1.41,0,0,1,82.54,174.44Z"/></g><g class="cls-27"><path class="cls-28" d="M82.41,163l-6.89,4.14a1.42,1.42,0,0,1-1.42,0L67,163.19a1.42,1.42,0,0,1,0-2.45l6.89-4.14a1.41,1.41,0,0,1,1.42,0l7.07,3.94A1.41,1.41,0,0,1,82.41,163Z"/></g><g class="cls-29"><path class="cls-30" d="M82.27,151.48l-6.89,4.14a1.42,1.42,0,0,1-1.42,0L66.9,151.7a1.42,1.42,0,0,1,0-2.45l6.89-4.14a1.41,1.41,0,0,1,1.42,0L82.23,149A1.41,1.41,0,0,1,82.27,151.48Z"/></g><path class="cls-31" d="M82.13,140l-6.89,4.14a1.42,1.42,0,0,1-1.42,0l-7.06-3.94a1.42,1.42,0,0,1,0-2.45l6.89-4.14a1.41,1.41,0,0,1,1.42,0l7.07,3.94A1.41,1.41,0,0,1,82.13,140Z"/></g><g class="cls-32"><path class="cls-33" d="M82.12,140l-6.89,4.14a1.42,1.42,0,0,1-1.42,0l-7.06-3.94a1.41,1.41,0,0,1,0-2.45l6.89-4.14a1.41,1.41,0,0,1,1.42,0l7.07,3.94A1.41,1.41,0,0,1,82.12,140Z"/></g><g class="cls-16"><g class="cls-17"><path class="cls-18" d="M269.26,237.19l-6.89,4.14a1.42,1.42,0,0,1-1.42,0l-7.06-3.94a1.41,1.41,0,0,1,0-2.45l6.89-4.14a1.41,1.41,0,0,1,1.42,0l7.07,3.94A1.42,1.42,0,0,1,269.26,237.19Z"/></g><g class="cls-19"><path class="cls-20" d="M269.12,225.7l-6.89,4.14a1.42,1.42,0,0,1-1.42,0l-7.06-3.94a1.41,1.41,0,0,1,0-2.45l6.89-4.14a1.41,1.41,0,0,1,1.42,0l7.07,3.94A1.42,1.42,0,0,1,269.12,225.7Z"/></g><g class="cls-21"><path class="cls-22" d="M269,214.22l-6.89,4.14a1.42,1.42,0,0,1-1.42,0l-7.06-3.94a1.41,1.41,0,0,1,0-2.45l6.89-4.14a1.41,1.41,0,0,1,1.42,0l7.07,3.94A1.42,1.42,0,0,1,269,214.22Z"/></g><g class="cls-23"><path class="cls-24" d="M268.85,202.74,262,206.88a1.42,1.42,0,0,1-1.42,0L253.49,203a1.41,1.41,0,0,1,0-2.45l6.89-4.14a1.41,1.41,0,0,1,1.42,0l7.07,3.94A1.42,1.42,0,0,1,268.85,202.74Z"/></g><g class="cls-25"><path class="cls-26" d="M268.72,191.25l-6.89,4.14a1.42,1.42,0,0,1-1.42,0l-7.06-3.94a1.41,1.41,0,0,1,0-2.45l6.89-4.14a1.41,1.41,0,0,1,1.42,0l7.07,3.94A1.41,1.41,0,0,1,268.72,191.25Z"/></g><g class="cls-27"><path class="cls-28" d="M268.58,179.77l-6.89,4.14a1.42,1.42,0,0,1-1.42,0L253.21,180a1.42,1.42,0,0,1,0-2.45l6.89-4.14a1.41,1.41,0,0,1,1.42,0l7.07,3.94A1.41,1.41,0,0,1,268.58,179.77Z"/></g><g class="cls-29"><path class="cls-30" d="M268.44,168.29l-6.89,4.14a1.42,1.42,0,0,1-1.42,0l-7.06-3.94a1.42,1.42,0,0,1,0-2.45l6.89-4.14a1.41,1.41,0,0,1,1.42,0l7.07,3.94A1.41,1.41,0,0,1,268.44,168.29Z"/></g><path class="cls-31" d="M268.31,156.8l-6.89,4.14a1.42,1.42,0,0,1-1.42,0L252.94,157a1.42,1.42,0,0,1,0-2.45l6.89-4.14a1.41,1.41,0,0,1,1.42,0l7.07,3.94A1.41,1.41,0,0,1,268.31,156.8Z"/></g><g class="cls-32"><path class="cls-33" d="M268.29,156.8l-6.89,4.14a1.42,1.42,0,0,1-1.42,0L252.93,157a1.41,1.41,0,0,1,0-2.45l6.89-4.14a1.41,1.41,0,0,1,1.42,0l7.07,3.94A1.41,1.41,0,0,1,268.29,156.8Z"/></g><rect class="cls-34" x="17.29" y="14.21" width="96.9" height="96.9" rx="3.94" ry="3.94" transform="translate(-16.34 23.79) rotate(-18.28)"/><rect class="cls-35" x="11.08" y="11.08" width="96.9" height="96.9" rx="6.36" ry="6.36" transform="translate(-15.67 21.68) rotate(-18.28)"/><rect class="cls-36" x="19.28" y="19.35" width="80.39" height="80.39" transform="translate(-15.68 21.66) rotate(-18.28)"/><path class="cls-37" d="M33.27,111,27.56,93.69l8.35-20.13A5.78,5.78,0,0,1,43,70.24L58.46,75a2.06,2.06,0,0,0,2.39-.91L73.72,52.71a10.7,10.7,0,0,1,13.35-4.3l14.18,6.1.13.4,10,30.27-.88.29ZM29.54,93.76l4.91,14.86L109,84l-9.28-28.1L86.33,50.11a8.83,8.83,0,0,0-11,3.55L62.44,75.09a3.92,3.92,0,0,1-4.53,1.73L42.44,72a3.93,3.93,0,0,0-4.81,2.26Z"/><path class="cls-37" d="M58.76,51.45a9.9,9.9,0,1,1,3.1-.5A9.91,9.91,0,0,1,58.76,51.45Zm0-17.93A8,8,0,1,0,66.38,39,8,8,0,0,0,58.74,33.52Z"/><rect class="cls-34" x="216.54" y="50.7" width="73.87" height="73.87" rx="6.36" ry="6.36" transform="translate(36.02 -69.34) rotate(16.75)"/><rect class="cls-35" x="214.03" y="46.03" width="73.87" height="73.87" rx="6.36" ry="6.36" transform="translate(34.57 -68.82) rotate(16.75)"/><rect class="cls-38" x="220.28" y="52.31" width="61.28" height="61.28" transform="translate(34.56 -68.81) rotate(16.75)"/><path class="cls-37" d="M272.25,121.93l-60.46-18.2,4.09-13.58,14.09-9a4.63,4.63,0,0,1,6.17,1.08L243.68,92a1.35,1.35,0,0,0,1.62.41l17.41-7.74A8.37,8.37,0,0,1,273.2,88L279.43,98ZM214.1,102.48,271,119.61l6.41-21.3-5.79-9.38a6.51,6.51,0,0,0-8.15-2.52l-17.41,7.74a3.21,3.21,0,0,1-3.85-1l-7.55-9.76a2.78,2.78,0,0,0-3.7-.65l-13.51,8.58Z"/><path class="cls-37" d="M256.1,78.83a7.76,7.76,0,1,1,9.67-5.2A7.77,7.77,0,0,1,256.1,78.83ZM260,65.75a5.9,5.9,0,1,0,4,7.35A5.91,5.91,0,0,0,260,65.75Z"/><rect class="cls-34" x="114.55" y="98.78" width="47.72" height="47.72" rx="6.36" ry="6.36" transform="translate(-34.23 56.36) rotate(-20.54)"/><rect class="cls-35" x="111.44" y="97.36" width="47.72" height="47.72" rx="6.36" ry="6.36" transform="translate(-33.93 55.18) rotate(-20.54)"/><rect class="cls-39" x="115.48" y="101.43" width="39.59" height="39.59" transform="translate(-33.93 55.17) rotate(-20.54)"/><path class="cls-37" d="M123.1,147.65l-3.37-9,3.78-10.23a3.32,3.32,0,0,1,4-2.06l7.7,2.06a.55.55,0,0,0,.62-.27l5.92-10.79a5.74,5.74,0,0,1,7.07-2.59l7.29,2.8,5.82,15.53Zm-1.39-9,2.48,6.61L159.51,132l-4.87-13-6.51-2.5a3.87,3.87,0,0,0-4.77,1.75L137.44,129a2.4,2.4,0,0,1-2.73,1.17l-7.7-2.06a1.46,1.46,0,0,0-1.76.91Z"/><path class="cls-37" d="M134.57,117.73a5.34,5.34,0,1,1,5-7.22h0a5.34,5.34,0,0,1-5,7.22Zm0-8.83a3.48,3.48,0,1,0,3.27,2.26A3.47,3.47,0,0,0,134.56,108.9Z"/></g></g></svg>